#N canvas 0 24 1415 779 10;
#X msg 51 -632 bang;
#X obj -301 -1099 bng 100 250 50 0 start empty start 0 -10 0 20 -258113
-1 -258113;
#X obj 51 -651 bng 15 250 50 0 empty start empty 17 7 0 10 -262144
-1 -1;
#X obj -186 -1099 bng 100 250 50 0 stop empty stop 0 -10 0 20 -4160
-1 -4160;
#X floatatom 48 -731 5 0 0 0 - - -;
#X obj 125 -725 vsl 15 128 0.0005 0.1 0 1 vit empty speed 0 -9 0 10
-4032 -1 -1 533 1;
#X obj -276 -1141 gemwin;
#X msg -243 -1264 destroy;
#X msg -276 -1284 create;
#X msg -241 -1236 1;
#X msg -232 -1216 0;
#X obj 39 -705 < 0;
#X floatatom 66 -582 5 0 0 0 - - -;
#X obj 6 -684 spigot;
#X obj 65 -683 spigot;
#X obj 98 -705 > 0;
#X obj 65 -705 * 1;
#X obj 6 -705 * 1;
#X msg 169 -741 0.02;
#X obj 48 -751 r phi;
#X msg -219 -1169 dimen 1000 800;
#X obj 51 -556 bng 15 250 50 0 inc empty empty 17 7 0 10 -262144 -1
-1;
#N canvas 416 178 1001 667 move 0;
#X obj -20 709 inlet;
#X obj 71 724 inlet;
#X obj 209 1533 outlet;
#X obj 56 1444 gemhead;
#X obj 124 1461 translateXYZ;
#X obj 147 1429 - 3;
#X obj 124 1487 rotateXYZ;
#X obj 179 1373 float;
#X obj 178 1401 +;
#X obj 179 1351 bng 15 250 50 0 empty empty empty 17 7 0 10 -262144
-1 -1;
#X obj -19 1041 vsl 15 128 0 360 0 0 empty empty empty 0 -9 0 10 -262144
-1 -1 11121 1;
#X obj -34 1221 * 6.28319;
#X obj -34 1201 / 360;
#X obj 104 1376 float;
#X obj 104 1402 +;
#X obj 87 1352 bng 15 250 50 0 empty empty empty 17 7 0 10 -262144
-1 -1;
#X obj -34 1242 cos 45;
#X obj 170 1429 - 3;
#X obj 193 1290 spigot;
#X floatatom 193 1310 5 0 0 0 - - -;
#X obj -35 1285 spigot;
#X floatatom 119 1309 5 0 0 0 - - -;
#X obj 56 1288 spigot;
#X obj 408 1070 vsl 15 128 0 360 0 0 empty empty empty 0 -9 0 10 -262144
-1 -1 11121 1;
#X obj 323 1221 * 6.28319;
#X obj 323 1201 / 360;
#X obj 322 1285 spigot;
#X obj 323 1242 sin 45;
#X obj 119 1288 spigot;
#X obj 7 1074 spigot;
#X obj 7 1111 bng 15 250 50 0 empty empty empty 17 7 0 10 -262144 -1
-1;
#X obj 89 1076 spigot;
#X obj 167 1106 bng 15 250 50 0 empty empty empty 17 7 0 10 -262144
-1 -1;
#X obj 355 1107 bng 15 250 50 0 empty empty empty 17 7 0 10 -262144
-1 -1;
#X obj 10 944 hsl 150 40 0.5 359.5 0 0 empty empty empty -2 -8 0 10
-260097 -1 -1 13063 1;
#X obj 117 1005 <= 135;
#X obj 47 1004 <= 45;
#X obj 197 1008 <= 225;
#X obj 282 1007 <= 315;
#X obj 55 1329 r reset;
#X obj 147 1329 r reset;
#X obj 251 1288 spigot;
#X obj 33 882 spigot;
#X obj 79 883 spigot;
#X obj 7 1005 >= 315;
#X obj 84 1005 >= 45;
#X obj 243 1007 >= 225;
#X obj 158 1007 > 135;
#X obj 89 1109 bng 15 250 50 0 empty empty empty 17 7 0 10 -262144
-1 -1;
#X obj 89 1030 &;
#X msg 89 1135 0;
#X msg 7 1130 0;
#X msg 167 1138 0;
#X msg 355 1132 0;
#X obj -34 1177 int;
#X obj -34 1263 * 0.01;
#X obj 322 1263 * 0.01;
#X msg 164 1189 1;
#X floatatom 113 790 5 0 0 0 - - -;
#X obj 119 1242 * -0.01;
#X obj 251 1243 * -0.01;
#X obj 56 1244 * 0.01;
#X obj 189 1244 * 0.01;
#X msg 212 1192 -1;
#X obj 7 1026 |;
#X floatatom 0 901 0 -4.5 50 0 - - -;
#X obj 7 812 float;
#X obj 6 847 +;
#X obj -20 776 bng 15 250 50 0 empty empty empty 17 7 0 10 -262144
-1 -1;
#X obj 34 836 <= 0;
#X msg 34 860 360;
#X obj 79 835 >= 360;
#X msg 79 860 0;
#X obj 194 1166 bng 15 250 50 0 empty empty empty 17 7 0 10 -262144
-1 -1;
#X obj 153 1073 spigot;
#X obj 283 1068 spigot;
#X obj 153 1031 &;
#X obj 248 1032 &;
#X floatatom 7 1157 5 0 0 0 - - -;
#X floatatom 89 1157 5 0 0 0 - - -;
#X floatatom 152 1157 5 0 0 0 - - -;
#X floatatom 226 1162 5 0 0 0 - - -;
#X floatatom 284 1163 5 0 0 0 - - -;
#X floatatom 355 1162 5 0 0 0 - - -;
#X obj 199 954 s angle;
#X floatatom 114 1189 5 0 0 0 - - -;
#X floatatom 71 789 5 0 0 2 angle - -;
#X obj 113 738 inlet;
#X obj 304 1533 outlet;
#X obj 255 1533 outlet;
#X obj 125 1512 color;
#X obj 201 791 inlet;
#X obj 124 1536 square 0.16;
#X msg 55 1351 3;
#X msg 151 1352 3;
#X obj 305 688 r boussole;
#X obj 329 693 vsl 15 128 0 360 0 0 empty empty empty 0 -9 0 10 -262144
-1 -1 0 1;
#X obj 224 882 int;
#X connect 0 0 68 0;
#X connect 1 0 86 0;
#X connect 3 0 4 0;
#X connect 4 0 6 0;
#X connect 5 0 4 1;
#X connect 6 0 90 0;
#X connect 7 0 8 0;
#X connect 8 0 7 1;
#X connect 8 0 17 0;
#X connect 8 0 88 0;
#X connect 9 0 7 0;
#X connect 10 0 54 1;
#X connect 11 0 16 0;
#X connect 12 0 11 0;
#X connect 13 0 14 0;
#X connect 14 0 13 1;
#X connect 14 0 5 0;
#X connect 14 0 89 0;
#X connect 15 0 13 0;
#X connect 16 0 55 0;
#X connect 17 0 4 2;
#X connect 18 0 19 0;
#X connect 19 0 9 0;
#X connect 19 0 8 1;
#X connect 20 0 21 0;
#X connect 21 0 15 0;
#X connect 21 0 14 1;
#X connect 22 0 21 0;
#X connect 23 0 25 0;
#X connect 23 0 6 3;
#X connect 23 0 2 0;
#X connect 24 0 27 0;
#X connect 25 0 24 0;
#X connect 26 0 19 0;
#X connect 27 0 56 0;
#X connect 28 0 21 0;
#X connect 29 0 30 0;
#X connect 29 0 79 0;
#X connect 29 0 83 0;
#X connect 30 0 51 0;
#X connect 31 0 48 0;
#X connect 31 0 78 0;
#X connect 31 0 81 0;
#X connect 32 0 52 0;
#X connect 33 0 53 0;
#X connect 34 0 44 0;
#X connect 34 0 36 0;
#X connect 34 0 45 0;
#X connect 34 0 35 0;
#X connect 34 0 37 0;
#X connect 34 0 46 0;
#X connect 34 0 38 0;
#X connect 34 0 47 0;
#X connect 34 0 84 0;
#X connect 34 0 10 0;
#X connect 34 0 23 0;
#X connect 35 0 49 1;
#X connect 36 0 64 1;
#X connect 37 0 76 1;
#X connect 38 0 77 1;
#X connect 39 0 93 0;
#X connect 40 0 94 0;
#X connect 41 0 19 0;
#X connect 42 0 66 1;
#X connect 43 0 66 1;
#X connect 43 0 42 0;
#X connect 44 0 64 0;
#X connect 45 0 49 0;
#X connect 46 0 77 0;
#X connect 47 0 76 0;
#X connect 48 0 50 0;
#X connect 49 0 31 0;
#X connect 49 0 31 1;
#X connect 50 0 79 0;
#X connect 50 0 80 0;
#X connect 50 0 82 0;
#X connect 50 0 83 0;
#X connect 51 0 78 0;
#X connect 51 0 80 0;
#X connect 51 0 81 0;
#X connect 51 0 82 0;
#X connect 52 0 78 0;
#X connect 52 0 79 0;
#X connect 52 0 81 0;
#X connect 52 0 82 0;
#X connect 53 0 79 0;
#X connect 53 0 80 0;
#X connect 53 0 81 0;
#X connect 53 0 83 0;
#X connect 54 0 12 0;
#X connect 55 0 20 0;
#X connect 56 0 26 0;
#X connect 57 0 61 0;
#X connect 57 0 62 0;
#X connect 58 0 85 0;
#X connect 59 0 28 0;
#X connect 60 0 41 0;
#X connect 61 0 22 0;
#X connect 62 0 18 0;
#X connect 63 0 60 0;
#X connect 63 0 59 0;
#X connect 64 0 29 0;
#X connect 64 0 29 1;
#X connect 65 0 34 0;
#X connect 66 0 67 0;
#X connect 67 0 66 1;
#X connect 67 0 69 0;
#X connect 67 0 71 0;
#X connect 67 0 65 0;
#X connect 68 0 66 0;
#X connect 68 0 73 0;
#X connect 68 0 97 0;
#X connect 69 0 42 1;
#X connect 69 0 70 0;
#X connect 70 0 42 0;
#X connect 71 0 43 1;
#X connect 71 0 72 0;
#X connect 72 0 43 0;
#X connect 73 0 63 0;
#X connect 73 0 57 0;
#X connect 73 0 54 0;
#X connect 74 0 32 0;
#X connect 74 0 80 0;
#X connect 74 0 83 0;
#X connect 75 0 33 0;
#X connect 75 0 78 0;
#X connect 75 0 82 0;
#X connect 76 0 74 0;
#X connect 76 0 74 1;
#X connect 77 0 75 0;
#X connect 77 0 75 1;
#X connect 78 0 20 1;
#X connect 79 0 22 1;
#X connect 80 0 28 1;
#X connect 81 0 18 1;
#X connect 82 0 41 1;
#X connect 83 0 26 1;
#X connect 85 0 55 1;
#X connect 85 0 61 1;
#X connect 85 0 59 1;
#X connect 85 0 62 1;
#X connect 85 0 60 1;
#X connect 85 0 56 1;
#X connect 86 0 67 1;
#X connect 87 0 58 0;
#X connect 90 0 92 0;
#X connect 91 0 90 1;
#X connect 93 0 13 0;
#X connect 94 0 7 0;
#X connect 95 0 96 0;
#X connect 96 0 97 1;
#X restore 51 -533 pd move;
#X msg 9 -631 stop;
#X obj 9 -652 bng 15 250 50 0 empty stop empty 17 7 0 10 -262144 -1
-1;
#X obj 51 -611 metro 100;
#X obj 84 -1093 vsl 15 128 0 10 0 0 empty empty empty 0 -9 0 10 -262144
-1 -1 2553 1;
#X obj 136 -1096 vsl 15 128 0 10 0 0 empty empty empty 0 -9 0 10 -262144
-1 -1 4293 1;
#X obj 155 -1131 bng 15 250 50 0 empty inc empty 17 7 0 10 -262144
-1 -1;
#X msg 136 -1218 bang;
#X obj 84 -1150 / 100;
#X obj 136 -1150 / 100;
#X obj 136 -1239 bng 15 250 50 0 empty start empty 17 7 0 10 -262144
-1 -1;
#X msg 102 -1215 stop;
#X obj 102 -1233 bng 15 250 50 0 empty stop empty 17 7 0 10 -262144
-1 -1;
#X floatatom 84 -1116 5 0 0 0 - - -;
#X floatatom 136 -1116 5 0 0 0 - - -;
#X obj 16 -957 gemhead;
#X obj 61 -881 translateXYZ;
#X obj 61 -855 rotateXYZ;
#X obj 84 -901 - 3;
#X obj 109 -902 - 3;
#X obj 16 -912 color;
#X obj 61 -831 square 0.08;
#X msg 42 -936 1 0 1;
#X obj 28 -981 loadbang;
#X obj 89 -955 pack f f;
#X obj 92 -931 s target;
#X obj -101 -1141 s reset;
#X obj -101 -1163 bng 15 250 50 0 empty empty empty 17 7 0 10 -262144
-1 -1;
#X obj -13 -462 cnv 15 200 200 empty empty empty 20 12 0 14 -4032 -66577
0;
#X obj 167 -428 vsl 15 128 0 -0.1 0 1 empty empty angle 0 -9 0 10 -4034
-1 -1 12700 1;
#X obj 53 -296 s phi;
#N canvas 2 54 450 300 target 0;
#X obj 148 -170 /;
#X obj 148 -35 nbx 3 25 -1e+37 1e+37 0 0 empty empty phi_tar 0 -8 0
20 -258113 -1 -1 316.023 25;
#X obj 148 -127 * 360;
#X obj 148 -107 / 6.28319;
#X obj 148 -150 atan;
#X obj 133 -4 -;
#X obj 133 37 * 6.28319;
#X obj 133 17 / 360;
#X obj 133 78 *;
#X obj 133 99 * 360;
#X obj 133 119 / 6.28319;
#X floatatom 325 -250 5 0 0 2 lambda - -;
#X obj 133 58 sin;
#X floatatom 238 -250 5 0 0 2 pos_X - -;
#X floatatom 279 -250 5 0 0 2 pos_Y - -;
#X obj 148 -196 -;
#X obj 245 -187 -;
#X obj 245 -117 < 0;
#X obj 148 -87 spigot;
#X obj 181 -164 > 0;
#X obj 212 -68 spigot;
#X obj 212 -90 + 180;
#X text 222 102 angle max;
#X floatatom 132 147 5 0 0 0 - - -;
#X obj 148 -231 bng 15 250 50 0 empty empty empty 17 7 0 10 -262144
-1 -1;
#X obj 211 -163 > 0;
#X obj 181 -142 &;
#X obj 296 -139 < 0;
#X obj 321 -111 > 0;
#X obj 296 -111 &;
#X obj 263 -67 spigot;
#X obj 263 -89 + 360;
#X floatatom 62 -254 5 0 0 2 tar_X - -;
#X floatatom 113 -254 5 0 0 2 tar_Y - -;
#X floatatom 187 -253 5 0 0 2 angle - -;
#X obj 325 -286 inlet;
#X obj 279 -286 inlet;
#X obj 238 -286 inlet;
#X obj 187 -286 inlet;
#X obj 113 -287 inlet;
#X obj 62 -287 inlet;
#X obj 198 145 outlet;
#X connect 0 0 4 0;
#X connect 1 0 5 1;
#X connect 2 0 3 0;
#X connect 3 0 18 0;
#X connect 3 0 21 0;
#X connect 3 0 31 0;
#X connect 4 0 2 0;
#X connect 5 0 7 0;
#X connect 6 0 12 0;
#X connect 7 0 6 0;
#X connect 8 0 9 0;
#X connect 9 0 10 0;
#X connect 10 0 23 0;
#X connect 10 0 41 0;
#X connect 11 0 8 1;
#X connect 12 0 8 0;
#X connect 13 0 16 1;
#X connect 14 0 15 1;
#X connect 15 0 0 0;
#X connect 15 0 19 0;
#X connect 15 0 27 0;
#X connect 16 0 0 1;
#X connect 16 0 17 0;
#X connect 16 0 25 0;
#X connect 16 0 28 0;
#X connect 17 0 20 1;
#X connect 18 0 1 0;
#X connect 19 0 26 0;
#X connect 20 0 1 0;
#X connect 21 0 20 0;
#X connect 24 0 15 0;
#X connect 25 0 26 1;
#X connect 26 0 18 1;
#X connect 27 0 29 0;
#X connect 28 0 29 1;
#X connect 29 0 30 1;
#X connect 30 0 1 0;
#X connect 31 0 30 0;
#X connect 32 0 16 0;
#X connect 32 0 24 0;
#X connect 33 0 15 0;
#X connect 34 0 5 0;
#X connect 35 0 11 0;
#X connect 36 0 14 0;
#X connect 37 0 13 0;
#X connect 38 0 34 0;
#X connect 39 0 33 0;
#X connect 40 0 32 0;
#X restore 53 -364 pd target;
#X obj 53 -340 +;
#X obj -2 -412 r target;
#X obj -2 -392 unpack f f;
#X floatatom 53 -317 5 0 0 0 - - -;
#X floatatom 125 -587 5 0 0 0 - - -;
#X obj 124 -786 r target;
#X obj 41 -508 pack f f f;
#X obj 41 -485 s ang_coord;
#X obj 77 -413 r ang_coord;
#X obj 77 -392 unpack f f f;
#X obj 92 -337 r phi_obs;
#X msg -226 -1189 dimen 700 500;
#X floatatom 183 -965 5 0 0 0 - - -;
#N canvas 0 24 1897 968 speed 0;
#X obj 169 -840 -;
#X floatatom 169 -818 5 0 0 0 - - -;
#X obj 236 -840 -;
#X floatatom 236 -818 5 0 0 0 - - -;
#X obj 169 -798 abs;
#X obj 236 -799 abs;
#X obj 169 -777 +;
#X obj 140 -806 vsl 15 128 0 2 0 0 empty empty empty 0 -9 0 10 -262144
-1 -1 7423 1;
#X floatatom 169 -734 5 0 0 0 - - -;
#X floatatom 169 -693 5 0 0 0 - - -;
#X obj 169 -674 expr if ($f1==1 \, $f2 \, $f3);
#X msg 258 -693 0;
#X obj 169 -914 unpack f f;
#X obj 173 -891 r ang_coord;
#X obj 173 -870 unpack f f f;
#X obj 170 -959 inlet;
#X obj 169 -642 outlet;
#X obj 166 -759 / 250;
#X obj 169 -713 < 0.0005;
#X connect 0 0 1 0;
#X connect 1 0 4 0;
#X connect 2 0 3 0;
#X connect 3 0 5 0;
#X connect 4 0 6 0;
#X connect 5 0 6 1;
#X connect 6 0 7 0;
#X connect 6 0 17 0;
#X connect 8 0 10 2;
#X connect 8 0 18 0;
#X connect 9 0 10 0;
#X connect 9 0 11 0;
#X connect 10 0 16 0;
#X connect 11 0 10 1;
#X connect 12 0 0 0;
#X connect 12 1 2 0;
#X connect 13 0 14 0;
#X connect 14 1 0 1;
#X connect 14 2 2 1;
#X connect 15 0 12 0;
#X connect 17 0 8 0;
#X connect 18 0 9 0;
#X restore 126 -761 pd speed;
#X msg 346 -627 bang;
#X obj 346 -646 bng 15 250 50 0 empty start empty 17 7 0 10 -262144
-1 -1;
#X floatatom 343 -726 5 0 0 0 - - -;
#X obj 420 -720 vsl 15 128 0.0005 0.1 0 1 vit empty speed 0 -9 0 10
-4032 -1 -1 1986 1;
#X obj 334 -700 < 0;
#X floatatom 361 -577 5 0 0 0 - - -;
#X obj 301 -679 spigot;
#X obj 360 -678 spigot;
#X obj 393 -700 > 0;
#X obj 360 -700 * 1;
#X obj 301 -700 * 1;
#X msg 464 -736 0.02;
#X obj 346 -551 bng 15 250 50 0 inc empty empty 17 7 0 10 -262144 -1
-1;
#N canvas 416 178 1001 667 move 0;
#X obj -20 709 inlet;
#X obj 71 724 inlet;
#X obj 209 1533 outlet;
#X obj 56 1444 gemhead;
#X obj 124 1461 translateXYZ;
#X obj 147 1429 - 3;
#X obj 124 1487 rotateXYZ;
#X obj 179 1373 float;
#X obj 178 1401 +;
#X obj 179 1351 bng 15 250 50 0 empty empty empty 17 7 0 10 -262144
-1 -1;
#X obj -19 1041 vsl 15 128 0 360 0 0 empty empty empty 0 -9 0 10 -262144
-1 -1 2302 1;
#X obj -34 1221 * 6.28319;
#X obj -34 1201 / 360;
#X obj 104 1376 float;
#X obj 104 1402 +;
#X obj 87 1352 bng 15 250 50 0 empty empty empty 17 7 0 10 -262144
-1 -1;
#X obj -34 1242 cos 45;
#X obj 170 1429 - 3;
#X obj 193 1290 spigot;
#X floatatom 193 1310 5 0 0 0 - - -;
#X obj -35 1285 spigot;
#X floatatom 119 1309 5 0 0 0 - - -;
#X obj 56 1288 spigot;
#X obj 408 1070 vsl 15 128 0 360 0 0 empty empty empty 0 -9 0 10 -262144
-1 -1 2302 1;
#X obj 323 1221 * 6.28319;
#X obj 323 1201 / 360;
#X obj 322 1285 spigot;
#X obj 323 1242 sin 45;
#X obj 119 1288 spigot;
#X obj 7 1074 spigot;
#X obj 7 1111 bng 15 250 50 0 empty empty empty 17 7 0 10 -262144 -1
-1;
#X obj 89 1076 spigot;
#X obj 167 1106 bng 15 250 50 0 empty empty empty 17 7 0 10 -262144
-1 -1;
#X obj 355 1107 bng 15 250 50 0 empty empty empty 17 7 0 10 -262144
-1 -1;
#X obj 10 944 hsl 150 40 0.5 359.5 0 0 empty empty empty -2 -8 0 10
-260097 -1 -1 2688 1;
#X obj 117 1005 <= 135;
#X obj 47 1004 <= 45;
#X obj 197 1008 <= 225;
#X obj 282 1007 <= 315;
#X obj 55 1329 r reset;
#X obj 147 1329 r reset;
#X obj 251 1288 spigot;
#X obj 33 882 spigot;
#X obj 79 883 spigot;
#X obj 7 1005 >= 315;
#X obj 84 1005 >= 45;
#X obj 243 1007 >= 225;
#X obj 158 1007 > 135;
#X obj 89 1109 bng 15 250 50 0 empty empty empty 17 7 0 10 -262144
-1 -1;
#X obj 89 1030 &;
#X msg 89 1135 0;
#X msg 7 1130 0;
#X msg 167 1138 0;
#X msg 355 1132 0;
#X obj -34 1177 int;
#X obj -34 1263 * 0.01;
#X obj 322 1263 * 0.01;
#X msg 164 1189 1;
#X floatatom 113 790 5 0 0 0 - - -;
#X obj 119 1242 * -0.01;
#X obj 251 1243 * -0.01;
#X obj 56 1244 * 0.01;
#X obj 189 1244 * 0.01;
#X msg 212 1192 -1;
#X obj 7 1026 |;
#X floatatom 0 901 0 -4.5 50 0 - - -;
#X obj 7 812 float;
#X obj 6 847 +;
#X obj -20 776 bng 15 250 50 0 empty empty empty 17 7 0 10 -262144
-1 -1;
#X obj 34 836 <= 0;
#X msg 34 860 360;
#X obj 79 835 >= 360;
#X msg 79 860 0;
#X obj 194 1166 bng 15 250 50 0 empty empty empty 17 7 0 10 -262144
-1 -1;
#X obj 153 1073 spigot;
#X obj 283 1068 spigot;
#X obj 153 1031 &;
#X obj 248 1032 &;
#X floatatom 7 1157 5 0 0 0 - - -;
#X floatatom 89 1157 5 0 0 0 - - -;
#X floatatom 152 1157 5 0 0 0 - - -;
#X floatatom 226 1162 5 0 0 0 - - -;
#X floatatom 284 1163 5 0 0 0 - - -;
#X floatatom 355 1162 5 0 0 0 - - -;
#X obj 199 954 s angle;
#X floatatom 114 1189 5 0 0 0 - - -;
#X floatatom 71 789 5 0 0 2 angle - -;
#X obj 113 738 inlet;
#X obj 304 1533 outlet;
#X obj 255 1533 outlet;
#X obj 125 1512 color;
#X obj 201 791 inlet;
#X obj 124 1536 square 0.16;
#X msg 55 1351 3;
#X msg 151 1352 3;
#X obj 305 688 r boussole;
#X obj 329 693 vsl 15 128 0 360 0 0 empty empty empty 0 -9 0 10 -262144
-1 -1 0 1;
#X obj 224 882 int;
#X connect 0 0 68 0;
#X connect 1 0 86 0;
#X connect 3 0 4 0;
#X connect 4 0 6 0;
#X connect 5 0 4 1;
#X connect 6 0 90 0;
#X connect 7 0 8 0;
#X connect 8 0 7 1;
#X connect 8 0 17 0;
#X connect 8 0 88 0;
#X connect 9 0 7 0;
#X connect 10 0 54 1;
#X connect 11 0 16 0;
#X connect 12 0 11 0;
#X connect 13 0 14 0;
#X connect 14 0 13 1;
#X connect 14 0 5 0;
#X connect 14 0 89 0;
#X connect 15 0 13 0;
#X connect 16 0 55 0;
#X connect 17 0 4 2;
#X connect 18 0 19 0;
#X connect 19 0 9 0;
#X connect 19 0 8 1;
#X connect 20 0 21 0;
#X connect 21 0 15 0;
#X connect 21 0 14 1;
#X connect 22 0 21 0;
#X connect 23 0 25 0;
#X connect 23 0 6 3;
#X connect 23 0 2 0;
#X connect 24 0 27 0;
#X connect 25 0 24 0;
#X connect 26 0 19 0;
#X connect 27 0 56 0;
#X connect 28 0 21 0;
#X connect 29 0 30 0;
#X connect 29 0 79 0;
#X connect 29 0 83 0;
#X connect 30 0 51 0;
#X connect 31 0 48 0;
#X connect 31 0 78 0;
#X connect 31 0 81 0;
#X connect 32 0 52 0;
#X connect 33 0 53 0;
#X connect 34 0 44 0;
#X connect 34 0 36 0;
#X connect 34 0 45 0;
#X connect 34 0 35 0;
#X connect 34 0 37 0;
#X connect 34 0 46 0;
#X connect 34 0 38 0;
#X connect 34 0 47 0;
#X connect 34 0 84 0;
#X connect 34 0 10 0;
#X connect 34 0 23 0;
#X connect 35 0 49 1;
#X connect 36 0 64 1;
#X connect 37 0 76 1;
#X connect 38 0 77 1;
#X connect 39 0 93 0;
#X connect 40 0 94 0;
#X connect 41 0 19 0;
#X connect 42 0 66 1;
#X connect 43 0 66 1;
#X connect 43 0 42 0;
#X connect 44 0 64 0;
#X connect 45 0 49 0;
#X connect 46 0 77 0;
#X connect 47 0 76 0;
#X connect 48 0 50 0;
#X connect 49 0 31 0;
#X connect 49 0 31 1;
#X connect 50 0 79 0;
#X connect 50 0 80 0;
#X connect 50 0 82 0;
#X connect 50 0 83 0;
#X connect 51 0 78 0;
#X connect 51 0 80 0;
#X connect 51 0 81 0;
#X connect 51 0 82 0;
#X connect 52 0 78 0;
#X connect 52 0 79 0;
#X connect 52 0 81 0;
#X connect 52 0 82 0;
#X connect 53 0 79 0;
#X connect 53 0 80 0;
#X connect 53 0 81 0;
#X connect 53 0 83 0;
#X connect 54 0 12 0;
#X connect 55 0 20 0;
#X connect 56 0 26 0;
#X connect 57 0 61 0;
#X connect 57 0 62 0;
#X connect 58 0 85 0;
#X connect 59 0 28 0;
#X connect 60 0 41 0;
#X connect 61 0 22 0;
#X connect 62 0 18 0;
#X connect 63 0 60 0;
#X connect 63 0 59 0;
#X connect 64 0 29 0;
#X connect 64 0 29 1;
#X connect 65 0 34 0;
#X connect 66 0 67 0;
#X connect 67 0 66 1;
#X connect 67 0 69 0;
#X connect 67 0 71 0;
#X connect 67 0 65 0;
#X connect 68 0 66 0;
#X connect 68 0 73 0;
#X connect 68 0 97 0;
#X connect 69 0 42 1;
#X connect 69 0 70 0;
#X connect 70 0 42 0;
#X connect 71 0 43 1;
#X connect 71 0 72 0;
#X connect 72 0 43 0;
#X connect 73 0 63 0;
#X connect 73 0 57 0;
#X connect 73 0 54 0;
#X connect 74 0 32 0;
#X connect 74 0 80 0;
#X connect 74 0 83 0;
#X connect 75 0 33 0;
#X connect 75 0 78 0;
#X connect 75 0 82 0;
#X connect 76 0 74 0;
#X connect 76 0 74 1;
#X connect 77 0 75 0;
#X connect 77 0 75 1;
#X connect 78 0 20 1;
#X connect 79 0 22 1;
#X connect 80 0 28 1;
#X connect 81 0 18 1;
#X connect 82 0 41 1;
#X connect 83 0 26 1;
#X connect 85 0 55 1;
#X connect 85 0 61 1;
#X connect 85 0 59 1;
#X connect 85 0 62 1;
#X connect 85 0 60 1;
#X connect 85 0 56 1;
#X connect 86 0 67 1;
#X connect 87 0 58 0;
#X connect 90 0 92 0;
#X connect 91 0 90 1;
#X connect 93 0 13 0;
#X connect 94 0 7 0;
#X connect 95 0 96 0;
#X connect 96 0 97 1;
#X restore 346 -528 pd move;
#X msg 420 -565 0 1 1;
#X msg 304 -626 stop;
#X obj 346 -606 metro 100;
#X obj 379 -1088 vsl 15 128 0 10 0 0 empty empty empty 0 -9 0 10 -262144
-1 -1 4991 1;
#X obj 431 -1091 vsl 15 128 0 10 0 0 empty empty empty 0 -9 0 10 -262144
-1 -1 3975 1;
#X obj 450 -1126 bng 15 250 50 0 empty inc empty 17 7 0 10 -262144
-1 -1;
#X msg 431 -1213 bang;
#X obj 379 -1145 / 100;
#X obj 431 -1145 / 100;
#X obj 431 -1234 bng 15 250 50 0 empty start empty 17 7 0 10 -262144
-1 -1;
#X msg 397 -1210 stop;
#X obj 397 -1228 bng 15 250 50 0 empty stop empty 17 7 0 10 -262144
-1 -1;
#X floatatom 379 -1111 5 0 0 0 - - -;
#X floatatom 431 -1111 5 0 0 0 - - -;
#X obj 311 -952 gemhead;
#X obj 356 -876 translateXYZ;
#X obj 356 -850 rotateXYZ;
#X obj 379 -896 - 3;
#X obj 404 -897 - 3;
#X obj 311 -907 color;
#X obj 356 -826 square 0.08;
#X obj 323 -976 loadbang;
#X obj 384 -950 pack f f;
#X floatatom 420 -582 5 0 0 0 - - -;
#X obj 336 -503 pack f f f;
#X floatatom 478 -960 5 0 0 0 - - -;
#X obj 387 -926 s target2;
#X obj 419 -781 r target2;
#X obj 343 -746 r phi2;
#X obj 336 -480 s ang_coord2;
#X obj 459 -428 vsl 15 128 0 -0.1 0 1 empty empty angle 0 -9 0 10 -4034
-1 -1 7600 1;
#N canvas 2 54 450 300 target 0;
#X obj 148 -170 /;
#X obj 148 -35 nbx 3 25 -1e+37 1e+37 0 0 empty empty phi_tar 0 -8 0
20 -258113 -1 -1 31.826 25;
#X obj 148 -127 * 360;
#X obj 148 -107 / 6.28319;
#X obj 148 -150 atan;
#X obj 133 -4 -;
#X obj 133 37 * 6.28319;
#X obj 133 17 / 360;
#X obj 133 78 *;
#X obj 133 99 * 360;
#X obj 133 119 / 6.28319;
#X floatatom 325 -250 5 0 0 2 lambda - -;
#X obj 133 58 sin;
#X floatatom 238 -250 5 0 0 2 pos_X - -;
#X floatatom 279 -250 5 0 0 2 pos_Y - -;
#X obj 148 -196 -;
#X obj 245 -187 -;
#X obj 245 -117 < 0;
#X obj 148 -87 spigot;
#X obj 181 -164 > 0;
#X obj 212 -68 spigot;
#X obj 212 -90 + 180;
#X text 222 102 angle max;
#X floatatom 132 147 5 0 0 0 - - -;
#X obj 148 -231 bng 15 250 50 0 empty empty empty 17 7 0 10 -262144
-1 -1;
#X obj 211 -163 > 0;
#X obj 181 -142 &;
#X obj 296 -139 < 0;
#X obj 321 -111 > 0;
#X obj 296 -111 &;
#X obj 263 -67 spigot;
#X obj 263 -89 + 360;
#X floatatom 62 -254 5 0 0 2 tar_X - -;
#X floatatom 113 -254 5 0 0 2 tar_Y - -;
#X floatatom 187 -253 5 0 0 2 angle - -;
#X obj 325 -286 inlet;
#X obj 279 -286 inlet;
#X obj 238 -286 inlet;
#X obj 187 -286 inlet;
#X obj 113 -287 inlet;
#X obj 62 -287 inlet;
#X obj 198 145 outlet;
#X connect 0 0 4 0;
#X connect 1 0 5 1;
#X connect 2 0 3 0;
#X connect 3 0 18 0;
#X connect 3 0 21 0;
#X connect 3 0 31 0;
#X connect 4 0 2 0;
#X connect 5 0 7 0;
#X connect 6 0 12 0;
#X connect 7 0 6 0;
#X connect 8 0 9 0;
#X connect 9 0 10 0;
#X connect 10 0 23 0;
#X connect 10 0 41 0;
#X connect 11 0 8 1;
#X connect 12 0 8 0;
#X connect 13 0 16 1;
#X connect 14 0 15 1;
#X connect 15 0 0 0;
#X connect 15 0 19 0;
#X connect 15 0 27 0;
#X connect 16 0 0 1;
#X connect 16 0 17 0;
#X connect 16 0 25 0;
#X connect 16 0 28 0;
#X connect 17 0 20 1;
#X connect 18 0 1 0;
#X connect 19 0 26 0;
#X connect 20 0 1 0;
#X connect 21 0 20 0;
#X connect 24 0 15 0;
#X connect 25 0 26 1;
#X connect 26 0 18 1;
#X connect 27 0 29 0;
#X connect 28 0 29 1;
#X connect 29 0 30 1;
#X connect 30 0 1 0;
#X connect 31 0 30 0;
#X connect 32 0 16 0;
#X connect 32 0 24 0;
#X connect 33 0 15 0;
#X connect 34 0 5 0;
#X connect 35 0 11 0;
#X connect 36 0 14 0;
#X connect 37 0 13 0;
#X connect 38 0 34 0;
#X connect 39 0 33 0;
#X connect 40 0 32 0;
#X restore 345 -364 pd target;
#X obj 345 -340 +;
#X obj 290 -392 unpack f f;
#X floatatom 345 -317 5 0 0 0 - - -;
#X obj 369 -392 unpack f f f;
#X obj 384 -337 r phi_obs;
#X obj 292 -410 r target2;
#X obj 369 -413 r ang_coord2;
#X obj 345 -296 s phi2;
#X msg 125 -570 1 0 1;
#X msg 336 -931 0 1 1;
#N canvas 0 24 1897 968 speed2 0;
#X obj 169 -840 -;
#X floatatom 169 -818 5 0 0 0 - - -;
#X obj 236 -840 -;
#X floatatom 236 -818 5 0 0 0 - - -;
#X obj 169 -798 abs;
#X obj 236 -799 abs;
#X obj 169 -777 +;
#X obj 140 -806 vsl 15 128 0 2 0 0 empty empty empty 0 -9 0 10 -262144
-1 -1 12700 1;
#X floatatom 169 -734 5 0 0 0 - - -;
#X floatatom 169 -693 5 0 0 0 - - -;
#X obj 169 -674 expr if ($f1==1 \, $f2 \, $f3);
#X msg 258 -693 0;
#X obj 169 -914 unpack f f;
#X obj 173 -870 unpack f f f;
#X obj 170 -959 inlet;
#X obj 169 -642 outlet;
#X obj 173 -891 r ang_coord2;
#X obj 166 -759 / 250;
#X obj 169 -714 < 0.0005;
#X connect 0 0 1 0;
#X connect 1 0 4 0;
#X connect 2 0 3 0;
#X connect 3 0 5 0;
#X connect 4 0 6 0;
#X connect 5 0 6 1;
#X connect 6 0 7 0;
#X connect 6 0 17 0;
#X connect 8 0 10 2;
#X connect 8 0 18 0;
#X connect 9 0 10 0;
#X connect 9 0 11 0;
#X connect 10 0 15 0;
#X connect 11 0 10 1;
#X connect 12 0 0 0;
#X connect 12 1 2 0;
#X connect 13 1 0 1;
#X connect 13 2 2 1;
#X connect 14 0 12 0;
#X connect 16 0 13 0;
#X connect 17 0 8 0;
#X connect 18 0 9 0;
#X restore 420 -756 pd speed2;
#X obj -306 -912 gemhead;
#X floatatom -198 -840 0 0 0 0 - - -;
#X obj -306 -852 color;
#X msg -204 -907 1 1 1;
#X msg -204 -942 1 0 0;
#X obj -306 -759 square;
#X text -218 -979 change the color;
#X text -205 -872 rotate the square;
#X msg -203 -796 draw line;
#X msg -200 -723 width 1;
#X msg -199 -703 width 10;
#X obj -306 -801 rotate;
#X text -160 -941 red;
#X text -157 -906 white;
#X text -167 -838 (in degree);
#X obj -80 -858 vsl 15 128 0 4 0 0 empty empty empty 0 -9 0 10 -262144
-1 -1 12300 1;
#X obj 431 -1167 random 500;
#X obj 364 -1168 random 500;
#X obj 136 -1173 random 500;
#X obj 69 -1173 random 500;
#X msg 621 -630 bang;
#X obj 621 -649 bng 15 250 50 0 empty start empty 17 7 0 10 -262144
-1 -1;
#X floatatom 618 -729 5 0 0 0 - - -;
#X obj 695 -723 vsl 15 128 0.0005 0.1 0 1 vit empty speed 0 -9 0 10
-4032 -1 -1 981 1;
#X obj 609 -703 < 0;
#X floatatom 636 -580 5 0 0 0 - - -;
#X obj 576 -682 spigot;
#X obj 635 -681 spigot;
#X obj 668 -703 > 0;
#X obj 635 -703 * 1;
#X obj 576 -703 * 1;
#X msg 739 -739 0.02;
#X obj 621 -554 bng 15 250 50 0 inc empty empty 17 7 0 10 -262144 -1
-1;
#N canvas 416 178 1001 667 move 0;
#X obj -20 709 inlet;
#X obj 71 724 inlet;
#X obj 209 1533 outlet;
#X obj 56 1444 gemhead;
#X obj 124 1461 translateXYZ;
#X obj 147 1429 - 3;
#X obj 124 1487 rotateXYZ;
#X obj 179 1373 float;
#X obj 178 1401 +;
#X obj 179 1351 bng 15 250 50 0 empty empty empty 17 7 0 10 -262144
-1 -1;
#X obj -19 1041 vsl 15 128 0 360 0 0 empty empty empty 0 -9 0 10 -262144
-1 -1 2967 1;
#X obj -34 1221 * 6.28319;
#X obj -34 1201 / 360;
#X obj 104 1376 float;
#X obj 104 1402 +;
#X obj 87 1352 bng 15 250 50 0 empty empty empty 17 7 0 10 -262144
-1 -1;
#X obj -34 1242 cos 45;
#X obj 170 1429 - 3;
#X obj 193 1290 spigot;
#X floatatom 193 1310 5 0 0 0 - - -;
#X obj -35 1285 spigot;
#X floatatom 119 1309 5 0 0 0 - - -;
#X obj 56 1288 spigot;
#X obj 408 1070 vsl 15 128 0 360 0 0 empty empty empty 0 -9 0 10 -262144
-1 -1 2967 1;
#X obj 323 1221 * 6.28319;
#X obj 323 1201 / 360;
#X obj 322 1285 spigot;
#X obj 323 1242 sin 45;
#X obj 119 1288 spigot;
#X obj 7 1074 spigot;
#X obj 7 1111 bng 15 250 50 0 empty empty empty 17 7 0 10 -262144 -1
-1;
#X obj 89 1076 spigot;
#X obj 167 1106 bng 15 250 50 0 empty empty empty 17 7 0 10 -262144
-1 -1;
#X obj 355 1107 bng 15 250 50 0 empty empty empty 17 7 0 10 -262144
-1 -1;
#X obj 10 944 hsl 150 40 0.5 359.5 0 0 empty empty empty -2 -8 0 10
-260097 -1 -1 3470 1;
#X obj 117 1005 <= 135;
#X obj 47 1004 <= 45;
#X obj 197 1008 <= 225;
#X obj 282 1007 <= 315;
#X obj 55 1329 r reset;
#X obj 147 1329 r reset;
#X obj 251 1288 spigot;
#X obj 33 882 spigot;
#X obj 79 883 spigot;
#X obj 7 1005 >= 315;
#X obj 84 1005 >= 45;
#X obj 243 1007 >= 225;
#X obj 158 1007 > 135;
#X obj 89 1109 bng 15 250 50 0 empty empty empty 17 7 0 10 -262144
-1 -1;
#X obj 89 1030 &;
#X msg 89 1135 0;
#X msg 7 1130 0;
#X msg 167 1138 0;
#X msg 355 1132 0;
#X obj -34 1177 int;
#X obj -34 1263 * 0.01;
#X obj 322 1263 * 0.01;
#X msg 164 1189 1;
#X floatatom 113 790 5 0 0 0 - - -;
#X obj 119 1242 * -0.01;
#X obj 251 1243 * -0.01;
#X obj 56 1244 * 0.01;
#X obj 189 1244 * 0.01;
#X msg 212 1192 -1;
#X obj 7 1026 |;
#X floatatom 0 901 0 -4.5 50 0 - - -;
#X obj 7 812 float;
#X obj 6 847 +;
#X obj -20 776 bng 15 250 50 0 empty empty empty 17 7 0 10 -262144
-1 -1;
#X obj 34 836 <= 0;
#X msg 34 860 360;
#X obj 79 835 >= 360;
#X msg 79 860 0;
#X obj 194 1166 bng 15 250 50 0 empty empty empty 17 7 0 10 -262144
-1 -1;
#X obj 153 1073 spigot;
#X obj 283 1068 spigot;
#X obj 153 1031 &;
#X obj 248 1032 &;
#X floatatom 7 1157 5 0 0 0 - - -;
#X floatatom 89 1157 5 0 0 0 - - -;
#X floatatom 152 1157 5 0 0 0 - - -;
#X floatatom 226 1162 5 0 0 0 - - -;
#X floatatom 284 1163 5 0 0 0 - - -;
#X floatatom 355 1162 5 0 0 0 - - -;
#X obj 199 954 s angle;
#X floatatom 114 1189 5 0 0 0 - - -;
#X floatatom 71 789 5 0 0 2 angle - -;
#X obj 113 738 inlet;
#X obj 304 1533 outlet;
#X obj 255 1533 outlet;
#X obj 125 1512 color;
#X obj 201 791 inlet;
#X obj 124 1536 square 0.16;
#X msg 55 1351 3;
#X msg 151 1352 3;
#X obj 305 688 r boussole;
#X obj 329 693 vsl 15 128 0 360 0 0 empty empty empty 0 -9 0 10 -262144
-1 -1 0 1;
#X obj 224 882 int;
#X connect 0 0 68 0;
#X connect 1 0 86 0;
#X connect 3 0 4 0;
#X connect 4 0 6 0;
#X connect 5 0 4 1;
#X connect 6 0 90 0;
#X connect 7 0 8 0;
#X connect 8 0 7 1;
#X connect 8 0 17 0;
#X connect 8 0 88 0;
#X connect 9 0 7 0;
#X connect 10 0 54 1;
#X connect 11 0 16 0;
#X connect 12 0 11 0;
#X connect 13 0 14 0;
#X connect 14 0 13 1;
#X connect 14 0 5 0;
#X connect 14 0 89 0;
#X connect 15 0 13 0;
#X connect 16 0 55 0;
#X connect 17 0 4 2;
#X connect 18 0 19 0;
#X connect 19 0 9 0;
#X connect 19 0 8 1;
#X connect 20 0 21 0;
#X connect 21 0 15 0;
#X connect 21 0 14 1;
#X connect 22 0 21 0;
#X connect 23 0 25 0;
#X connect 23 0 6 3;
#X connect 23 0 2 0;
#X connect 24 0 27 0;
#X connect 25 0 24 0;
#X connect 26 0 19 0;
#X connect 27 0 56 0;
#X connect 28 0 21 0;
#X connect 29 0 30 0;
#X connect 29 0 79 0;
#X connect 29 0 83 0;
#X connect 30 0 51 0;
#X connect 31 0 48 0;
#X connect 31 0 78 0;
#X connect 31 0 81 0;
#X connect 32 0 52 0;
#X connect 33 0 53 0;
#X connect 34 0 44 0;
#X connect 34 0 36 0;
#X connect 34 0 45 0;
#X connect 34 0 35 0;
#X connect 34 0 37 0;
#X connect 34 0 46 0;
#X connect 34 0 38 0;
#X connect 34 0 47 0;
#X connect 34 0 84 0;
#X connect 34 0 10 0;
#X connect 34 0 23 0;
#X connect 35 0 49 1;
#X connect 36 0 64 1;
#X connect 37 0 76 1;
#X connect 38 0 77 1;
#X connect 39 0 93 0;
#X connect 40 0 94 0;
#X connect 41 0 19 0;
#X connect 42 0 66 1;
#X connect 43 0 66 1;
#X connect 43 0 42 0;
#X connect 44 0 64 0;
#X connect 45 0 49 0;
#X connect 46 0 77 0;
#X connect 47 0 76 0;
#X connect 48 0 50 0;
#X connect 49 0 31 0;
#X connect 49 0 31 1;
#X connect 50 0 79 0;
#X connect 50 0 80 0;
#X connect 50 0 82 0;
#X connect 50 0 83 0;
#X connect 51 0 78 0;
#X connect 51 0 80 0;
#X connect 51 0 81 0;
#X connect 51 0 82 0;
#X connect 52 0 78 0;
#X connect 52 0 79 0;
#X connect 52 0 81 0;
#X connect 52 0 82 0;
#X connect 53 0 79 0;
#X connect 53 0 80 0;
#X connect 53 0 81 0;
#X connect 53 0 83 0;
#X connect 54 0 12 0;
#X connect 55 0 20 0;
#X connect 56 0 26 0;
#X connect 57 0 61 0;
#X connect 57 0 62 0;
#X connect 58 0 85 0;
#X connect 59 0 28 0;
#X connect 60 0 41 0;
#X connect 61 0 22 0;
#X connect 62 0 18 0;
#X connect 63 0 60 0;
#X connect 63 0 59 0;
#X connect 64 0 29 0;
#X connect 64 0 29 1;
#X connect 65 0 34 0;
#X connect 66 0 67 0;
#X connect 67 0 66 1;
#X connect 67 0 69 0;
#X connect 67 0 71 0;
#X connect 67 0 65 0;
#X connect 68 0 66 0;
#X connect 68 0 73 0;
#X connect 68 0 97 0;
#X connect 69 0 42 1;
#X connect 69 0 70 0;
#X connect 70 0 42 0;
#X connect 71 0 43 1;
#X connect 71 0 72 0;
#X connect 72 0 43 0;
#X connect 73 0 63 0;
#X connect 73 0 57 0;
#X connect 73 0 54 0;
#X connect 74 0 32 0;
#X connect 74 0 80 0;
#X connect 74 0 83 0;
#X connect 75 0 33 0;
#X connect 75 0 78 0;
#X connect 75 0 82 0;
#X connect 76 0 74 0;
#X connect 76 0 74 1;
#X connect 77 0 75 0;
#X connect 77 0 75 1;
#X connect 78 0 20 1;
#X connect 79 0 22 1;
#X connect 80 0 28 1;
#X connect 81 0 18 1;
#X connect 82 0 41 1;
#X connect 83 0 26 1;
#X connect 85 0 55 1;
#X connect 85 0 61 1;
#X connect 85 0 59 1;
#X connect 85 0 62 1;
#X connect 85 0 60 1;
#X connect 85 0 56 1;
#X connect 86 0 67 1;
#X connect 87 0 58 0;
#X connect 90 0 92 0;
#X connect 91 0 90 1;
#X connect 93 0 13 0;
#X connect 94 0 7 0;
#X connect 95 0 96 0;
#X connect 96 0 97 1;
#X restore 621 -531 pd move;
#X msg 579 -629 stop;
#X obj 621 -609 metro 100;
#X floatatom 695 -585 5 0 0 0 - - -;
#X obj 611 -506 pack f f f;
#X obj 734 -431 vsl 15 128 0 -0.1 0 1 empty empty angle 0 -9 0 10 -4034
-1 -1 11300 1;
#N canvas 2 54 450 300 target 0;
#X obj 148 -170 /;
#X obj 148 -35 nbx 3 25 -1e+37 1e+37 0 0 empty empty phi_tar 0 -8 0
20 -258113 -1 -1 92.2833 25;
#X obj 148 -127 * 360;
#X obj 148 -107 / 6.28319;
#X obj 148 -150 atan;
#X obj 133 -4 -;
#X obj 133 37 * 6.28319;
#X obj 133 17 / 360;
#X obj 133 78 *;
#X obj 133 99 * 360;
#X obj 133 119 / 6.28319;
#X floatatom 325 -250 5 0 0 2 lambda - -;
#X obj 133 58 sin;
#X floatatom 238 -250 5 0 0 2 pos_X - -;
#X floatatom 279 -250 5 0 0 2 pos_Y - -;
#X obj 148 -196 -;
#X obj 245 -187 -;
#X obj 245 -117 < 0;
#X obj 148 -87 spigot;
#X obj 181 -164 > 0;
#X obj 212 -68 spigot;
#X obj 212 -90 + 180;
#X text 222 102 angle max;
#X floatatom 132 147 5 0 0 0 - - -;
#X obj 148 -231 bng 15 250 50 0 empty empty empty 17 7 0 10 -262144
-1 -1;
#X obj 211 -163 > 0;
#X obj 181 -142 &;
#X obj 296 -139 < 0;
#X obj 321 -111 > 0;
#X obj 296 -111 &;
#X obj 263 -67 spigot;
#X obj 263 -89 + 360;
#X floatatom 62 -254 5 0 0 2 tar_X - -;
#X floatatom 113 -254 5 0 0 2 tar_Y - -;
#X floatatom 187 -253 5 0 0 2 angle - -;
#X obj 325 -286 inlet;
#X obj 279 -286 inlet;
#X obj 238 -286 inlet;
#X obj 187 -286 inlet;
#X obj 113 -287 inlet;
#X obj 62 -287 inlet;
#X obj 198 145 outlet;
#X connect 0 0 4 0;
#X connect 1 0 5 1;
#X connect 2 0 3 0;
#X connect 3 0 18 0;
#X connect 3 0 21 0;
#X connect 3 0 31 0;
#X connect 4 0 2 0;
#X connect 5 0 7 0;
#X connect 6 0 12 0;
#X connect 7 0 6 0;
#X connect 8 0 9 0;
#X connect 9 0 10 0;
#X connect 10 0 23 0;
#X connect 10 0 41 0;
#X connect 11 0 8 1;
#X connect 12 0 8 0;
#X connect 13 0 16 1;
#X connect 14 0 15 1;
#X connect 15 0 0 0;
#X connect 15 0 19 0;
#X connect 15 0 27 0;
#X connect 16 0 0 1;
#X connect 16 0 17 0;
#X connect 16 0 25 0;
#X connect 16 0 28 0;
#X connect 17 0 20 1;
#X connect 18 0 1 0;
#X connect 19 0 26 0;
#X connect 20 0 1 0;
#X connect 21 0 20 0;
#X connect 24 0 15 0;
#X connect 25 0 26 1;
#X connect 26 0 18 1;
#X connect 27 0 29 0;
#X connect 28 0 29 1;
#X connect 29 0 30 1;
#X connect 30 0 1 0;
#X connect 31 0 30 0;
#X connect 32 0 16 0;
#X connect 32 0 24 0;
#X connect 33 0 15 0;
#X connect 34 0 5 0;
#X connect 35 0 11 0;
#X connect 36 0 14 0;
#X connect 37 0 13 0;
#X connect 38 0 34 0;
#X connect 39 0 33 0;
#X connect 40 0 32 0;
#X restore 620 -367 pd target;
#X obj 620 -343 +;
#X obj 565 -395 unpack f f;
#X floatatom 620 -320 5 0 0 0 - - -;
#X obj 644 -395 unpack f f f;
#X obj 659 -340 r phi_obs;
#X obj 620 -299 s phi3;
#X obj 644 -415 r ang_coord3;
#X obj 611 -483 s ang_coord3;
#X obj 618 -749 r phi3;
#N canvas 0 24 1897 968 speed3 0;
#X obj 169 -840 -;
#X floatatom 169 -818 5 0 0 0 - - -;
#X obj 236 -840 -;
#X floatatom 236 -818 5 0 0 0 - - -;
#X obj 169 -798 abs;
#X obj 236 -799 abs;
#X obj 169 -777 +;
#X obj 140 -806 vsl 15 128 0 2 0 0 empty empty empty 0 -9 0 10 -262144
-1 -1 12700 1;
#X floatatom 169 -734 5 0 0 0 - - -;
#X floatatom 169 -693 5 0 0 0 - - -;
#X obj 169 -674 expr if ($f1==1 \, $f2 \, $f3);
#X msg 258 -693 0;
#X obj 169 -914 unpack f f;
#X obj 173 -870 unpack f f f;
#X obj 170 -959 inlet;
#X obj 169 -642 outlet;
#X obj 166 -759 / 250;
#X obj 169 -714 < 0.0005;
#X obj 173 -891 r ang_coord3;
#X connect 0 0 1 0;
#X connect 1 0 4 0;
#X connect 2 0 3 0;
#X connect 3 0 5 0;
#X connect 4 0 6 0;
#X connect 5 0 6 1;
#X connect 6 0 7 0;
#X connect 6 0 16 0;
#X connect 8 0 10 2;
#X connect 8 0 17 0;
#X connect 9 0 10 0;
#X connect 9 0 11 0;
#X connect 10 0 15 0;
#X connect 11 0 10 1;
#X connect 12 0 0 0;
#X connect 12 1 2 0;
#X connect 13 1 0 1;
#X connect 13 2 2 1;
#X connect 14 0 12 0;
#X connect 16 0 8 0;
#X connect 17 0 9 0;
#X connect 18 0 13 0;
#X restore 695 -759 pd speed3;
#X msg 695 -568 1 1 1;
#X floatatom 677 -948 0 0 0 0 - - -;
#X obj 677 -974 + 1;
#X msg 677 -1067 bang;
#X obj 677 -1000 float;
#X msg 704 -1025 0;
#X obj 704 -1048 select 2;
#X obj 677 -917 pack f f f;
#X obj 686 -851 route 1 2;
#X obj 764 -919 - 1;
#X obj 755 -897 pack f f f;
#X obj 686 -823 s target3;
#X obj 694 -784 r target3;
#X obj 567 -413 r target3;
#X obj 136 -1198 metro 50000;
#X obj 431 -1193 metro 50000;
#X obj -628 -909 gemhead;
#X floatatom -517 -836 0 0 0 0 - - -;
#X text -677 -1051 change the color;
#X msg -689 -798 draw line;
#X msg -689 -765 draw fill;
#X text -815 -1083 this demonstrates how to create a blue rectangle
;
#X text -544 -851 rotate the rectangle;
#X floatatom -539 -752 0 0 0 0 - - -;
#X floatatom -444 -774 0 0 0 0 - - -;
#X text -507 -797 width;
#X text -449 -798 height;
#X text -567 -926 blue;
#X obj -628 -884 color 0 0 1;
#X text -496 -870 (blue);
#X obj -576 -774 rotate 0 0 0 1;
#X msg -454 -827 0 0 1;
#X obj -576 -732 rectangle 0.3 0.3;
#X obj -476 -1050 print;
#X obj -476 -1075 netreceive 3002 1;
#X obj -628 -833 translateXYZ;
#X obj -465 -995 vsl 15 128 0 2 0 0 empty empty empty 0 -9 0 10 -262144
-1 -1 5063 1;
#X obj -438 -995 vsl 15 128 0 2 0 0 empty empty empty 0 -9 0 10 -262144
-1 -1 0 1;
#X obj -431 -1048 unpack f f f f;
#X obj -463 -1020 / 100;
#X obj -593 -1121 print;
#X obj -548 -1119 unpack f f f f;
#X obj -593 -1146 netreceive 3003 1;
#X msg -566 -910 0 0 1;
#X obj -918 -873 gemhead;
#X floatatom -807 -800 0 0 0 0 - - -;
#X msg -979 -762 draw line;
#X msg -979 -729 draw fill;
#X text -834 -815 rotate the rectangle;
#X floatatom -829 -716 0 0 0 0 - - -;
#X floatatom -734 -738 0 0 0 0 - - -;
#X text -797 -761 width;
#X text -739 -762 height;
#X text -857 -890 blue;
#X obj -918 -848 color 0 0 1;
#X text -786 -834 (blue);
#X obj -866 -738 rotate 0 0 0 1;
#X msg -744 -791 0 0 1;
#X obj -866 -696 rectangle 0.3 0.3;
#X obj -918 -797 translateXYZ;
#X obj -755 -959 vsl 15 128 0 2 0 0 empty empty empty 0 -9 0 10 -262144
-1 -1 12700 1;
#X obj -728 -959 vsl 15 128 0 2 0 0 empty empty empty 0 -9 0 10 -262144
-1 -1 9000 1;
#X obj -753 -984 / 100;
#X msg -857 -874 0 0 0.5;
#X connect 0 0 25 0;
#X connect 2 0 0 0;
#X connect 4 0 11 0;
#X connect 4 0 16 0;
#X connect 4 0 15 0;
#X connect 4 0 17 0;
#X connect 5 0 22 2;
#X connect 5 0 58 0;
#X connect 7 0 6 0;
#X connect 8 0 6 0;
#X connect 9 0 6 0;
#X connect 10 0 6 0;
#X connect 11 0 13 1;
#X connect 12 0 22 1;
#X connect 13 0 12 0;
#X connect 14 0 12 0;
#X connect 15 0 14 1;
#X connect 16 0 14 0;
#X connect 17 0 13 0;
#X connect 18 0 5 0;
#X connect 19 0 4 0;
#X connect 20 0 6 0;
#X connect 21 0 22 0;
#X connect 22 0 60 0;
#X connect 22 1 60 1;
#X connect 22 2 60 2;
#X connect 23 0 25 0;
#X connect 24 0 23 0;
#X connect 25 0 21 0;
#X connect 26 0 40 0;
#X connect 26 0 46 0;
#X connect 26 0 185 1;
#X connect 27 0 41 0;
#X connect 27 0 46 1;
#X connect 27 0 66 0;
#X connect 27 0 185 2;
#X connect 28 0 35 0;
#X connect 28 0 36 0;
#X connect 29 0 189 0;
#X connect 30 0 35 0;
#X connect 31 0 36 0;
#X connect 32 0 29 0;
#X connect 33 0 189 0;
#X connect 34 0 33 0;
#X connect 35 0 26 0;
#X connect 36 0 27 0;
#X connect 37 0 42 0;
#X connect 38 0 39 0;
#X connect 39 0 43 0;
#X connect 40 0 38 1;
#X connect 41 0 38 2;
#X connect 42 0 38 0;
#X connect 44 0 42 1;
#X connect 45 0 44 0;
#X connect 46 0 47 0;
#X connect 49 0 48 0;
#X connect 51 0 53 5;
#X connect 53 0 54 0;
#X connect 54 0 57 0;
#X connect 55 0 56 0;
#X connect 56 0 53 0;
#X connect 56 1 53 1;
#X connect 57 0 52 0;
#X connect 59 0 67 0;
#X connect 60 0 61 0;
#X connect 62 0 63 0;
#X connect 63 0 53 2;
#X connect 63 1 53 3;
#X connect 63 2 53 4;
#X connect 64 0 54 1;
#X connect 65 0 6 0;
#X connect 67 0 5 0;
#X connect 68 0 84 0;
#X connect 69 0 68 0;
#X connect 70 0 72 0;
#X connect 70 0 77 0;
#X connect 70 0 76 0;
#X connect 70 0 78 0;
#X connect 71 0 81 2;
#X connect 71 0 105 0;
#X connect 72 0 74 1;
#X connect 73 0 81 1;
#X connect 74 0 73 0;
#X connect 75 0 73 0;
#X connect 76 0 75 1;
#X connect 77 0 75 0;
#X connect 78 0 74 0;
#X connect 79 0 71 0;
#X connect 80 0 81 0;
#X connect 81 0 106 0;
#X connect 81 1 106 1;
#X connect 81 2 106 2;
#X connect 82 0 81 3;
#X connect 83 0 84 0;
#X connect 84 0 80 0;
#X connect 85 0 99 0;
#X connect 85 0 104 0;
#X connect 85 0 182 1;
#X connect 86 0 100 0;
#X connect 86 0 104 1;
#X connect 86 0 107 0;
#X connect 86 0 182 2;
#X connect 87 0 94 0;
#X connect 87 0 95 0;
#X connect 87 0 176 0;
#X connect 88 0 190 0;
#X connect 89 0 94 0;
#X connect 90 0 95 0;
#X connect 91 0 88 0;
#X connect 92 0 190 0;
#X connect 93 0 92 0;
#X connect 94 0 85 0;
#X connect 95 0 86 0;
#X connect 96 0 101 0;
#X connect 97 0 98 0;
#X connect 98 0 102 0;
#X connect 99 0 97 1;
#X connect 100 0 97 2;
#X connect 101 0 97 0;
#X connect 103 0 123 0;
#X connect 104 0 108 0;
#X connect 106 0 111 0;
#X connect 109 0 124 0;
#X connect 110 0 70 0;
#X connect 112 0 113 5;
#X connect 113 0 114 0;
#X connect 114 0 116 0;
#X connect 115 0 113 0;
#X connect 115 1 113 1;
#X connect 116 0 121 0;
#X connect 117 0 113 2;
#X connect 117 1 113 3;
#X connect 117 2 113 4;
#X connect 118 0 114 1;
#X connect 119 0 115 0;
#X connect 120 0 117 0;
#X connect 122 0 22 3;
#X connect 123 0 101 1;
#X connect 124 0 71 0;
#X connect 125 0 127 0;
#X connect 126 0 136 1;
#X connect 127 0 136 0;
#X connect 128 0 127 1;
#X connect 129 0 127 1;
#X connect 133 0 130 0;
#X connect 134 0 130 0;
#X connect 135 0 130 0;
#X connect 136 0 130 0;
#X connect 140 0 130 1;
#X connect 141 0 90 0;
#X connect 142 0 89 0;
#X connect 143 0 31 0;
#X connect 144 0 30 0;
#X connect 145 0 160 0;
#X connect 146 0 145 0;
#X connect 147 0 149 0;
#X connect 147 0 154 0;
#X connect 147 0 153 0;
#X connect 147 0 155 0;
#X connect 148 0 158 2;
#X connect 148 0 161 0;
#X connect 149 0 151 1;
#X connect 150 0 158 1;
#X connect 151 0 150 0;
#X connect 152 0 150 0;
#X connect 153 0 152 1;
#X connect 154 0 152 0;
#X connect 155 0 151 0;
#X connect 156 0 148 0;
#X connect 157 0 158 0;
#X connect 158 0 162 0;
#X connect 158 1 162 1;
#X connect 158 2 162 2;
#X connect 159 0 160 0;
#X connect 160 0 157 0;
#X connect 162 0 172 0;
#X connect 163 0 164 5;
#X connect 164 0 165 0;
#X connect 165 0 167 0;
#X connect 166 0 164 0;
#X connect 166 1 164 1;
#X connect 167 0 170 0;
#X connect 168 0 164 2;
#X connect 168 1 164 3;
#X connect 168 2 164 4;
#X connect 169 0 165 1;
#X connect 171 0 168 0;
#X connect 173 0 147 0;
#X connect 174 0 148 0;
#X connect 175 0 158 3;
#X connect 176 0 182 0;
#X connect 176 0 184 0;
#X connect 177 0 176 0;
#X connect 177 0 179 1;
#X connect 177 0 181 0;
#X connect 178 0 179 0;
#X connect 179 0 177 0;
#X connect 180 0 179 1;
#X connect 181 0 180 0;
#X connect 182 0 183 0;
#X connect 183 0 186 0;
#X connect 184 0 185 0;
#X connect 185 0 183 0;
#X connect 187 0 174 0;
#X connect 188 0 166 0;
#X connect 189 0 143 0;
#X connect 189 0 144 0;
#X connect 190 0 141 0;
#X connect 190 0 142 0;
#X connect 190 0 178 0;
#X connect 191 0 203 0;
#X connect 192 0 205 1;
#X connect 194 0 207 0;
#X connect 195 0 207 0;
#X connect 198 0 207 1;
#X connect 199 0 207 2;
#X connect 203 0 210 0;
#X connect 205 0 207 0;
#X connect 206 0 205 2;
#X connect 209 0 213 0;
#X connect 210 0 205 0;
#X connect 211 0 210 1;
#X connect 212 0 210 2;
#X connect 213 1 214 0;
#X connect 214 0 211 0;
#X connect 216 1 237 0;
#X connect 217 0 215 0;
#X connect 217 0 216 0;
#X connect 218 0 203 1;
#X connect 219 0 229 0;
#X connect 220 0 231 1;
#X connect 221 0 233 0;
#X connect 222 0 233 0;
#X connect 224 0 233 1;
#X connect 225 0 233 2;
#X connect 229 0 234 0;
#X connect 231 0 233 0;
#X connect 232 0 231 2;
#X connect 234 0 231 0;
#X connect 235 0 234 1;
#X connect 236 0 234 2;
#X connect 237 0 235 0;
#X connect 238 0 229 1;
