#N canvas 972 203 634 604 10;
#X obj 27 -110 vradio 15 1 0 8 empty empty empty 0 -8 0 10 -262144
-1 -1 1;
#X obj 61 4 hradio 15 1 0 10 empty empty empty 0 -8 0 10 -262144 -1
-1 4;
#N canvas 98 177 750 921 trans 1;
#X obj 53 -376 inlet;
#X obj 73 452 outlet;
#X obj 88 14 vsl 15 128 -100 1000 0 0 empty empty empty 0 -9 0 4 -262144
-1 -1 5200 1;
#X obj 104 -9 vsl 15 128 -250 400 0 1 empty empty empty 0 -9 0 10 -262144
-1 -1 8900 1;
#X obj 120 -26 vsl 15 128 0 50 0 0 empty empty empty 0 -9 0 10 -262144
-1 -1 7112 1;
#X obj 135 -48 vsl 15 128 1 10 0 0 empty empty empty 0 -9 0 10 -262144
-1 -1 0 1;
#X obj 88 150 int;
#X obj 104 130 int;
#X obj 120 110 int;
#X obj 135 89 int;
#X obj 150 -84 vsl 15 128 0 127 0 0 empty empty empty 0 -9 0 10 -262144
-1 -1 5200 1;
#X obj 167 -98 vsl 15 128 100 500 0 0 empty empty empty 0 -9 0 10 -262144
-1 -1 12700 1;
#X obj 151 65 int;
#X obj 167 45 int;
#X text 90 -5 x;
#X text 107 -29 y;
#X text 88 -49 nbr seg;
#X text 84 -67 width _seg;
#X text 134 -99 rmin;
#X text 153 -117 rmax;
#X obj 182 -119 vsl 15 128 1 20 0 0 empty empty empty 0 -9 0 10 -262144
-1 -1 668 1;
#X obj 182 23 int;
#X obj 198 4 int;
#X obj 198 -130 vsl 15 128 1 20 0 0 empty empty empty 0 -9 0 10 -262144
-1 -1 1337 1;
#X text 180 -131 dx;
#X text 197 -148 dy;
#X obj 219 66 vradio 15 1 0 3 empty empty empty 0 -8 0 10 -262144 -1
-1 0;
#X text 235 120 gauche;
#X text 235 135 droite;
#X text 237 151 les 2;
#X obj 88 -34 r x;
#X floatatom 120 197 2 0 0 0 - - -;
#X floatatom 135 215 2 0 0 0 - - -;
#X floatatom 151 234 3 0 0 0 - - -;
#X floatatom 167 252 3 0 0 0 - - -;
#X floatatom 182 272 2 0 0 0 - - -;
#X floatatom 198 290 2 0 0 0 - - -;
#X text 75 195 nbr seg;
#X text 70 212 width _seg;
#X text 120 233 rmin;
#X text 137 248 rmax;
#X text 163 270 dx;
#X text 180 288 dy;
#X floatatom 53 -352 5 0 0 0 - - -;
#N canvas 543 330 720 652 choice 0;
#X msg 105 518 print;
#X msg 243 521 print;
#X msg 80 440 saveXML example.xml;
#X msg 205 458 readXML example.xml;
#X obj 190 138 inlet;
#X obj 223 139 bng 15 250 50 0 empty record_val empty 0 -6 0 8 -262144
-1 -1;
#X obj 190 196 spigot;
#X msg 199 173 0;
#X msg 223 173 1;
#X obj 307 286 print record;
#X obj 80 554 h_list blablu;
#X msg -107 72 begin;
#X msg -36 120 next;
#X msg -92 101 end;
#X msg -28 149 last;
#X msg -22 198 getiter;
#X msg -20 266 setiter \$1;
#X floatatom -20 247 5 0 0 0 - - -;
#X obj -55 304 h_list blablu;
#X obj -101 338 print read;
#X obj 51 330 bng 15 250 50 0 empty empty empty 0 -6 0 8 -262144 -1
-1;
#X floatatom -30 367 5 0 0 0 - - -;
#X floatatom 10 348 5 0 0 0 - - -;
#X msg 857 111 print;
#X msg 857 185 clear;
#X msg 857 456 help;
#X obj 978 515 bng 15 250 50 0 empty empty empty 0 -6 0 8 -262144 -1
-1;
#X msg 857 52 getnamespace;
#X msg 857 223 clearall;
#X obj 857 572 print BBB;
#X text 968 77 <- change namespace;
#X text 904 112 <- print all the data of the;
#X text 923 127 current namespace;
#X text 905 185 <- clear all the data of the;
#X text 926 200 current namespace;
#X text 925 225 <- clear all the data in all;
#X text 946 240 same containers (maybe;
#X text 948 255 you shouldn't use this);
#X text 957 54 <- get current namespace;
#X msg 857 381 getsize;
#X floatatom 897 552 5 0 0 0 - - -;
#X text 944 394 outlet);
#X text 978 533 <- size of the list;
#X floatatom 937 533 5 0 0 0 - - -;
#X text 939 553 <- current iterator position;
#X msg 857 413 getiter;
#X text 922 380 <- get the size (at 3nd;
#X text 948 429 (2nd outlet);
#X text 927 414 <- get current iterator pos;
#N canvas 174 22 646 317 read_save_possibilities 0;
#X obj 50 258 outlet;
#X msg 50 158 save data.dat;
#X msg 50 194 read data.dat;
#X text 155 158 <- save all the data of the current namespace as textfile
;
#X text 149 194 <- read this textfile to the current namespace and
insert it at the back (so the size will increase);
#X text 173 83 <- read this XML-file to the current namespace and insert
it at the back (so the size will increase);
#X text 176 50 <- save all the data of the current namespace as XML-file
;
#X msg 51 50 saveXML data.xml;
#X msg 51 82 readXML data.xml;
#X connect 1 0 0 0;
#X connect 2 0 0 0;
#X connect 7 0 0 0;
#X connect 8 0 0 0;
#X restore 857 290 pd read_save_possibilities;
#X text 897 314 different possiblities to read;
#X text 897 328 and write from and to files;
#X text 896 343 (XML and textfiles);
#X msg 857 148 getall;
#X text 909 148 <- dumps out all data sequentially;
#X text 930 162 at the first outlet;
#X obj 857 494 h_list blablu;
#X msg -42 72 print;
#X obj 205 557 h_list blablu;
#X msg -8 88 get;
#X obj -19 7 inlet;
#X text 252 -42 comment;
#X text 12 368 comment;
#X text 51 348 comment;
#X msg 190 250 modify \$1 \$2 \$3 \$4 \$5 \$6 \$7 \$8 \$9;
#X connect 0 0 10 0;
#X connect 1 0 58 0;
#X connect 2 0 10 0;
#X connect 3 0 58 0;
#X connect 4 0 6 0;
#X connect 4 0 7 0;
#X connect 5 0 8 0;
#X connect 6 0 64 0;
#X connect 7 0 6 1;
#X connect 8 0 6 1;
#X connect 11 0 18 0;
#X connect 12 0 18 0;
#X connect 13 0 18 0;
#X connect 14 0 18 0;
#X connect 15 0 18 0;
#X connect 16 0 18 0;
#X connect 17 0 16 0;
#X connect 18 0 19 0;
#X connect 18 1 21 0;
#X connect 18 2 22 0;
#X connect 18 3 20 0;
#X connect 23 0 56 0;
#X connect 24 0 56 0;
#X connect 25 0 56 0;
#X connect 27 0 56 0;
#X connect 28 0 56 0;
#X connect 39 0 56 0;
#X connect 45 0 56 0;
#X connect 49 0 56 0;
#X connect 53 0 56 0;
#X connect 56 0 29 0;
#X connect 56 1 40 0;
#X connect 56 2 43 0;
#X connect 56 3 26 0;
#X connect 57 0 18 0;
#X connect 59 0 18 0;
#X connect 60 0 17 0;
#X connect 64 0 9 0;
#X connect 64 0 18 0;
#X restore 53 378 pd choice;
#X symbolatom 233 281 10 0 0 0 - - -;
#X obj 104 350 pack f f f f f f f f s;
#X symbolatom 244 -133 10 0 0 0 - - -;
#N canvas 549 326 720 652 preset_solo 0;
#X msg 135 -13 begin;
#X msg 206 35 next;
#X text 252 -42 <- points _after_ the last element of the h_list;
#X text 250 35 <- increment the iterator - so it will point to;
#X msg 150 16 end;
#X msg 214 64 last;
#X text 249 72 <- decrement the iterator - so it will point to;
#X msg 220 113 getiter;
#X msg 222 181 setiter \$1;
#X floatatom 222 162 5 0 0 0 - - -;
#X obj 187 219 h_list blablu;
#X obj 293 245 bng 15 250 50 0 empty empty empty 0 -6 0 8 -262144 -1
-1;
#X floatatom 212 282 5 0 0 0 - - -;
#X text 293 263 <- size of the list;
#X floatatom 252 263 5 0 0 0 - - -;
#X text 254 283 <- current iterator position;
#X msg 857 111 print;
#X msg 857 185 clear;
#X msg 857 456 help;
#X obj 978 515 bng 15 250 50 0 empty empty empty 0 -6 0 8 -262144 -1
-1;
#X msg 857 52 getnamespace;
#X msg 857 223 clearall;
#X obj 857 572 print BBB;
#X text 968 77 <- change namespace;
#X text 904 112 <- print all the data of the;
#X text 923 127 current namespace;
#X text 905 185 <- clear all the data of the;
#X text 926 200 current namespace;
#X text 925 225 <- clear all the data in all;
#X text 946 240 same containers (maybe;
#X text 948 255 you shouldn't use this);
#X text 957 54 <- get current namespace;
#X msg 857 381 getsize;
#X floatatom 897 552 5 0 0 0 - - -;
#X text 944 394 outlet);
#X text 978 533 <- size of the list;
#X floatatom 937 533 5 0 0 0 - - -;
#X text 939 553 <- current iterator position;
#X msg 857 413 getiter;
#X text 922 380 <- get the size (at 3nd;
#X text 948 429 (2nd outlet);
#X text 927 414 <- get current iterator pos;
#N canvas 174 22 646 317 read_save_possibilities 0;
#X obj 50 258 outlet;
#X msg 50 158 save data.dat;
#X msg 50 194 read data.dat;
#X text 155 158 <- save all the data of the current namespace as textfile
;
#X text 149 194 <- read this textfile to the current namespace and
insert it at the back (so the size will increase);
#X text 173 83 <- read this XML-file to the current namespace and insert
it at the back (so the size will increase);
#X text 176 50 <- save all the data of the current namespace as XML-file
;
#X msg 51 50 saveXML data.xml;
#X msg 51 82 readXML data.xml;
#X connect 1 0 0 0;
#X connect 2 0 0 0;
#X connect 7 0 0 0;
#X connect 8 0 0 0;
#X restore 857 290 pd read_save_possibilities;
#X text 897 314 different possiblities to read;
#X text 897 328 and write from and to files;
#X text 896 343 (XML and textfiles);
#X msg 857 148 getall;
#X text 909 148 <- dumps out all data sequentially;
#X text 930 162 at the first outlet;
#X obj 857 494 h_list blablu;
#X msg 200 -13 print;
#X msg 234 3 get;
#X obj 187 330 outlet;
#X obj 350 11 inlet;
#X obj 296 153 bng 15 250 50 0 empty empty empty 17 7 0 10 -262144
-1 -1;
#X connect 0 0 10 0;
#X connect 1 0 10 0;
#X connect 4 0 10 0;
#X connect 5 0 10 0;
#X connect 7 0 10 0;
#X connect 8 0 10 0;
#X connect 8 0 54 0;
#X connect 9 0 8 0;
#X connect 10 0 52 0;
#X connect 10 1 12 0;
#X connect 10 2 14 0;
#X connect 10 3 11 0;
#X connect 16 0 49 0;
#X connect 17 0 49 0;
#X connect 18 0 49 0;
#X connect 20 0 49 0;
#X connect 21 0 49 0;
#X connect 32 0 49 0;
#X connect 38 0 49 0;
#X connect 42 0 49 0;
#X connect 46 0 49 0;
#X connect 49 0 22 0;
#X connect 49 1 33 0;
#X connect 49 2 36 0;
#X connect 49 3 19 0;
#X connect 50 0 10 0;
#X connect 51 0 10 0;
#X connect 53 0 9 0;
#X connect 54 0 51 0;
#X restore 103 -301 pd preset_solo;
#X floatatom 53 268 2 0 0 0 - - -;
#X obj 103 -169 unpack f f f f f f f f s;
#X floatatom 74 -128 2 0 0 0 - - -;
#X obj 61 296 / 10;
#X obj 61 316 int;
#X obj -32 -361 bng 50 250 50 0 record_val empty REC 0 -10 0 25 -258113
-204800 -66577;
#X msg 0 -149 stop;
#X floatatom 73 126 2 0 0 0 - - -;
#X msg -28 -172 bang;
#X floatatom 180 -145 5 0 0 0 - - -;
#N canvas 67 89 450 300 smoothall 0;
#X obj 85 -72 unpack f f f f f f f f s;
#X obj 85 -103 inlet;
#X obj 102 -45 smooth;
#X obj 120 -28 smooth;
#X obj 137 -11 smooth;
#X obj 155 5 smooth;
#X obj 173 -44 smooth;
#X obj 190 -27 smooth;
#X obj 208 -10 smooth;
#X floatatom 244 -72 5 0 0 0 - - -;
#X obj 244 -103 inlet;
#X obj 85 95 outlet;
#X obj 86 60 pack f f f f f f f f s;
#X connect 0 0 12 0;
#X connect 0 1 2 0;
#X connect 0 2 3 0;
#X connect 0 3 4 0;
#X connect 0 4 5 0;
#X connect 0 5 6 0;
#X connect 0 6 7 0;
#X connect 0 7 8 0;
#X connect 0 8 12 8;
#X connect 1 0 0 0;
#X connect 2 0 12 1;
#X connect 3 0 12 2;
#X connect 4 0 12 3;
#X connect 5 0 12 4;
#X connect 6 0 12 5;
#X connect 7 0 12 6;
#X connect 8 0 12 7;
#X connect 9 0 2 1;
#X connect 9 0 6 1;
#X connect 9 0 3 1;
#X connect 9 0 4 1;
#X connect 9 0 7 1;
#X connect 9 0 5 1;
#X connect 9 0 8 1;
#X connect 10 0 9 0;
#X connect 12 0 11 0;
#X restore 130 -278 pd smoothall;
#X obj 202 -323 hsl 128 15 0 0.1 0 0 empty empty empty -2 -8 0 10 -262130
-1 -1 1270 1;
#X floatatom 199 -301 5 0 0 0 - - -;
#X obj -28 -127 metro 100;
#X msg 199 -346 0.01;
#X obj 199 -371 loadbang;
#X floatatom 136 -257 1 0 0 0 - play -;
#X obj 103 -229 spigot;
#X obj 130 -203 spigot 1;
#X obj 175 -225 == 0;
#X obj -28 -196 bng 15 250 50 0 empty empty empty 17 7 0 10 -262144
-1 -1;
#X obj 0 -196 bng 15 250 50 0 empty empty empty 17 7 0 10 -262144 -1
-1;
#X obj -28 -220 select 0 1;
#X obj -39 -265 loadbang;
#X msg 4 -69 stop;
#X msg -24 -92 bang;
#X obj -24 -47 metro 100;
#X floatatom 88 233 5 0 0 0 - - -;
#X obj 73 177 pack f f f f f f f f f f f;
#X obj 314 24 vsl 15 128 0 256 0 1 empty empty empty 0 -9 0 10 -262144
-1 -1 12700 1;
#X msg 73 407 send \$1 \$2 \$3 \$4 \$5 \$6 \$7 \$8 \$9 \$10 \$11;
#X obj 314 160 int;
#X floatatom 104 254 5 0 0 0 - - -;
#X obj 314 -165 line 0 100;
#X floatatom 314 182 5 0 0 0 - - -;
#X floatatom 379 -276 0 0 0 0 - - -;
#X obj 379 -297 + 1;
#X msg 379 -401 bang;
#X obj 379 -349 metro 500;
#X msg 315 -251 stop;
#X obj 379 -323 float;
#X obj 379 -375 trigger bang bang;
#X msg 478 -340 0;
#X obj 314 -141 vsl 15 128 0 1 0 0 empty empty empty 0 -9 0 10 -262144
-1 -1 0 1;
#X obj 315 -229 bng 15 250 50 0 empty empty empty 17 7 0 10 -262144
-1 -1;
#X msg 361 -210 1 500;
#X obj 379 -426 r breakww;
#X obj 314 0 * 82;
#X text 330 17 appear;
#X msg 314 -210 0 2500;
#X obj 315 -274 select 30;
#X msg 335 -24 220;
#X msg 359 -17 82;
#X connect 0 0 43 0;
#X connect 2 0 6 0;
#X connect 2 0 76 0;
#X connect 3 0 7 0;
#X connect 4 0 8 0;
#X connect 5 0 9 0;
#X connect 6 0 77 1;
#X connect 7 0 77 2;
#X connect 7 0 81 0;
#X connect 8 0 31 0;
#X connect 8 0 77 3;
#X connect 9 0 32 0;
#X connect 9 0 77 4;
#X connect 10 0 12 0;
#X connect 11 0 13 0;
#X connect 12 0 33 0;
#X connect 12 0 77 5;
#X connect 13 0 34 0;
#X connect 13 0 77 6;
#X connect 21 0 35 0;
#X connect 21 0 77 7;
#X connect 22 0 36 0;
#X connect 22 0 77 8;
#X connect 23 0 22 0;
#X connect 26 0 46 7;
#X connect 26 0 77 9;
#X connect 30 0 2 0;
#X connect 31 0 46 1;
#X connect 32 0 46 2;
#X connect 33 0 46 3;
#X connect 34 0 46 4;
#X connect 35 0 46 5;
#X connect 36 0 46 6;
#X connect 43 0 48 0;
#X connect 43 0 49 0;
#X connect 45 0 46 8;
#X connect 46 0 44 1;
#X connect 47 0 45 0;
#X connect 48 0 59 0;
#X connect 48 0 66 0;
#X connect 49 0 44 0;
#X connect 49 0 52 0;
#X connect 50 0 51 0;
#X connect 50 1 4 0;
#X connect 50 2 5 0;
#X connect 50 3 10 0;
#X connect 50 4 11 0;
#X connect 50 5 20 0;
#X connect 50 5 58 0;
#X connect 50 6 23 0;
#X connect 50 7 26 0;
#X connect 50 8 47 0;
#X connect 51 0 56 0;
#X connect 52 0 53 0;
#X connect 53 0 46 0;
#X connect 55 0 62 0;
#X connect 55 0 62 0;
#X connect 56 0 77 0;
#X connect 57 0 62 0;
#X connect 58 0 21 0;
#X connect 59 0 67 0;
#X connect 60 0 61 0;
#X connect 61 0 59 1;
#X connect 62 0 43 0;
#X connect 63 0 60 0;
#X connect 64 0 63 0;
#X connect 65 0 66 1;
#X connect 65 0 68 0;
#X connect 65 0 71 0;
#X connect 66 0 50 0;
#X connect 67 0 50 0;
#X connect 68 0 67 1;
#X connect 69 0 57 0;
#X connect 69 0 73 0;
#X connect 70 0 55 0;
#X connect 70 0 74 0;
#X connect 71 0 69 0;
#X connect 71 1 70 0;
#X connect 72 0 62 0;
#X connect 72 0 73 0;
#X connect 73 0 75 0;
#X connect 73 0 75 0;
#X connect 74 0 75 0;
#X connect 75 0 56 0;
#X connect 75 0 49 0;
#X connect 77 0 79 0;
#X connect 78 0 80 0;
#X connect 79 0 1 0;
#X connect 80 0 77 10;
#X connect 80 0 83 0;
#X connect 82 0 92 0;
#X connect 85 0 84 0;
#X connect 85 0 89 1;
#X connect 85 0 99 0;
#X connect 86 0 90 0;
#X connect 87 0 89 0;
#X connect 88 0 87 0;
#X connect 88 0 93 0;
#X connect 89 0 85 0;
#X connect 90 0 87 0;
#X connect 90 0 94 0;
#X connect 90 1 91 0;
#X connect 91 0 89 1;
#X connect 92 0 96 0;
#X connect 93 0 98 0;
#X connect 94 0 82 0;
#X connect 95 0 86 0;
#X connect 96 0 78 0;
#X connect 98 0 82 0;
#X connect 99 0 88 0;
#X connect 100 0 96 1;
#X connect 101 0 96 1;
#X restore 26 133 pd trans;
#X floatatom 27 32 5 0 0 0 - - -;
#X msg -128 209 disconnect;
#X obj 26 264 netsend 1;
#X floatatom 26 291 0 0 0 0 - - -;
#X msg 260 -4 print;
#X msg 240 -131 print;
#X obj 235 17 h_list blablu;
#X obj 240 -155 h_list blablu;
#X obj 26 86 +;
#X floatatom 26 110 5 0 0 0 - - -;
#X obj 26 56 * 10;
#X floatatom 61 31 5 0 0 0 - - -;
#X obj 43 14 bng 15 250 50 0 empty empty empty 17 7 0 10 -262144 -1
-1;
#X obj 235 -81 bng 50 250 50 0 record_val empty REC 0 -10 0 25 -258113
-204800 -66577;
#X msg 235 -24 saveXML etti.xml;
#X msg 240 -178 readXML etti.xml;
#X obj 240 -202 loadbang;
#N canvas 531 199 450 300 automat 0;
#X floatatom 159 -193 0 0 0 0 - - -;
#X obj 159 -219 + 1;
#X msg 159 -345 bang;
#X msg 68 -265 stop;
#X obj 159 -245 float;
#X obj 159 -297 trigger bang bang;
#X obj 68 -291 select 10;
#X floatatom 15 -204 5 0 0 0 - - -;
#X obj 210 -316 random 20;
#X floatatom 309 -289 5 0 0 0 - - -;
#X obj 301 -322 bng 15 250 50 0 empty empty empty 17 7 0 10 -262144
-1 -1;
#X obj 15 -229 random 4;
#X msg 273 -265 -5;
#X floatatom 68 -203 5 0 0 0 - - -;
#X obj 68 -229 random 10;
#X msg 209 -344 stop;
#X obj 159 -374 loadbang;
#X obj 227 -373 bng 15 250 50 0 empty empty empty 17 7 0 10 -262144
-1 -1;
#X obj 255 -373 bng 15 250 50 0 empty empty empty 17 7 0 10 -262144
-1 -1;
#X obj 227 -397 select 0 1;
#X floatatom 227 -423 5 0 0 0 - play -;
#X obj 15 -178 outlet;
#X obj 68 -178 outlet;
#X obj 67 -404 inlet;
#X obj 159 -271 metro 1000;
#X connect 1 0 0 0;
#X connect 1 0 4 1;
#X connect 1 0 6 0;
#X connect 2 0 5 0;
#X connect 3 0 2 0;
#X connect 3 0 10 0;
#X connect 4 0 1 0;
#X connect 5 0 24 0;
#X connect 5 1 12 0;
#X connect 6 0 3 0;
#X connect 6 0 11 0;
#X connect 6 0 14 0;
#X connect 7 0 21 0;
#X connect 8 0 6 1;
#X connect 8 0 9 0;
#X connect 10 0 8 0;
#X connect 11 0 7 0;
#X connect 12 0 4 1;
#X connect 13 0 22 0;
#X connect 14 0 13 0;
#X connect 15 0 24 0;
#X connect 16 0 2 0;
#X connect 17 0 2 0;
#X connect 18 0 15 0;
#X connect 19 0 17 0;
#X connect 19 1 18 0;
#X connect 20 0 19 0;
#X connect 23 0 8 1;
#X connect 23 0 10 0;
#X connect 24 0 4 0;
#X restore 27 -174 pd automat;
#X obj 113 -192 vradio 15 1 0 2 play empty empty 0 -8 0 10 -262144
-1 -1 1;
#X text 131 -195 play preset;
#X text 130 -179 record preset;
#N canvas 488 125 749 732 player 0;
#X obj -1910 -3791 dumpOSC 9000;
#X obj -1910 -3765 OSCroute /xy /len /time;
#X obj -1919 -3735 print xy;
#X obj -1865 -3727 print len;
#X obj -1818 -3743 print time;
#X obj -1910 -3708 unpack f f f;
#X floatatom -1910 -3683 5 0 0 0 - - -;
#X floatatom -1876 -3684 5 0 0 0 - - -;
#X floatatom -1841 -3684 5 0 0 0 - - -;
#X floatatom -1876 -3396 5 -1 1 0 - - -;
#X floatatom -1803 -3397 5 -1 1 0 - - -;
#X text -1858 -3412 X;
#X text -1813 -3413 Y;
#X obj -1876 -3493 grid grid2 80 -1 1 80 -1 1 1 0.01 0.01 10 10 -1797
-3445.08;
#X floatatom -1876 -3584 5 0 0 0 - - -;
#X floatatom -1831 -3582 5 0 0 0 - - -;
#X obj -1876 -3558 pack f f;
#X msg -1876 -3519 goto \$1 \$2;
#X text -1875 -3537 Set position :;
#X obj -1876 -3612 * 100;
#X obj -1841 -3612 * 100;
#X obj -1933 -3764 bng 15 250 50 0 empty empty empty 17 7 0 10 -262144
-1 -1;
#X obj -1811 -3914 vsl 15 128 0 127 0 0 empty empty empty 0 -9 0 10
-262144 -1 -1 0 1;
#X obj -1811 -3924 unpack f f f;
#X floatatom -1811 -3899 5 0 0 0 - - -;
#X floatatom -1777 -3900 5 0 0 0 - - -;
#X floatatom -1742 -3900 5 0 0 0 - - -;
#X obj -1748 -3500 s x;
#X obj -1633 -3730 vsl 15 128 900 1100 0 0 empty empty empty 0 -9 0
10 -262144 -1 -1 0 1;
#X floatatom -1633 -3591 5 0 0 0 - - -;
#X obj -1676 -3591 - 0.55;
#X obj -1676 -3566 * 1024;
#X obj -1640 -3548 hsl 128 15 0 0.5 0 0 empty empty empty -2 -8 0 10
-262130 -1 -1 254 1;
#X floatatom -1643 -3531 5 0 0 0 - - -;
#X obj -1676 -3512 smooth;
#X msg -1583 -3574 0.01;
#X obj -1585 -3604 loadbang;
#X obj -1768 -3582 -;
#X obj -1768 -3539 * 4;
#X obj -1774 -3669 spigot;
#X obj -1755 -3699 bng 15 250 50 0 empty empty empty 17 7 0 10 -262144
-1 -1;
#X floatatom -1775 -3463 5 0 0 0 - - -;
#X msg -1758 -3679 1;
#X obj -1708 -3689 bng 15 250 50 0 empty empty empty 17 7 0 10 -262144
-1 -1;
#X obj -1749 -3714 route 0;
#X msg -1712 -3669 0;
#X obj -1647 -3893 dumpOSC 6666;
#X obj -1649 -3865 OSCroute /break;
#X obj -1649 -3839 bng 15 250 50 0 empty empty empty 17 7 0 10 -262144
-1 -1;
#X obj -1649 -3817 s breakww;
#X obj -1713 -3839 print osc;
#X obj -1711 -3866 spigot;
#X obj -1671 -3899 tgl 15 0 empty empty empty 17 7 0 10 -262144 -1
-1 0 1;
#X msg -1768 -3604 320;
#X obj -1768 -3635 * 500;
#X obj -1404 -3669 route 0 1 2 3 4 5 6;
#X floatatom -1474 -3612 5 0 0 0 - - -;
#X floatatom -1417 -3612 5 0 0 0 - - -;
#X obj -1474 -3637 unpack f f;
#X floatatom -1425 -3544 5 0 0 0 - - -;
#X floatatom -1368 -3544 5 0 0 0 - - -;
#X obj -1425 -3569 unpack f f;
#X connect 0 0 1 0;
#X connect 0 0 21 0;
#X connect 1 0 5 0;
#X connect 1 0 2 0;
#X connect 1 0 55 0;
#X connect 1 2 23 0;
#X connect 5 0 6 0;
#X connect 5 1 7 0;
#X connect 5 2 8 0;
#X connect 6 0 44 0;
#X connect 7 0 19 0;
#X connect 8 0 20 0;
#X connect 8 0 54 0;
#X connect 13 0 9 0;
#X connect 13 1 10 0;
#X connect 14 0 16 0;
#X connect 15 0 16 1;
#X connect 16 0 17 0;
#X connect 17 0 13 0;
#X connect 19 0 14 0;
#X connect 20 0 15 0;
#X connect 23 0 24 0;
#X connect 23 1 25 0;
#X connect 23 2 26 0;
#X connect 24 0 22 0;
#X connect 28 0 29 0;
#X connect 29 0 31 1;
#X connect 30 0 31 0;
#X connect 32 0 33 0;
#X connect 33 0 34 1;
#X connect 34 0 27 0;
#X connect 35 0 32 0;
#X connect 36 0 35 0;
#X connect 37 0 38 0;
#X connect 38 0 34 0;
#X connect 39 0 41 0;
#X connect 40 0 42 0;
#X connect 42 0 39 1;
#X connect 43 0 45 0;
#X connect 44 0 40 0;
#X connect 44 1 43 0;
#X connect 45 0 39 1;
#X connect 46 0 47 0;
#X connect 46 0 51 0;
#X connect 47 0 48 0;
#X connect 48 0 49 0;
#X connect 51 0 50 0;
#X connect 52 0 51 1;
#X connect 53 0 37 0;
#X connect 54 0 53 0;
#X connect 54 0 37 1;
#X connect 55 0 58 0;
#X connect 55 1 61 0;
#X connect 58 0 56 0;
#X connect 58 1 57 0;
#X connect 61 0 59 0;
#X connect 61 1 60 0;
#X restore 90 134 pd player;
#X obj -24 -196 hsl 128 15 0 200 0 1 empty empty empty -2 -8 0 10 -262144
-1 -1 2000 1;
#X floatatom -28 -175 3 0 0 0 - - -;
#X text -32 -163 secondes;
#X obj -128 259 netsend 1;
#X floatatom -128 286 0 0 0 0 - - -;
#X obj 173 258 netsend 1;
#X floatatom 173 285 0 0 0 0 - - -;
#X obj -36 -97 s tritri;
#X obj -31 -133 bng 15 250 50 0 empty empty empty 17 7 0 10 -262144
-1 -1;
#X obj 173 206 loadbang;
#X msg -127 237 connect 10.42.0.61 9006;
#X msg 27 235 connect 10.42.0.62 9006;
#X msg 173 236 connect localhost 9006;
#X connect 0 0 3 0;
#X connect 1 0 14 0;
#X connect 1 0 15 0;
#X connect 2 0 5 0;
#X connect 2 0 30 0;
#X connect 2 0 28 0;
#X connect 3 0 13 0;
#X connect 4 0 5 0;
#X connect 4 0 28 0;
#X connect 4 0 30 0;
#X connect 5 0 6 0;
#X connect 7 0 9 0;
#X connect 8 0 10 0;
#X connect 11 0 12 0;
#X connect 12 0 2 0;
#X connect 13 0 11 0;
#X connect 14 0 11 1;
#X connect 15 0 3 0;
#X connect 16 0 17 0;
#X connect 17 0 9 0;
#X connect 18 0 10 0;
#X connect 19 0 18 0;
#X connect 20 0 0 0;
#X connect 20 0 33 0;
#X connect 20 1 1 0;
#X connect 25 0 20 0;
#X connect 25 0 26 0;
#X connect 28 0 29 0;
#X connect 30 0 31 0;
#X connect 33 0 32 0;
#X connect 34 0 35 0;
#X connect 34 0 36 0;
#X connect 34 0 37 0;
#X connect 35 0 28 0;
#X connect 36 0 5 0;
#X connect 37 0 30 0;
