#N canvas 382 318 460 604 10;
#X msg 57 101 disconnect;
#X obj 47 130 netsend 1;
#X floatatom 47 157 0 0 0 0 - - -;
#X obj 47 52 spigot;
#X obj 80 37 tgl 15 0 empty empty empty 17 7 0 10 -262144 -1 -1 0 1
;
#X msg 56 78 connect 10.42.0.70 3003;
#X obj 62 -249 vsl 15 128 0 1000 0 0 empty empty empty 0 -9 0 4 -262144
-1 -1 0 1;
#X obj 75 -250 vsl 15 128 0 490 0 0 empty empty empty 0 -9 0 10 -262144
-1 -1 0 1;
#X obj 47 -111 int;
#X obj 75 -111 int;
#X obj 47 -134 bng 15 250 50 0 empty empty empty 17 7 0 10 -262144
-1 -1;
#X msg 28 -179 stop;
#X msg 0 -202 bang;
#X obj 0 -157 metro 100;
#X obj 47 -85 pack f f f;
#X obj 104 -251 vsl 15 128 0 500 0 0 empty empty empty 0 -9 0 10 -262144
-1 -1 0 1;
#X obj 104 -112 int;
#X floatatom 75 -41 5 0 0 0 - - -;
#X floatatom 62 -62 5 0 0 0 - - -;
#X floatatom 104 -17 5 0 0 0 - - -;
#X msg 47 11 send \$1 \$2 \$3;
#X connect 0 0 1 0;
#X connect 1 0 2 0;
#X connect 3 0 1 0;
#X connect 4 0 3 1;
#X connect 5 0 1 0;
#X connect 6 0 8 1;
#X connect 6 0 18 0;
#X connect 7 0 9 0;
#X connect 7 0 17 0;
#X connect 8 0 14 0;
#X connect 9 0 14 1;
#X connect 10 0 8 0;
#X connect 11 0 13 0;
#X connect 11 0 13 0;
#X connect 12 0 13 0;
#X connect 13 0 10 0;
#X connect 14 0 20 0;
#X connect 15 0 16 0;
#X connect 15 0 19 0;
#X connect 16 0 14 2;
#X connect 20 0 3 0;
