#N canvas 283 24 839 708 10;
#X obj -301 -1099 bng 100 250 50 0 start empty start 0 -10 0 20 -258113
-1 -258113;
#X obj -186 -1099 bng 100 250 50 0 stop empty stop 0 -10 0 20 -4160
-1 -4160;
#X obj -276 -1141 gemwin;
#X msg -243 -1264 destroy;
#X msg -276 -1284 create;
#X msg -241 -1236 1;
#X msg -232 -1216 0;
#X msg -219 -1169 dimen 1000 800;
#X obj -101 -1141 s reset;
#X obj -101 -1163 bng 15 250 50 0 empty empty empty 17 7 0 10 -262144
-1 -1;
#X msg -226 -1189 dimen 700 500;
#X obj -44 -1272 gemhead;
#X msg -111 -1247 draw line;
#X obj 62 -733 gemhead;
#X obj 62 -713 color 0 0 1;
#X obj 62 -671 rotate 0 0 0 1;
#X obj 62 -649 rectangle 0.3 0.3;
#X obj 57 -950 print;
#X obj 57 -975 netreceive 3002 1;
#X obj 62 -692 translateXYZ;
#X obj 85 -874 vsl 15 128 0 2 0 0 empty empty empty 0 -9 0 10 -262144
-1 -1 0 1;
#X obj 108 -874 vsl 15 128 0 2 0 0 empty empty empty 0 -9 0 10 -262144
-1 -1 0 1;
#X obj 58 -927 unpack f f f f;
#X obj 85 -899 / 100;
#X floatatom 45 -898 5 0 0 0 - - -;
#X obj 128 -897 / 200;
#X obj -44 -1218 square 3.75;
#X obj -111 -1267 loadbang;
#X obj -44 -1247 color 1 1 1;
#X msg -271 -772 disconnect;
#X obj -281 -745 netsend 1;
#X msg -271 -793 connect localhost 3001;
#X floatatom -281 -718 0 0 0 0 - - -;
#N canvas 356 129 880 558 moteur1-3 0;
#X msg 51 -632 bang;
#X obj 51 -651 bng 15 250 50 0 empty start empty 17 7 0 10 -262144
-1 -1;
#X floatatom 48 -731 5 0 0 0 - - -;
#X obj 125 -725 vsl 15 128 0.0005 0.1 0 1 vit empty speed 0 -9 0 10
-4032 -1 -1 1614 1;
#X obj 39 -705 < 0;
#X floatatom 66 -582 5 0 0 0 - - -;
#X obj 6 -684 spigot;
#X obj 65 -683 spigot;
#X obj 98 -705 > 0;
#X obj 65 -705 * 1;
#X obj 6 -705 * 1;
#X msg 169 -741 0.02;
#X obj 51 -556 bng 15 250 50 0 inc empty empty 17 7 0 10 -262144 -1
-1;
#N canvas 416 178 1001 667 move 0;
#X obj -20 709 inlet;
#X obj 71 724 inlet;
#X obj 209 1533 outlet;
#X obj 56 1444 gemhead;
#X obj 124 1461 translateXYZ;
#X obj 147 1429 - 3;
#X obj 124 1487 rotateXYZ;
#X obj 179 1373 float;
#X obj 178 1401 +;
#X obj 179 1351 bng 15 250 50 0 empty empty empty 17 7 0 10 -262144
-1 -1;
#X obj -19 1041 vsl 15 128 0 360 0 0 empty empty empty 0 -9 0 10 -262144
-1 -1 6392 1;
#X obj -34 1221 * 6.28319;
#X obj -34 1201 / 360;
#X obj 104 1376 float;
#X obj 104 1402 +;
#X obj 87 1352 bng 15 250 50 0 empty empty empty 17 7 0 10 -262144
-1 -1;
#X obj -34 1242 cos 45;
#X obj 170 1429 - 3;
#X obj 193 1290 spigot;
#X floatatom 193 1310 5 0 0 0 - - -;
#X obj -35 1285 spigot;
#X floatatom 119 1309 5 0 0 0 - - -;
#X obj 56 1288 spigot;
#X obj 408 1070 vsl 15 128 0 360 0 0 empty empty empty 0 -9 0 10 -262144
-1 -1 6392 1;
#X obj 323 1221 * 6.28319;
#X obj 323 1201 / 360;
#X obj 322 1285 spigot;
#X obj 323 1242 sin 45;
#X obj 119 1288 spigot;
#X obj 7 1074 spigot;
#X obj 7 1111 bng 15 250 50 0 empty empty empty 17 7 0 10 -262144 -1
-1;
#X obj 89 1076 spigot;
#X obj 167 1106 bng 15 250 50 0 empty empty empty 17 7 0 10 -262144
-1 -1;
#X obj 355 1107 bng 15 250 50 0 empty empty empty 17 7 0 10 -262144
-1 -1;
#X obj 10 944 hsl 150 40 0.5 359.5 0 0 empty empty empty -2 -8 0 10
-260097 -1 -1 7499 1;
#X obj 117 1005 <= 135;
#X obj 47 1004 <= 45;
#X obj 197 1008 <= 225;
#X obj 282 1007 <= 315;
#X obj 55 1329 r reset;
#X obj 147 1329 r reset;
#X obj 251 1288 spigot;
#X obj 33 882 spigot;
#X obj 79 883 spigot;
#X obj 7 1005 >= 315;
#X obj 84 1005 >= 45;
#X obj 243 1007 >= 225;
#X obj 158 1007 > 135;
#X obj 89 1109 bng 15 250 50 0 empty empty empty 17 7 0 10 -262144
-1 -1;
#X obj 89 1030 &;
#X msg 89 1135 0;
#X msg 7 1130 0;
#X msg 167 1138 0;
#X msg 355 1132 0;
#X obj -34 1177 int;
#X obj -34 1263 * 0.01;
#X obj 322 1263 * 0.01;
#X msg 164 1189 1;
#X floatatom 113 790 5 0 0 0 - - -;
#X obj 119 1242 * -0.01;
#X obj 251 1243 * -0.01;
#X obj 56 1244 * 0.01;
#X obj 189 1244 * 0.01;
#X msg 212 1192 -1;
#X obj 7 1026 |;
#X floatatom 0 901 0 -4.5 50 0 - - -;
#X obj 7 812 float;
#X obj 6 847 +;
#X obj -20 776 bng 15 250 50 0 empty empty empty 17 7 0 10 -262144
-1 -1;
#X obj 34 836 <= 0;
#X msg 34 860 360;
#X obj 79 835 >= 360;
#X msg 79 860 0;
#X obj 194 1166 bng 15 250 50 0 empty empty empty 17 7 0 10 -262144
-1 -1;
#X obj 153 1073 spigot;
#X obj 283 1068 spigot;
#X obj 153 1031 &;
#X obj 248 1032 &;
#X floatatom 7 1157 5 0 0 0 - - -;
#X floatatom 89 1157 5 0 0 0 - - -;
#X floatatom 152 1157 5 0 0 0 - - -;
#X floatatom 226 1162 5 0 0 0 - - -;
#X floatatom 284 1163 5 0 0 0 - - -;
#X floatatom 355 1162 5 0 0 0 - - -;
#X obj 199 954 s angle;
#X floatatom 114 1189 5 0 0 0 - - -;
#X floatatom 71 789 5 0 0 2 angle - -;
#X obj 113 738 inlet;
#X obj 304 1533 outlet;
#X obj 255 1533 outlet;
#X obj 125 1512 color;
#X obj 201 791 inlet;
#X obj 124 1536 square 0.16;
#X msg 55 1351 3;
#X msg 151 1352 3;
#X obj 305 688 r boussole;
#X obj 329 693 vsl 15 128 0 360 0 0 empty empty empty 0 -9 0 10 -262144
-1 -1 0 1;
#X obj 224 882 int;
#X connect 0 0 68 0;
#X connect 1 0 86 0;
#X connect 3 0 4 0;
#X connect 4 0 6 0;
#X connect 5 0 4 1;
#X connect 6 0 90 0;
#X connect 7 0 8 0;
#X connect 8 0 7 1;
#X connect 8 0 17 0;
#X connect 8 0 88 0;
#X connect 9 0 7 0;
#X connect 10 0 54 1;
#X connect 11 0 16 0;
#X connect 12 0 11 0;
#X connect 13 0 14 0;
#X connect 14 0 13 1;
#X connect 14 0 5 0;
#X connect 14 0 89 0;
#X connect 15 0 13 0;
#X connect 16 0 55 0;
#X connect 17 0 4 2;
#X connect 18 0 19 0;
#X connect 19 0 9 0;
#X connect 19 0 8 1;
#X connect 20 0 21 0;
#X connect 21 0 15 0;
#X connect 21 0 14 1;
#X connect 22 0 21 0;
#X connect 23 0 25 0;
#X connect 23 0 6 3;
#X connect 23 0 2 0;
#X connect 24 0 27 0;
#X connect 25 0 24 0;
#X connect 26 0 19 0;
#X connect 27 0 56 0;
#X connect 28 0 21 0;
#X connect 29 0 30 0;
#X connect 29 0 79 0;
#X connect 29 0 83 0;
#X connect 30 0 51 0;
#X connect 31 0 48 0;
#X connect 31 0 78 0;
#X connect 31 0 81 0;
#X connect 32 0 52 0;
#X connect 33 0 53 0;
#X connect 34 0 44 0;
#X connect 34 0 36 0;
#X connect 34 0 45 0;
#X connect 34 0 35 0;
#X connect 34 0 37 0;
#X connect 34 0 46 0;
#X connect 34 0 38 0;
#X connect 34 0 47 0;
#X connect 34 0 84 0;
#X connect 34 0 10 0;
#X connect 34 0 23 0;
#X connect 35 0 49 1;
#X connect 36 0 64 1;
#X connect 37 0 76 1;
#X connect 38 0 77 1;
#X connect 39 0 93 0;
#X connect 40 0 94 0;
#X connect 41 0 19 0;
#X connect 42 0 66 1;
#X connect 43 0 66 1;
#X connect 43 0 42 0;
#X connect 44 0 64 0;
#X connect 45 0 49 0;
#X connect 46 0 77 0;
#X connect 47 0 76 0;
#X connect 48 0 50 0;
#X connect 49 0 31 0;
#X connect 49 0 31 1;
#X connect 50 0 79 0;
#X connect 50 0 80 0;
#X connect 50 0 82 0;
#X connect 50 0 83 0;
#X connect 51 0 78 0;
#X connect 51 0 80 0;
#X connect 51 0 81 0;
#X connect 51 0 82 0;
#X connect 52 0 78 0;
#X connect 52 0 79 0;
#X connect 52 0 81 0;
#X connect 52 0 82 0;
#X connect 53 0 79 0;
#X connect 53 0 80 0;
#X connect 53 0 81 0;
#X connect 53 0 83 0;
#X connect 54 0 12 0;
#X connect 55 0 20 0;
#X connect 56 0 26 0;
#X connect 57 0 61 0;
#X connect 57 0 62 0;
#X connect 58 0 85 0;
#X connect 59 0 28 0;
#X connect 60 0 41 0;
#X connect 61 0 22 0;
#X connect 62 0 18 0;
#X connect 63 0 60 0;
#X connect 63 0 59 0;
#X connect 64 0 29 0;
#X connect 64 0 29 1;
#X connect 65 0 34 0;
#X connect 66 0 67 0;
#X connect 67 0 66 1;
#X connect 67 0 69 0;
#X connect 67 0 71 0;
#X connect 67 0 65 0;
#X connect 68 0 66 0;
#X connect 68 0 73 0;
#X connect 68 0 97 0;
#X connect 69 0 42 1;
#X connect 69 0 70 0;
#X connect 70 0 42 0;
#X connect 71 0 43 1;
#X connect 71 0 72 0;
#X connect 72 0 43 0;
#X connect 73 0 63 0;
#X connect 73 0 57 0;
#X connect 73 0 54 0;
#X connect 74 0 32 0;
#X connect 74 0 80 0;
#X connect 74 0 83 0;
#X connect 75 0 33 0;
#X connect 75 0 78 0;
#X connect 75 0 82 0;
#X connect 76 0 74 0;
#X connect 76 0 74 1;
#X connect 77 0 75 0;
#X connect 77 0 75 1;
#X connect 78 0 20 1;
#X connect 79 0 22 1;
#X connect 80 0 28 1;
#X connect 81 0 18 1;
#X connect 82 0 41 1;
#X connect 83 0 26 1;
#X connect 85 0 55 1;
#X connect 85 0 61 1;
#X connect 85 0 59 1;
#X connect 85 0 62 1;
#X connect 85 0 60 1;
#X connect 85 0 56 1;
#X connect 86 0 67 1;
#X connect 87 0 58 0;
#X connect 90 0 92 0;
#X connect 91 0 90 1;
#X connect 93 0 13 0;
#X connect 94 0 7 0;
#X connect 95 0 96 0;
#X connect 96 0 97 1;
#X restore 51 -533 pd move;
#X msg 9 -631 stop;
#X obj 9 -652 bng 15 250 50 0 empty stop empty 17 7 0 10 -262144 -1
-1;
#X obj 51 -611 metro 100;
#X obj -13 -462 cnv 15 200 200 empty empty empty 20 12 0 14 -4032 -66577
0;
#X obj 167 -428 vsl 15 128 0 -0.1 0 1 empty empty angle 0 -9 0 10 -4034
-1 -1 12500 1;
#N canvas 2 54 450 300 target 0;
#X obj 148 -170 /;
#X obj 148 -35 nbx 3 25 -1e+37 1e+37 0 0 empty empty phi_tar 0 -8 0
20 -258113 -1 -1 155.894 25;
#X obj 148 -127 * 360;
#X obj 148 -107 / 6.28319;
#X obj 148 -150 atan;
#X obj 133 -4 -;
#X obj 133 37 * 6.28319;
#X obj 133 17 / 360;
#X obj 133 78 *;
#X obj 133 99 * 360;
#X obj 133 119 / 6.28319;
#X floatatom 325 -250 5 0 0 2 lambda - -;
#X obj 133 58 sin;
#X floatatom 238 -250 5 0 0 2 pos_X - -;
#X floatatom 279 -250 5 0 0 2 pos_Y - -;
#X obj 148 -196 -;
#X obj 245 -187 -;
#X obj 245 -117 < 0;
#X obj 148 -87 spigot;
#X obj 181 -164 > 0;
#X obj 212 -68 spigot;
#X obj 212 -90 + 180;
#X text 222 102 angle max;
#X floatatom 132 147 5 0 0 0 - - -;
#X obj 148 -231 bng 15 250 50 0 empty empty empty 17 7 0 10 -262144
-1 -1;
#X obj 211 -163 > 0;
#X obj 181 -142 &;
#X obj 296 -139 < 0;
#X obj 321 -111 > 0;
#X obj 296 -111 &;
#X obj 263 -67 spigot;
#X obj 263 -89 + 360;
#X floatatom 62 -254 5 0 0 2 tar_X - -;
#X floatatom 113 -254 5 0 0 2 tar_Y - -;
#X floatatom 187 -253 5 0 0 2 angle - -;
#X obj 325 -286 inlet;
#X obj 279 -286 inlet;
#X obj 238 -286 inlet;
#X obj 187 -286 inlet;
#X obj 113 -287 inlet;
#X obj 62 -287 inlet;
#X obj 198 145 outlet;
#X connect 0 0 4 0;
#X connect 1 0 5 1;
#X connect 2 0 3 0;
#X connect 3 0 18 0;
#X connect 3 0 21 0;
#X connect 3 0 31 0;
#X connect 4 0 2 0;
#X connect 5 0 7 0;
#X connect 6 0 12 0;
#X connect 7 0 6 0;
#X connect 8 0 9 0;
#X connect 9 0 10 0;
#X connect 10 0 23 0;
#X connect 10 0 41 0;
#X connect 11 0 8 1;
#X connect 12 0 8 0;
#X connect 13 0 16 1;
#X connect 14 0 15 1;
#X connect 15 0 0 0;
#X connect 15 0 19 0;
#X connect 15 0 27 0;
#X connect 16 0 0 1;
#X connect 16 0 17 0;
#X connect 16 0 25 0;
#X connect 16 0 28 0;
#X connect 17 0 20 1;
#X connect 18 0 1 0;
#X connect 19 0 26 0;
#X connect 20 0 1 0;
#X connect 21 0 20 0;
#X connect 24 0 15 0;
#X connect 25 0 26 1;
#X connect 26 0 18 1;
#X connect 27 0 29 0;
#X connect 28 0 29 1;
#X connect 29 0 30 1;
#X connect 30 0 1 0;
#X connect 31 0 30 0;
#X connect 32 0 16 0;
#X connect 32 0 24 0;
#X connect 33 0 15 0;
#X connect 34 0 5 0;
#X connect 35 0 11 0;
#X connect 36 0 14 0;
#X connect 37 0 13 0;
#X connect 38 0 34 0;
#X connect 39 0 33 0;
#X connect 40 0 32 0;
#X restore 53 -364 pd target;
#X obj 53 -340 +;
#X obj -2 -392 unpack f f;
#X floatatom 53 -317 5 0 0 0 - - -;
#X floatatom 125 -587 5 0 0 0 - - -;
#X obj 41 -508 pack f f f;
#X obj 77 -392 unpack f f f;
#X obj 92 -337 r phi_obs;
#X msg 346 -627 bang;
#X obj 346 -646 bng 15 250 50 0 empty start empty 17 7 0 10 -262144
-1 -1;
#X floatatom 343 -726 5 0 0 0 - - -;
#X obj 420 -720 vsl 15 128 0.0005 0.1 0 1 vit empty speed 0 -9 0 10
-4032 -1 -1 131 1;
#X obj 334 -700 < 0;
#X floatatom 361 -577 5 0 0 0 - - -;
#X obj 301 -679 spigot;
#X obj 360 -678 spigot;
#X obj 393 -700 > 0;
#X obj 360 -700 * 1;
#X obj 301 -700 * 1;
#X msg 464 -736 0.02;
#X obj 346 -551 bng 15 250 50 0 inc empty empty 17 7 0 10 -262144 -1
-1;
#N canvas 416 178 1001 667 move 0;
#X obj -20 709 inlet;
#X obj 71 724 inlet;
#X obj 209 1533 outlet;
#X obj 56 1444 gemhead;
#X obj 124 1461 translateXYZ;
#X obj 147 1429 - 3;
#X obj 124 1487 rotateXYZ;
#X obj 179 1373 float;
#X obj 178 1401 +;
#X obj 179 1351 bng 15 250 50 0 empty empty empty 17 7 0 10 -262144
-1 -1;
#X obj -19 1041 vsl 15 128 0 360 0 0 empty empty empty 0 -9 0 10 -262144
-1 -1 1694 1;
#X obj -34 1221 * 6.28319;
#X obj -34 1201 / 360;
#X obj 104 1376 float;
#X obj 104 1402 +;
#X obj 87 1352 bng 15 250 50 0 empty empty empty 17 7 0 10 -262144
-1 -1;
#X obj -34 1242 cos 45;
#X obj 170 1429 - 3;
#X obj 193 1290 spigot;
#X floatatom 193 1310 5 0 0 0 - - -;
#X obj -35 1285 spigot;
#X floatatom 119 1309 5 0 0 0 - - -;
#X obj 56 1288 spigot;
#X obj 408 1070 vsl 15 128 0 360 0 0 empty empty empty 0 -9 0 10 -262144
-1 -1 1694 1;
#X obj 323 1221 * 6.28319;
#X obj 323 1201 / 360;
#X obj 322 1285 spigot;
#X obj 323 1242 sin 45;
#X obj 119 1288 spigot;
#X obj 7 1074 spigot;
#X obj 7 1111 bng 15 250 50 0 empty empty empty 17 7 0 10 -262144 -1
-1;
#X obj 89 1076 spigot;
#X obj 167 1106 bng 15 250 50 0 empty empty empty 17 7 0 10 -262144
-1 -1;
#X obj 355 1107 bng 15 250 50 0 empty empty empty 17 7 0 10 -262144
-1 -1;
#X obj 10 944 hsl 150 40 0.5 359.5 0 0 empty empty empty -2 -8 0 10
-260097 -1 -1 1972 1;
#X obj 117 1005 <= 135;
#X obj 47 1004 <= 45;
#X obj 197 1008 <= 225;
#X obj 282 1007 <= 315;
#X obj 55 1329 r reset;
#X obj 147 1329 r reset;
#X obj 251 1288 spigot;
#X obj 33 882 spigot;
#X obj 79 883 spigot;
#X obj 7 1005 >= 315;
#X obj 84 1005 >= 45;
#X obj 243 1007 >= 225;
#X obj 158 1007 > 135;
#X obj 89 1109 bng 15 250 50 0 empty empty empty 17 7 0 10 -262144
-1 -1;
#X obj 89 1030 &;
#X msg 89 1135 0;
#X msg 7 1130 0;
#X msg 167 1138 0;
#X msg 355 1132 0;
#X obj -34 1177 int;
#X obj -34 1263 * 0.01;
#X obj 322 1263 * 0.01;
#X msg 164 1189 1;
#X floatatom 113 790 5 0 0 0 - - -;
#X obj 119 1242 * -0.01;
#X obj 251 1243 * -0.01;
#X obj 56 1244 * 0.01;
#X obj 189 1244 * 0.01;
#X msg 212 1192 -1;
#X obj 7 1026 |;
#X floatatom 0 901 0 -4.5 50 0 - - -;
#X obj 7 812 float;
#X obj 6 847 +;
#X obj -20 776 bng 15 250 50 0 empty empty empty 17 7 0 10 -262144
-1 -1;
#X obj 34 836 <= 0;
#X msg 34 860 360;
#X obj 79 835 >= 360;
#X msg 79 860 0;
#X obj 194 1166 bng 15 250 50 0 empty empty empty 17 7 0 10 -262144
-1 -1;
#X obj 153 1073 spigot;
#X obj 283 1068 spigot;
#X obj 153 1031 &;
#X obj 248 1032 &;
#X floatatom 7 1157 5 0 0 0 - - -;
#X floatatom 89 1157 5 0 0 0 - - -;
#X floatatom 152 1157 5 0 0 0 - - -;
#X floatatom 226 1162 5 0 0 0 - - -;
#X floatatom 284 1163 5 0 0 0 - - -;
#X floatatom 355 1162 5 0 0 0 - - -;
#X obj 199 954 s angle;
#X floatatom 114 1189 5 0 0 0 - - -;
#X floatatom 71 789 5 0 0 2 angle - -;
#X obj 113 738 inlet;
#X obj 304 1533 outlet;
#X obj 255 1533 outlet;
#X obj 125 1512 color;
#X obj 201 791 inlet;
#X obj 124 1536 square 0.16;
#X msg 55 1351 3;
#X msg 151 1352 3;
#X obj 305 688 r boussole;
#X obj 329 693 vsl 15 128 0 360 0 0 empty empty empty 0 -9 0 10 -262144
-1 -1 0 1;
#X obj 224 882 int;
#X connect 0 0 68 0;
#X connect 1 0 86 0;
#X connect 3 0 4 0;
#X connect 4 0 6 0;
#X connect 5 0 4 1;
#X connect 6 0 90 0;
#X connect 7 0 8 0;
#X connect 8 0 7 1;
#X connect 8 0 17 0;
#X connect 8 0 88 0;
#X connect 9 0 7 0;
#X connect 10 0 54 1;
#X connect 11 0 16 0;
#X connect 12 0 11 0;
#X connect 13 0 14 0;
#X connect 14 0 13 1;
#X connect 14 0 5 0;
#X connect 14 0 89 0;
#X connect 15 0 13 0;
#X connect 16 0 55 0;
#X connect 17 0 4 2;
#X connect 18 0 19 0;
#X connect 19 0 9 0;
#X connect 19 0 8 1;
#X connect 20 0 21 0;
#X connect 21 0 15 0;
#X connect 21 0 14 1;
#X connect 22 0 21 0;
#X connect 23 0 25 0;
#X connect 23 0 6 3;
#X connect 23 0 2 0;
#X connect 24 0 27 0;
#X connect 25 0 24 0;
#X connect 26 0 19 0;
#X connect 27 0 56 0;
#X connect 28 0 21 0;
#X connect 29 0 30 0;
#X connect 29 0 79 0;
#X connect 29 0 83 0;
#X connect 30 0 51 0;
#X connect 31 0 48 0;
#X connect 31 0 78 0;
#X connect 31 0 81 0;
#X connect 32 0 52 0;
#X connect 33 0 53 0;
#X connect 34 0 44 0;
#X connect 34 0 36 0;
#X connect 34 0 45 0;
#X connect 34 0 35 0;
#X connect 34 0 37 0;
#X connect 34 0 46 0;
#X connect 34 0 38 0;
#X connect 34 0 47 0;
#X connect 34 0 84 0;
#X connect 34 0 10 0;
#X connect 34 0 23 0;
#X connect 35 0 49 1;
#X connect 36 0 64 1;
#X connect 37 0 76 1;
#X connect 38 0 77 1;
#X connect 39 0 93 0;
#X connect 40 0 94 0;
#X connect 41 0 19 0;
#X connect 42 0 66 1;
#X connect 43 0 66 1;
#X connect 43 0 42 0;
#X connect 44 0 64 0;
#X connect 45 0 49 0;
#X connect 46 0 77 0;
#X connect 47 0 76 0;
#X connect 48 0 50 0;
#X connect 49 0 31 0;
#X connect 49 0 31 1;
#X connect 50 0 79 0;
#X connect 50 0 80 0;
#X connect 50 0 82 0;
#X connect 50 0 83 0;
#X connect 51 0 78 0;
#X connect 51 0 80 0;
#X connect 51 0 81 0;
#X connect 51 0 82 0;
#X connect 52 0 78 0;
#X connect 52 0 79 0;
#X connect 52 0 81 0;
#X connect 52 0 82 0;
#X connect 53 0 79 0;
#X connect 53 0 80 0;
#X connect 53 0 81 0;
#X connect 53 0 83 0;
#X connect 54 0 12 0;
#X connect 55 0 20 0;
#X connect 56 0 26 0;
#X connect 57 0 61 0;
#X connect 57 0 62 0;
#X connect 58 0 85 0;
#X connect 59 0 28 0;
#X connect 60 0 41 0;
#X connect 61 0 22 0;
#X connect 62 0 18 0;
#X connect 63 0 60 0;
#X connect 63 0 59 0;
#X connect 64 0 29 0;
#X connect 64 0 29 1;
#X connect 65 0 34 0;
#X connect 66 0 67 0;
#X connect 67 0 66 1;
#X connect 67 0 69 0;
#X connect 67 0 71 0;
#X connect 67 0 65 0;
#X connect 68 0 66 0;
#X connect 68 0 73 0;
#X connect 68 0 97 0;
#X connect 69 0 42 1;
#X connect 69 0 70 0;
#X connect 70 0 42 0;
#X connect 71 0 43 1;
#X connect 71 0 72 0;
#X connect 72 0 43 0;
#X connect 73 0 63 0;
#X connect 73 0 57 0;
#X connect 73 0 54 0;
#X connect 74 0 32 0;
#X connect 74 0 80 0;
#X connect 74 0 83 0;
#X connect 75 0 33 0;
#X connect 75 0 78 0;
#X connect 75 0 82 0;
#X connect 76 0 74 0;
#X connect 76 0 74 1;
#X connect 77 0 75 0;
#X connect 77 0 75 1;
#X connect 78 0 20 1;
#X connect 79 0 22 1;
#X connect 80 0 28 1;
#X connect 81 0 18 1;
#X connect 82 0 41 1;
#X connect 83 0 26 1;
#X connect 85 0 55 1;
#X connect 85 0 61 1;
#X connect 85 0 59 1;
#X connect 85 0 62 1;
#X connect 85 0 60 1;
#X connect 85 0 56 1;
#X connect 86 0 67 1;
#X connect 87 0 58 0;
#X connect 90 0 92 0;
#X connect 91 0 90 1;
#X connect 93 0 13 0;
#X connect 94 0 7 0;
#X connect 95 0 96 0;
#X connect 96 0 97 1;
#X restore 346 -528 pd move;
#X msg 420 -565 0 1 1;
#X msg 304 -626 stop;
#X obj 346 -606 metro 100;
#X floatatom 420 -582 5 0 0 0 - - -;
#X obj 336 -503 pack f f f;
#X obj 343 -746 r phi2;
#X obj 336 -480 s ang_coord2;
#X obj 459 -428 vsl 15 128 0 -0.1 0 1 empty empty angle 0 -9 0 10 -4034
-1 -1 8800 1;
#N canvas 2 54 450 300 target 0;
#X obj 148 -170 /;
#X obj 148 -35 nbx 3 25 -1e+37 1e+37 0 0 empty empty phi_tar 0 -8 0
20 -258113 -1 -1 47.5818 25;
#X obj 148 -127 * 360;
#X obj 148 -107 / 6.28319;
#X obj 148 -150 atan;
#X obj 133 -4 -;
#X obj 133 37 * 6.28319;
#X obj 133 17 / 360;
#X obj 133 78 *;
#X obj 133 99 * 360;
#X obj 133 119 / 6.28319;
#X floatatom 325 -250 5 0 0 2 lambda - -;
#X obj 133 58 sin;
#X floatatom 238 -250 5 0 0 2 pos_X - -;
#X floatatom 279 -250 5 0 0 2 pos_Y - -;
#X obj 148 -196 -;
#X obj 245 -187 -;
#X obj 245 -117 < 0;
#X obj 148 -87 spigot;
#X obj 181 -164 > 0;
#X obj 212 -68 spigot;
#X obj 212 -90 + 180;
#X text 222 102 angle max;
#X floatatom 132 147 5 0 0 0 - - -;
#X obj 148 -231 bng 15 250 50 0 empty empty empty 17 7 0 10 -262144
-1 -1;
#X obj 211 -163 > 0;
#X obj 181 -142 &;
#X obj 296 -139 < 0;
#X obj 321 -111 > 0;
#X obj 296 -111 &;
#X obj 263 -67 spigot;
#X obj 263 -89 + 360;
#X floatatom 62 -254 5 0 0 2 tar_X - -;
#X floatatom 113 -254 5 0 0 2 tar_Y - -;
#X floatatom 187 -253 5 0 0 2 angle - -;
#X obj 325 -286 inlet;
#X obj 279 -286 inlet;
#X obj 238 -286 inlet;
#X obj 187 -286 inlet;
#X obj 113 -287 inlet;
#X obj 62 -287 inlet;
#X obj 198 145 outlet;
#X connect 0 0 4 0;
#X connect 1 0 5 1;
#X connect 2 0 3 0;
#X connect 3 0 18 0;
#X connect 3 0 21 0;
#X connect 3 0 31 0;
#X connect 4 0 2 0;
#X connect 5 0 7 0;
#X connect 6 0 12 0;
#X connect 7 0 6 0;
#X connect 8 0 9 0;
#X connect 9 0 10 0;
#X connect 10 0 23 0;
#X connect 10 0 41 0;
#X connect 11 0 8 1;
#X connect 12 0 8 0;
#X connect 13 0 16 1;
#X connect 14 0 15 1;
#X connect 15 0 0 0;
#X connect 15 0 19 0;
#X connect 15 0 27 0;
#X connect 16 0 0 1;
#X connect 16 0 17 0;
#X connect 16 0 25 0;
#X connect 16 0 28 0;
#X connect 17 0 20 1;
#X connect 18 0 1 0;
#X connect 19 0 26 0;
#X connect 20 0 1 0;
#X connect 21 0 20 0;
#X connect 24 0 15 0;
#X connect 25 0 26 1;
#X connect 26 0 18 1;
#X connect 27 0 29 0;
#X connect 28 0 29 1;
#X connect 29 0 30 1;
#X connect 30 0 1 0;
#X connect 31 0 30 0;
#X connect 32 0 16 0;
#X connect 32 0 24 0;
#X connect 33 0 15 0;
#X connect 34 0 5 0;
#X connect 35 0 11 0;
#X connect 36 0 14 0;
#X connect 37 0 13 0;
#X connect 38 0 34 0;
#X connect 39 0 33 0;
#X connect 40 0 32 0;
#X restore 345 -364 pd target;
#X obj 345 -340 +;
#X obj 293 -387 unpack f f;
#X floatatom 345 -317 5 0 0 0 - - -;
#X obj 369 -392 unpack f f f;
#X obj 384 -337 r phi_obs;
#X obj 369 -413 r ang_coord2;
#X obj 345 -296 s phi2;
#X msg 125 -570 1 0 1;
#N canvas 0 24 1897 968 speed2 0;
#X obj 169 -840 -;
#X floatatom 169 -818 5 0 0 0 - - -;
#X obj 236 -840 -;
#X floatatom 236 -818 5 0 0 0 - - -;
#X obj 169 -798 abs;
#X obj 236 -799 abs;
#X obj 169 -777 +;
#X obj 140 -806 vsl 15 128 0 2 0 0 empty empty empty 0 -9 0 10 -262144
-1 -1 4843 1;
#X floatatom 169 -734 5 0 0 0 - - -;
#X floatatom 169 -693 5 0 0 0 - - -;
#X obj 169 -674 expr if ($f1==1 \, $f2 \, $f3);
#X msg 258 -693 0;
#X obj 169 -914 unpack f f;
#X obj 173 -870 unpack f f f;
#X obj 170 -959 inlet;
#X obj 169 -642 outlet;
#X obj 173 -891 r ang_coord2;
#X obj 166 -759 / 250;
#X obj 169 -714 < 0.0005;
#X obj 401 -814 vsl 15 128 0 1270 0 0 empty adjust_speed empty 0 -9
0 10 -262144 -1 -1 4992 1;
#X connect 0 0 1 0;
#X connect 1 0 4 0;
#X connect 2 0 3 0;
#X connect 3 0 5 0;
#X connect 4 0 6 0;
#X connect 5 0 6 1;
#X connect 6 0 7 0;
#X connect 6 0 17 0;
#X connect 8 0 10 2;
#X connect 8 0 18 0;
#X connect 9 0 10 0;
#X connect 9 0 11 0;
#X connect 10 0 15 0;
#X connect 11 0 10 1;
#X connect 12 0 0 0;
#X connect 12 1 2 0;
#X connect 13 1 0 1;
#X connect 13 2 2 1;
#X connect 14 0 12 0;
#X connect 16 0 13 0;
#X connect 17 0 8 0;
#X connect 18 0 9 0;
#X connect 19 0 17 1;
#X restore 420 -756 pd speed2;
#X msg 621 -630 bang;
#X obj 621 -649 bng 15 250 50 0 empty start empty 17 7 0 10 -262144
-1 -1;
#X floatatom 618 -729 5 0 0 0 - - -;
#X obj 695 -723 vsl 15 128 0.0005 0.1 0 1 vit empty speed 0 -9 0 10
-4032 -1 -1 179 1;
#X obj 609 -703 < 0;
#X floatatom 636 -580 5 0 0 0 - - -;
#X obj 576 -682 spigot;
#X obj 635 -681 spigot;
#X obj 668 -703 > 0;
#X obj 635 -703 * 1;
#X obj 576 -703 * 1;
#X msg 739 -739 0.02;
#X obj 621 -554 bng 15 250 50 0 inc empty empty 17 7 0 10 -262144 -1
-1;
#N canvas 416 178 1001 667 move 0;
#X obj -20 709 inlet;
#X obj 71 724 inlet;
#X obj 209 1533 outlet;
#X obj 56 1444 gemhead;
#X obj 124 1461 translateXYZ;
#X obj 147 1429 - 3;
#X obj 124 1487 rotateXYZ;
#X obj 179 1373 float;
#X obj 178 1401 +;
#X obj 179 1351 bng 15 250 50 0 empty empty empty 17 7 0 10 -262144
-1 -1;
#X obj -19 1041 vsl 15 128 0 360 0 0 empty empty empty 0 -9 0 10 -262144
-1 -1 2721 1;
#X obj -34 1221 * 6.28319;
#X obj -34 1201 / 360;
#X obj 104 1376 float;
#X obj 104 1402 +;
#X obj 87 1352 bng 15 250 50 0 empty empty empty 17 7 0 10 -262144
-1 -1;
#X obj -34 1242 cos 45;
#X obj 170 1429 - 3;
#X obj 193 1290 spigot;
#X floatatom 193 1310 5 0 0 0 - - -;
#X obj -35 1285 spigot;
#X floatatom 119 1309 5 0 0 0 - - -;
#X obj 56 1288 spigot;
#X obj 408 1070 vsl 15 128 0 360 0 0 empty empty empty 0 -9 0 10 -262144
-1 -1 2721 1;
#X obj 323 1221 * 6.28319;
#X obj 323 1201 / 360;
#X obj 322 1285 spigot;
#X obj 323 1242 sin 45;
#X obj 119 1288 spigot;
#X obj 7 1074 spigot;
#X obj 7 1111 bng 15 250 50 0 empty empty empty 17 7 0 10 -262144 -1
-1;
#X obj 89 1076 spigot;
#X obj 167 1106 bng 15 250 50 0 empty empty empty 17 7 0 10 -262144
-1 -1;
#X obj 355 1107 bng 15 250 50 0 empty empty empty 17 7 0 10 -262144
-1 -1;
#X obj 10 944 hsl 150 40 0.5 359.5 0 0 empty empty empty -2 -8 0 10
-260097 -1 -1 3180 1;
#X obj 117 1005 <= 135;
#X obj 47 1004 <= 45;
#X obj 197 1008 <= 225;
#X obj 282 1007 <= 315;
#X obj 55 1329 r reset;
#X obj 147 1329 r reset;
#X obj 251 1288 spigot;
#X obj 33 882 spigot;
#X obj 79 883 spigot;
#X obj 7 1005 >= 315;
#X obj 84 1005 >= 45;
#X obj 243 1007 >= 225;
#X obj 158 1007 > 135;
#X obj 89 1109 bng 15 250 50 0 empty empty empty 17 7 0 10 -262144
-1 -1;
#X obj 89 1030 &;
#X msg 89 1135 0;
#X msg 7 1130 0;
#X msg 167 1138 0;
#X msg 355 1132 0;
#X obj -34 1177 int;
#X obj -34 1263 * 0.01;
#X obj 322 1263 * 0.01;
#X msg 164 1189 1;
#X floatatom 113 790 5 0 0 0 - - -;
#X obj 119 1242 * -0.01;
#X obj 251 1243 * -0.01;
#X obj 56 1244 * 0.01;
#X obj 189 1244 * 0.01;
#X msg 212 1192 -1;
#X obj 7 1026 |;
#X floatatom 0 901 0 -4.5 50 0 - - -;
#X obj 7 812 float;
#X obj 6 847 +;
#X obj -20 776 bng 15 250 50 0 empty empty empty 17 7 0 10 -262144
-1 -1;
#X obj 34 836 <= 0;
#X msg 34 860 360;
#X obj 79 835 >= 360;
#X msg 79 860 0;
#X obj 194 1166 bng 15 250 50 0 empty empty empty 17 7 0 10 -262144
-1 -1;
#X obj 153 1073 spigot;
#X obj 283 1068 spigot;
#X obj 153 1031 &;
#X obj 248 1032 &;
#X floatatom 7 1157 5 0 0 0 - - -;
#X floatatom 89 1157 5 0 0 0 - - -;
#X floatatom 152 1157 5 0 0 0 - - -;
#X floatatom 226 1162 5 0 0 0 - - -;
#X floatatom 284 1163 5 0 0 0 - - -;
#X floatatom 355 1162 5 0 0 0 - - -;
#X obj 199 954 s angle;
#X floatatom 114 1189 5 0 0 0 - - -;
#X floatatom 71 789 5 0 0 2 angle - -;
#X obj 113 738 inlet;
#X obj 304 1533 outlet;
#X obj 255 1533 outlet;
#X obj 125 1512 color;
#X obj 201 791 inlet;
#X obj 124 1536 square 0.16;
#X msg 55 1351 3;
#X msg 151 1352 3;
#X obj 305 688 r boussole;
#X obj 329 693 vsl 15 128 0 360 0 0 empty empty empty 0 -9 0 10 -262144
-1 -1 0 1;
#X obj 224 882 int;
#X connect 0 0 68 0;
#X connect 1 0 86 0;
#X connect 3 0 4 0;
#X connect 4 0 6 0;
#X connect 5 0 4 1;
#X connect 6 0 90 0;
#X connect 7 0 8 0;
#X connect 8 0 7 1;
#X connect 8 0 17 0;
#X connect 8 0 88 0;
#X connect 9 0 7 0;
#X connect 10 0 54 1;
#X connect 11 0 16 0;
#X connect 12 0 11 0;
#X connect 13 0 14 0;
#X connect 14 0 13 1;
#X connect 14 0 5 0;
#X connect 14 0 89 0;
#X connect 15 0 13 0;
#X connect 16 0 55 0;
#X connect 17 0 4 2;
#X connect 18 0 19 0;
#X connect 19 0 9 0;
#X connect 19 0 8 1;
#X connect 20 0 21 0;
#X connect 21 0 15 0;
#X connect 21 0 14 1;
#X connect 22 0 21 0;
#X connect 23 0 25 0;
#X connect 23 0 6 3;
#X connect 23 0 2 0;
#X connect 24 0 27 0;
#X connect 25 0 24 0;
#X connect 26 0 19 0;
#X connect 27 0 56 0;
#X connect 28 0 21 0;
#X connect 29 0 30 0;
#X connect 29 0 79 0;
#X connect 29 0 83 0;
#X connect 30 0 51 0;
#X connect 31 0 48 0;
#X connect 31 0 78 0;
#X connect 31 0 81 0;
#X connect 32 0 52 0;
#X connect 33 0 53 0;
#X connect 34 0 44 0;
#X connect 34 0 36 0;
#X connect 34 0 45 0;
#X connect 34 0 35 0;
#X connect 34 0 37 0;
#X connect 34 0 46 0;
#X connect 34 0 38 0;
#X connect 34 0 47 0;
#X connect 34 0 84 0;
#X connect 34 0 10 0;
#X connect 34 0 23 0;
#X connect 35 0 49 1;
#X connect 36 0 64 1;
#X connect 37 0 76 1;
#X connect 38 0 77 1;
#X connect 39 0 93 0;
#X connect 40 0 94 0;
#X connect 41 0 19 0;
#X connect 42 0 66 1;
#X connect 43 0 66 1;
#X connect 43 0 42 0;
#X connect 44 0 64 0;
#X connect 45 0 49 0;
#X connect 46 0 77 0;
#X connect 47 0 76 0;
#X connect 48 0 50 0;
#X connect 49 0 31 0;
#X connect 49 0 31 1;
#X connect 50 0 79 0;
#X connect 50 0 80 0;
#X connect 50 0 82 0;
#X connect 50 0 83 0;
#X connect 51 0 78 0;
#X connect 51 0 80 0;
#X connect 51 0 81 0;
#X connect 51 0 82 0;
#X connect 52 0 78 0;
#X connect 52 0 79 0;
#X connect 52 0 81 0;
#X connect 52 0 82 0;
#X connect 53 0 79 0;
#X connect 53 0 80 0;
#X connect 53 0 81 0;
#X connect 53 0 83 0;
#X connect 54 0 12 0;
#X connect 55 0 20 0;
#X connect 56 0 26 0;
#X connect 57 0 61 0;
#X connect 57 0 62 0;
#X connect 58 0 85 0;
#X connect 59 0 28 0;
#X connect 60 0 41 0;
#X connect 61 0 22 0;
#X connect 62 0 18 0;
#X connect 63 0 60 0;
#X connect 63 0 59 0;
#X connect 64 0 29 0;
#X connect 64 0 29 1;
#X connect 65 0 34 0;
#X connect 66 0 67 0;
#X connect 67 0 66 1;
#X connect 67 0 69 0;
#X connect 67 0 71 0;
#X connect 67 0 65 0;
#X connect 68 0 66 0;
#X connect 68 0 73 0;
#X connect 68 0 97 0;
#X connect 69 0 42 1;
#X connect 69 0 70 0;
#X connect 70 0 42 0;
#X connect 71 0 43 1;
#X connect 71 0 72 0;
#X connect 72 0 43 0;
#X connect 73 0 63 0;
#X connect 73 0 57 0;
#X connect 73 0 54 0;
#X connect 74 0 32 0;
#X connect 74 0 80 0;
#X connect 74 0 83 0;
#X connect 75 0 33 0;
#X connect 75 0 78 0;
#X connect 75 0 82 0;
#X connect 76 0 74 0;
#X connect 76 0 74 1;
#X connect 77 0 75 0;
#X connect 77 0 75 1;
#X connect 78 0 20 1;
#X connect 79 0 22 1;
#X connect 80 0 28 1;
#X connect 81 0 18 1;
#X connect 82 0 41 1;
#X connect 83 0 26 1;
#X connect 85 0 55 1;
#X connect 85 0 61 1;
#X connect 85 0 59 1;
#X connect 85 0 62 1;
#X connect 85 0 60 1;
#X connect 85 0 56 1;
#X connect 86 0 67 1;
#X connect 87 0 58 0;
#X connect 90 0 92 0;
#X connect 91 0 90 1;
#X connect 93 0 13 0;
#X connect 94 0 7 0;
#X connect 95 0 96 0;
#X connect 96 0 97 1;
#X restore 621 -531 pd move;
#X msg 579 -629 stop;
#X obj 621 -609 metro 100;
#X floatatom 695 -585 5 0 0 0 - - -;
#X obj 611 -506 pack f f f;
#X obj 734 -431 vsl 15 128 0 -0.1 0 1 empty empty angle 0 -9 0 10 -4034
-1 -1 10900 1;
#N canvas 2 54 450 300 target 0;
#X obj 148 -170 /;
#X obj 148 -35 nbx 3 25 -1e+37 1e+37 0 0 empty empty phi_tar 0 -8 0
20 -258113 -1 -1 77.109 25;
#X obj 148 -127 * 360;
#X obj 148 -107 / 6.28319;
#X obj 148 -150 atan;
#X obj 133 -4 -;
#X obj 133 37 * 6.28319;
#X obj 133 17 / 360;
#X obj 133 78 *;
#X obj 133 99 * 360;
#X obj 133 119 / 6.28319;
#X floatatom 325 -250 5 0 0 2 lambda - -;
#X obj 133 58 sin;
#X floatatom 238 -250 5 0 0 2 pos_X - -;
#X floatatom 279 -250 5 0 0 2 pos_Y - -;
#X obj 148 -196 -;
#X obj 245 -187 -;
#X obj 245 -117 < 0;
#X obj 148 -87 spigot;
#X obj 181 -164 > 0;
#X obj 212 -68 spigot;
#X obj 212 -90 + 180;
#X text 222 102 angle max;
#X floatatom 132 147 5 0 0 0 - - -;
#X obj 148 -231 bng 15 250 50 0 empty empty empty 17 7 0 10 -262144
-1 -1;
#X obj 211 -163 > 0;
#X obj 181 -142 &;
#X obj 296 -139 < 0;
#X obj 321 -111 > 0;
#X obj 296 -111 &;
#X obj 263 -67 spigot;
#X obj 263 -89 + 360;
#X floatatom 62 -254 5 0 0 2 tar_X - -;
#X floatatom 113 -254 5 0 0 2 tar_Y - -;
#X floatatom 187 -253 5 0 0 2 angle - -;
#X obj 325 -286 inlet;
#X obj 279 -286 inlet;
#X obj 238 -286 inlet;
#X obj 187 -286 inlet;
#X obj 113 -287 inlet;
#X obj 62 -287 inlet;
#X obj 198 145 outlet;
#X connect 0 0 4 0;
#X connect 1 0 5 1;
#X connect 2 0 3 0;
#X connect 3 0 18 0;
#X connect 3 0 21 0;
#X connect 3 0 31 0;
#X connect 4 0 2 0;
#X connect 5 0 7 0;
#X connect 6 0 12 0;
#X connect 7 0 6 0;
#X connect 8 0 9 0;
#X connect 9 0 10 0;
#X connect 10 0 23 0;
#X connect 10 0 41 0;
#X connect 11 0 8 1;
#X connect 12 0 8 0;
#X connect 13 0 16 1;
#X connect 14 0 15 1;
#X connect 15 0 0 0;
#X connect 15 0 19 0;
#X connect 15 0 27 0;
#X connect 16 0 0 1;
#X connect 16 0 17 0;
#X connect 16 0 25 0;
#X connect 16 0 28 0;
#X connect 17 0 20 1;
#X connect 18 0 1 0;
#X connect 19 0 26 0;
#X connect 20 0 1 0;
#X connect 21 0 20 0;
#X connect 24 0 15 0;
#X connect 25 0 26 1;
#X connect 26 0 18 1;
#X connect 27 0 29 0;
#X connect 28 0 29 1;
#X connect 29 0 30 1;
#X connect 30 0 1 0;
#X connect 31 0 30 0;
#X connect 32 0 16 0;
#X connect 32 0 24 0;
#X connect 33 0 15 0;
#X connect 34 0 5 0;
#X connect 35 0 11 0;
#X connect 36 0 14 0;
#X connect 37 0 13 0;
#X connect 38 0 34 0;
#X connect 39 0 33 0;
#X connect 40 0 32 0;
#X restore 620 -367 pd target;
#X obj 620 -343 +;
#X obj 565 -395 unpack f f;
#X floatatom 620 -320 5 0 0 0 - - -;
#X obj 644 -395 unpack f f f;
#X obj 659 -340 r phi_obs;
#X obj 620 -299 s phi3;
#X obj 644 -415 r ang_coord3;
#X obj 611 -483 s ang_coord3;
#X obj 618 -749 r phi3;
#N canvas 0 24 1897 968 speed3 0;
#X obj 169 -840 -;
#X floatatom 169 -818 5 0 0 0 - - -;
#X obj 236 -840 -;
#X floatatom 236 -818 5 0 0 0 - - -;
#X obj 169 -798 abs;
#X obj 236 -799 abs;
#X obj 169 -777 +;
#X obj 140 -806 vsl 15 128 0 2 0 0 empty empty empty 0 -9 0 10 -262144
-1 -1 6027 1;
#X floatatom 169 -734 5 0 0 0 - - -;
#X floatatom 169 -693 5 0 0 0 - - -;
#X obj 169 -674 expr if ($f1==1 \, $f2 \, $f3);
#X msg 258 -693 0;
#X obj 169 -914 unpack f f;
#X obj 173 -870 unpack f f f;
#X obj 170 -959 inlet;
#X obj 169 -642 outlet;
#X obj 166 -759 / 250;
#X obj 169 -714 < 0.0005;
#X obj 173 -891 r ang_coord3;
#X obj 411 -804 vsl 15 128 0 1270 0 0 empty adjust_speed empty 0 -9
0 10 -262144 -1 -1 4992 1;
#X connect 0 0 1 0;
#X connect 1 0 4 0;
#X connect 2 0 3 0;
#X connect 3 0 5 0;
#X connect 4 0 6 0;
#X connect 5 0 6 1;
#X connect 6 0 7 0;
#X connect 6 0 16 0;
#X connect 8 0 10 2;
#X connect 8 0 17 0;
#X connect 9 0 10 0;
#X connect 9 0 11 0;
#X connect 10 0 15 0;
#X connect 11 0 10 1;
#X connect 12 0 0 0;
#X connect 12 1 2 0;
#X connect 13 1 0 1;
#X connect 13 2 2 1;
#X connect 14 0 12 0;
#X connect 16 0 8 0;
#X connect 17 0 9 0;
#X connect 18 0 13 0;
#X connect 19 0 16 1;
#X restore 695 -759 pd speed3;
#X msg 695 -568 1 1 1;
#X obj 419 -781 r target2;
#X obj 292 -410 r target2;
#X obj 567 -413 r target3;
#X obj 694 -784 r target3;
#X obj 124 -786 r target1;
#N canvas 0 24 1897 968 speed1 0;
#X obj 169 -840 -;
#X floatatom 169 -818 5 0 0 0 - - -;
#X obj 236 -840 -;
#X floatatom 236 -818 5 0 0 0 - - -;
#X obj 169 -798 abs;
#X obj 236 -799 abs;
#X obj 169 -777 +;
#X obj 140 -806 vsl 15 128 0 2 0 0 empty empty empty 0 -9 0 10 -262144
-1 -1 12700 1;
#X floatatom 169 -734 5 0 0 0 - - -;
#X floatatom 169 -693 5 0 0 0 - - -;
#X obj 169 -674 expr if ($f1==1 \, $f2 \, $f3);
#X msg 258 -693 0;
#X obj 169 -914 unpack f f;
#X obj 173 -891 r ang_coord;
#X obj 173 -870 unpack f f f;
#X obj 170 -959 inlet;
#X obj 169 -642 outlet;
#X obj 170 -755 / 250;
#X obj 169 -713 < 0.0005;
#X obj 391 -824 vsl 15 128 0 1270 0 0 empty adjust_speed empty 0 -9
0 10 -262144 -1 -1 4992 1;
#X connect 0 0 1 0;
#X connect 1 0 4 0;
#X connect 2 0 3 0;
#X connect 3 0 5 0;
#X connect 4 0 6 0;
#X connect 5 0 6 1;
#X connect 6 0 7 0;
#X connect 6 0 17 0;
#X connect 8 0 10 2;
#X connect 8 0 18 0;
#X connect 9 0 10 0;
#X connect 9 0 11 0;
#X connect 10 0 16 0;
#X connect 11 0 10 1;
#X connect 12 0 0 0;
#X connect 12 1 2 0;
#X connect 13 0 14 0;
#X connect 14 1 0 1;
#X connect 14 2 2 1;
#X connect 15 0 12 0;
#X connect 17 0 8 0;
#X connect 18 0 9 0;
#X connect 19 0 17 1;
#X restore 126 -761 pd speed1;
#X obj 48 -751 r phi1;
#X obj 41 -485 s ang_coord1;
#X obj -2 -412 r target1;
#X obj 77 -413 r ang_coord1;
#X obj 53 -296 s phi1;
#X connect 0 0 16 0;
#X connect 1 0 0 0;
#X connect 2 0 4 0;
#X connect 2 0 9 0;
#X connect 2 0 8 0;
#X connect 2 0 10 0;
#X connect 3 0 13 2;
#X connect 3 0 23 0;
#X connect 4 0 6 1;
#X connect 5 0 13 1;
#X connect 6 0 5 0;
#X connect 7 0 5 0;
#X connect 8 0 7 1;
#X connect 9 0 7 0;
#X connect 10 0 6 0;
#X connect 11 0 3 0;
#X connect 12 0 13 0;
#X connect 13 0 24 0;
#X connect 13 1 24 1;
#X connect 13 2 24 2;
#X connect 14 0 16 0;
#X connect 15 0 14 0;
#X connect 16 0 12 0;
#X connect 18 0 19 5;
#X connect 19 0 20 0;
#X connect 20 0 22 0;
#X connect 21 0 19 0;
#X connect 21 1 19 1;
#X connect 22 0 100 0;
#X connect 24 0 97 0;
#X connect 25 0 19 2;
#X connect 25 1 19 3;
#X connect 25 2 19 4;
#X connect 26 0 20 1;
#X connect 27 0 43 0;
#X connect 28 0 27 0;
#X connect 29 0 31 0;
#X connect 29 0 36 0;
#X connect 29 0 35 0;
#X connect 29 0 37 0;
#X connect 30 0 40 2;
#X connect 30 0 44 0;
#X connect 31 0 33 1;
#X connect 32 0 40 1;
#X connect 33 0 32 0;
#X connect 34 0 32 0;
#X connect 35 0 34 1;
#X connect 36 0 34 0;
#X connect 37 0 33 0;
#X connect 38 0 30 0;
#X connect 39 0 40 0;
#X connect 40 0 45 0;
#X connect 40 1 45 1;
#X connect 40 2 45 2;
#X connect 41 0 40 3;
#X connect 42 0 43 0;
#X connect 43 0 39 0;
#X connect 45 0 47 0;
#X connect 46 0 29 0;
#X connect 48 0 49 5;
#X connect 49 0 50 0;
#X connect 50 0 52 0;
#X connect 51 0 49 0;
#X connect 51 1 49 1;
#X connect 52 0 56 0;
#X connect 53 0 49 2;
#X connect 53 1 49 3;
#X connect 53 2 49 4;
#X connect 54 0 50 1;
#X connect 55 0 53 0;
#X connect 57 0 13 3;
#X connect 58 0 30 0;
#X connect 59 0 74 0;
#X connect 60 0 59 0;
#X connect 61 0 63 0;
#X connect 61 0 68 0;
#X connect 61 0 67 0;
#X connect 61 0 69 0;
#X connect 62 0 72 2;
#X connect 62 0 75 0;
#X connect 63 0 65 1;
#X connect 64 0 72 1;
#X connect 65 0 64 0;
#X connect 66 0 64 0;
#X connect 67 0 66 1;
#X connect 68 0 66 0;
#X connect 69 0 65 0;
#X connect 70 0 62 0;
#X connect 71 0 72 0;
#X connect 72 0 76 0;
#X connect 72 1 76 1;
#X connect 72 2 76 2;
#X connect 73 0 74 0;
#X connect 74 0 71 0;
#X connect 76 0 86 0;
#X connect 77 0 78 5;
#X connect 78 0 79 0;
#X connect 79 0 81 0;
#X connect 80 0 78 0;
#X connect 80 1 78 1;
#X connect 81 0 84 0;
#X connect 82 0 78 2;
#X connect 82 1 78 3;
#X connect 82 2 78 4;
#X connect 83 0 79 1;
#X connect 85 0 82 0;
#X connect 87 0 61 0;
#X connect 88 0 62 0;
#X connect 89 0 72 3;
#X connect 90 0 58 0;
#X connect 91 0 51 0;
#X connect 92 0 80 0;
#X connect 93 0 88 0;
#X connect 94 0 95 0;
#X connect 95 0 3 0;
#X connect 96 0 2 0;
#X connect 98 0 21 0;
#X connect 99 0 25 0;
#X restore -280 -914 pd moteur1-3;
#N canvas 0 24 978 641 moteur4-6 0;
#X msg -1375 -618 bang;
#X obj -1375 -637 bng 15 250 50 0 empty start empty 17 7 0 10 -262144
-1 -1;
#X floatatom -1378 -717 5 0 0 0 - - -;
#X obj -1301 -711 vsl 15 128 0.0005 0.1 0 1 vit empty speed 0 -9 0
10 -4032 -1 -1 1969 1;
#X obj -1387 -691 < 0;
#X floatatom -1360 -568 5 0 0 0 - - -;
#X obj -1420 -670 spigot;
#X obj -1361 -669 spigot;
#X obj -1328 -691 > 0;
#X obj -1361 -691 * 1;
#X obj -1420 -691 * 1;
#X msg -1257 -727 0.02;
#X obj -1375 -542 bng 15 250 50 0 inc empty empty 17 7 0 10 -262144
-1 -1;
#N canvas 416 178 1001 667 move 0;
#X obj -20 709 inlet;
#X obj 71 724 inlet;
#X obj 209 1533 outlet;
#X obj 56 1444 gemhead;
#X obj 124 1461 translateXYZ;
#X obj 147 1429 - 3;
#X obj 124 1487 rotateXYZ;
#X obj 179 1373 float;
#X obj 178 1401 +;
#X obj 179 1351 bng 15 250 50 0 empty empty empty 17 7 0 10 -262144
-1 -1;
#X obj -19 1041 vsl 15 128 0 360 0 0 empty empty empty 0 -9 0 10 -262144
-1 -1 6801 1;
#X obj -34 1221 * 6.28319;
#X obj -34 1201 / 360;
#X obj 104 1376 float;
#X obj 104 1402 +;
#X obj 87 1352 bng 15 250 50 0 empty empty empty 17 7 0 10 -262144
-1 -1;
#X obj -34 1242 cos 45;
#X obj 170 1429 - 3;
#X obj 193 1290 spigot;
#X floatatom 193 1310 5 0 0 0 - - -;
#X obj -35 1285 spigot;
#X floatatom 119 1309 5 0 0 0 - - -;
#X obj 56 1288 spigot;
#X obj 408 1070 vsl 15 128 0 360 0 0 empty empty empty 0 -9 0 10 -262144
-1 -1 6801 1;
#X obj 323 1221 * 6.28319;
#X obj 323 1201 / 360;
#X obj 322 1285 spigot;
#X obj 323 1242 sin 45;
#X obj 119 1288 spigot;
#X obj 7 1074 spigot;
#X obj 7 1111 bng 15 250 50 0 empty empty empty 17 7 0 10 -262144 -1
-1;
#X obj 89 1076 spigot;
#X obj 167 1106 bng 15 250 50 0 empty empty empty 17 7 0 10 -262144
-1 -1;
#X obj 355 1107 bng 15 250 50 0 empty empty empty 17 7 0 10 -262144
-1 -1;
#X obj 10 944 hsl 150 40 0.5 359.5 0 0 empty empty empty -2 -8 0 10
-260097 -1 -1 7981 1;
#X obj 117 1005 <= 135;
#X obj 47 1004 <= 45;
#X obj 197 1008 <= 225;
#X obj 282 1007 <= 315;
#X obj 55 1329 r reset;
#X obj 147 1329 r reset;
#X obj 251 1288 spigot;
#X obj 33 882 spigot;
#X obj 79 883 spigot;
#X obj 7 1005 >= 315;
#X obj 84 1005 >= 45;
#X obj 243 1007 >= 225;
#X obj 158 1007 > 135;
#X obj 89 1109 bng 15 250 50 0 empty empty empty 17 7 0 10 -262144
-1 -1;
#X obj 89 1030 &;
#X msg 89 1135 0;
#X msg 7 1130 0;
#X msg 167 1138 0;
#X msg 355 1132 0;
#X obj -34 1177 int;
#X obj -34 1263 * 0.01;
#X obj 322 1263 * 0.01;
#X msg 164 1189 1;
#X floatatom 113 790 5 0 0 0 - - -;
#X obj 119 1242 * -0.01;
#X obj 251 1243 * -0.01;
#X obj 56 1244 * 0.01;
#X obj 189 1244 * 0.01;
#X msg 212 1192 -1;
#X obj 7 1026 |;
#X floatatom 0 901 0 -4.5 50 0 - - -;
#X obj 7 812 float;
#X obj 6 847 +;
#X obj -20 776 bng 15 250 50 0 empty empty empty 17 7 0 10 -262144
-1 -1;
#X obj 34 836 <= 0;
#X msg 34 860 360;
#X obj 79 835 >= 360;
#X msg 79 860 0;
#X obj 194 1166 bng 15 250 50 0 empty empty empty 17 7 0 10 -262144
-1 -1;
#X obj 153 1073 spigot;
#X obj 283 1068 spigot;
#X obj 153 1031 &;
#X obj 248 1032 &;
#X floatatom 7 1157 5 0 0 0 - - -;
#X floatatom 89 1157 5 0 0 0 - - -;
#X floatatom 152 1157 5 0 0 0 - - -;
#X floatatom 226 1162 5 0 0 0 - - -;
#X floatatom 284 1163 5 0 0 0 - - -;
#X floatatom 355 1162 5 0 0 0 - - -;
#X obj 199 954 s angle;
#X floatatom 114 1189 5 0 0 0 - - -;
#X floatatom 71 789 5 0 0 2 angle - -;
#X obj 113 738 inlet;
#X obj 304 1533 outlet;
#X obj 255 1533 outlet;
#X obj 125 1512 color;
#X obj 201 791 inlet;
#X obj 124 1536 square 0.16;
#X msg 55 1351 3;
#X msg 151 1352 3;
#X obj 305 688 r boussole;
#X obj 329 693 vsl 15 128 0 360 0 0 empty empty empty 0 -9 0 10 -262144
-1 -1 0 1;
#X obj 224 882 int;
#X connect 0 0 68 0;
#X connect 1 0 86 0;
#X connect 3 0 4 0;
#X connect 4 0 6 0;
#X connect 5 0 4 1;
#X connect 6 0 90 0;
#X connect 7 0 8 0;
#X connect 8 0 7 1;
#X connect 8 0 17 0;
#X connect 8 0 88 0;
#X connect 9 0 7 0;
#X connect 10 0 54 1;
#X connect 11 0 16 0;
#X connect 12 0 11 0;
#X connect 13 0 14 0;
#X connect 14 0 13 1;
#X connect 14 0 5 0;
#X connect 14 0 89 0;
#X connect 15 0 13 0;
#X connect 16 0 55 0;
#X connect 17 0 4 2;
#X connect 18 0 19 0;
#X connect 19 0 9 0;
#X connect 19 0 8 1;
#X connect 20 0 21 0;
#X connect 21 0 15 0;
#X connect 21 0 14 1;
#X connect 22 0 21 0;
#X connect 23 0 25 0;
#X connect 23 0 6 3;
#X connect 23 0 2 0;
#X connect 24 0 27 0;
#X connect 25 0 24 0;
#X connect 26 0 19 0;
#X connect 27 0 56 0;
#X connect 28 0 21 0;
#X connect 29 0 30 0;
#X connect 29 0 79 0;
#X connect 29 0 83 0;
#X connect 30 0 51 0;
#X connect 31 0 48 0;
#X connect 31 0 78 0;
#X connect 31 0 81 0;
#X connect 32 0 52 0;
#X connect 33 0 53 0;
#X connect 34 0 44 0;
#X connect 34 0 36 0;
#X connect 34 0 45 0;
#X connect 34 0 35 0;
#X connect 34 0 37 0;
#X connect 34 0 46 0;
#X connect 34 0 38 0;
#X connect 34 0 47 0;
#X connect 34 0 84 0;
#X connect 34 0 10 0;
#X connect 34 0 23 0;
#X connect 35 0 49 1;
#X connect 36 0 64 1;
#X connect 37 0 76 1;
#X connect 38 0 77 1;
#X connect 39 0 93 0;
#X connect 40 0 94 0;
#X connect 41 0 19 0;
#X connect 42 0 66 1;
#X connect 43 0 66 1;
#X connect 43 0 42 0;
#X connect 44 0 64 0;
#X connect 45 0 49 0;
#X connect 46 0 77 0;
#X connect 47 0 76 0;
#X connect 48 0 50 0;
#X connect 49 0 31 0;
#X connect 49 0 31 1;
#X connect 50 0 79 0;
#X connect 50 0 80 0;
#X connect 50 0 82 0;
#X connect 50 0 83 0;
#X connect 51 0 78 0;
#X connect 51 0 80 0;
#X connect 51 0 81 0;
#X connect 51 0 82 0;
#X connect 52 0 78 0;
#X connect 52 0 79 0;
#X connect 52 0 81 0;
#X connect 52 0 82 0;
#X connect 53 0 79 0;
#X connect 53 0 80 0;
#X connect 53 0 81 0;
#X connect 53 0 83 0;
#X connect 54 0 12 0;
#X connect 55 0 20 0;
#X connect 56 0 26 0;
#X connect 57 0 61 0;
#X connect 57 0 62 0;
#X connect 58 0 85 0;
#X connect 59 0 28 0;
#X connect 60 0 41 0;
#X connect 61 0 22 0;
#X connect 62 0 18 0;
#X connect 63 0 60 0;
#X connect 63 0 59 0;
#X connect 64 0 29 0;
#X connect 64 0 29 1;
#X connect 65 0 34 0;
#X connect 66 0 67 0;
#X connect 67 0 66 1;
#X connect 67 0 69 0;
#X connect 67 0 71 0;
#X connect 67 0 65 0;
#X connect 68 0 66 0;
#X connect 68 0 73 0;
#X connect 68 0 97 0;
#X connect 69 0 42 1;
#X connect 69 0 70 0;
#X connect 70 0 42 0;
#X connect 71 0 43 1;
#X connect 71 0 72 0;
#X connect 72 0 43 0;
#X connect 73 0 63 0;
#X connect 73 0 57 0;
#X connect 73 0 54 0;
#X connect 74 0 32 0;
#X connect 74 0 80 0;
#X connect 74 0 83 0;
#X connect 75 0 33 0;
#X connect 75 0 78 0;
#X connect 75 0 82 0;
#X connect 76 0 74 0;
#X connect 76 0 74 1;
#X connect 77 0 75 0;
#X connect 77 0 75 1;
#X connect 78 0 20 1;
#X connect 79 0 22 1;
#X connect 80 0 28 1;
#X connect 81 0 18 1;
#X connect 82 0 41 1;
#X connect 83 0 26 1;
#X connect 85 0 55 1;
#X connect 85 0 61 1;
#X connect 85 0 59 1;
#X connect 85 0 62 1;
#X connect 85 0 60 1;
#X connect 85 0 56 1;
#X connect 86 0 67 1;
#X connect 87 0 58 0;
#X connect 90 0 92 0;
#X connect 91 0 90 1;
#X connect 93 0 13 0;
#X connect 94 0 7 0;
#X connect 95 0 96 0;
#X connect 96 0 97 1;
#X restore -1375 -519 pd move;
#X msg -1417 -617 stop;
#X obj -1417 -638 bng 15 250 50 0 empty stop empty 17 7 0 10 -262144
-1 -1;
#X obj -1375 -597 metro 100;
#X obj -1259 -414 vsl 15 128 0 -0.1 0 1 empty empty angle 0 -9 0 10
-4034 -1 -1 12700 1;
#N canvas 4 54 450 300 target 0;
#X obj 148 -170 /;
#X obj 148 -35 nbx 3 25 -1e+37 1e+37 0 0 empty empty phi_tar 0 -8 0
20 -258113 -1 -1 239.393 25;
#X obj 148 -127 * 360;
#X obj 148 -107 / 6.28319;
#X obj 148 -150 atan;
#X obj 133 -4 -;
#X obj 133 37 * 6.28319;
#X obj 133 17 / 360;
#X obj 133 78 *;
#X obj 133 99 * 360;
#X obj 133 119 / 6.28319;
#X floatatom 325 -250 5 0 0 2 lambda - -;
#X obj 133 58 sin;
#X floatatom 238 -250 5 0 0 2 pos_X - -;
#X floatatom 279 -250 5 0 0 2 pos_Y - -;
#X obj 148 -196 -;
#X obj 245 -187 -;
#X obj 245 -117 < 0;
#X obj 148 -87 spigot;
#X obj 181 -164 > 0;
#X obj 212 -68 spigot;
#X obj 212 -90 + 180;
#X text 222 102 angle max;
#X floatatom 132 147 5 0 0 0 - - -;
#X obj 148 -231 bng 15 250 50 0 empty empty empty 17 7 0 10 -262144
-1 -1;
#X obj 211 -163 > 0;
#X obj 181 -142 &;
#X obj 296 -139 < 0;
#X obj 321 -111 > 0;
#X obj 296 -111 &;
#X obj 263 -67 spigot;
#X obj 263 -89 + 360;
#X floatatom 62 -254 5 0 0 2 tar_X - -;
#X floatatom 113 -254 5 0 0 2 tar_Y - -;
#X floatatom 187 -253 5 0 0 2 angle - -;
#X obj 325 -286 inlet;
#X obj 279 -286 inlet;
#X obj 238 -286 inlet;
#X obj 187 -286 inlet;
#X obj 113 -287 inlet;
#X obj 62 -287 inlet;
#X obj 198 145 outlet;
#X connect 0 0 4 0;
#X connect 1 0 5 1;
#X connect 2 0 3 0;
#X connect 3 0 18 0;
#X connect 3 0 21 0;
#X connect 3 0 31 0;
#X connect 4 0 2 0;
#X connect 5 0 7 0;
#X connect 6 0 12 0;
#X connect 7 0 6 0;
#X connect 8 0 9 0;
#X connect 9 0 10 0;
#X connect 10 0 23 0;
#X connect 10 0 41 0;
#X connect 11 0 8 1;
#X connect 12 0 8 0;
#X connect 13 0 16 1;
#X connect 14 0 15 1;
#X connect 15 0 0 0;
#X connect 15 0 19 0;
#X connect 15 0 27 0;
#X connect 16 0 0 1;
#X connect 16 0 17 0;
#X connect 16 0 25 0;
#X connect 16 0 28 0;
#X connect 17 0 20 1;
#X connect 18 0 1 0;
#X connect 19 0 26 0;
#X connect 20 0 1 0;
#X connect 21 0 20 0;
#X connect 24 0 15 0;
#X connect 25 0 26 1;
#X connect 26 0 18 1;
#X connect 27 0 29 0;
#X connect 28 0 29 1;
#X connect 29 0 30 1;
#X connect 30 0 1 0;
#X connect 31 0 30 0;
#X connect 32 0 16 0;
#X connect 32 0 24 0;
#X connect 33 0 15 0;
#X connect 34 0 5 0;
#X connect 35 0 11 0;
#X connect 36 0 14 0;
#X connect 37 0 13 0;
#X connect 38 0 34 0;
#X connect 39 0 33 0;
#X connect 40 0 32 0;
#X restore -1373 -350 pd target;
#X obj -1373 -326 +;
#X obj -1428 -378 unpack f f;
#X floatatom -1373 -303 5 0 0 0 - - -;
#X floatatom -1301 -573 5 0 0 0 - - -;
#X obj -1385 -494 pack f f f;
#X obj -1349 -378 unpack f f f;
#X msg -1080 -613 bang;
#X obj -1080 -632 bng 15 250 50 0 empty start empty 17 7 0 10 -262144
-1 -1;
#X floatatom -1083 -712 5 0 0 0 - - -;
#X obj -1006 -706 vsl 15 128 0.0005 0.1 0 1 vit empty speed 0 -9 0
10 -4032 -1 -1 423 1;
#X obj -1092 -686 < 0;
#X floatatom -1065 -563 5 0 0 0 - - -;
#X obj -1125 -665 spigot;
#X obj -1066 -664 spigot;
#X obj -1033 -686 > 0;
#X obj -1066 -686 * 1;
#X obj -1125 -686 * 1;
#X msg -962 -722 0.02;
#X obj -1080 -537 bng 15 250 50 0 inc empty empty 17 7 0 10 -262144
-1 -1;
#N canvas 416 178 1001 667 move 0;
#X obj -20 709 inlet;
#X obj 71 724 inlet;
#X obj 209 1533 outlet;
#X obj 56 1444 gemhead;
#X obj 124 1461 translateXYZ;
#X obj 147 1429 - 3;
#X obj 124 1487 rotateXYZ;
#X obj 179 1373 float;
#X obj 178 1401 +;
#X obj 179 1351 bng 15 250 50 0 empty empty empty 17 7 0 10 -262144
-1 -1;
#X obj -19 1041 vsl 15 128 0 360 0 0 empty empty empty 0 -9 0 10 -262144
-1 -1 11845 1;
#X obj -34 1221 * 6.28319;
#X obj -34 1201 / 360;
#X obj 104 1376 float;
#X obj 104 1402 +;
#X obj 87 1352 bng 15 250 50 0 empty empty empty 17 7 0 10 -262144
-1 -1;
#X obj -34 1242 cos 45;
#X obj 170 1429 - 3;
#X obj 193 1290 spigot;
#X floatatom 193 1310 5 0 0 0 - - -;
#X obj -35 1285 spigot;
#X floatatom 119 1309 5 0 0 0 - - -;
#X obj 56 1288 spigot;
#X obj 408 1070 vsl 15 128 0 360 0 0 empty empty empty 0 -9 0 10 -262144
-1 -1 11845 1;
#X obj 323 1221 * 6.28319;
#X obj 323 1201 / 360;
#X obj 322 1285 spigot;
#X obj 323 1242 sin 45;
#X obj 119 1288 spigot;
#X obj 7 1074 spigot;
#X obj 7 1111 bng 15 250 50 0 empty empty empty 17 7 0 10 -262144 -1
-1;
#X obj 89 1076 spigot;
#X obj 167 1106 bng 15 250 50 0 empty empty empty 17 7 0 10 -262144
-1 -1;
#X obj 355 1107 bng 15 250 50 0 empty empty empty 17 7 0 10 -262144
-1 -1;
#X obj 10 944 hsl 150 40 0.5 359.5 0 0 empty empty empty -2 -8 0 10
-260097 -1 -1 13915 1;
#X obj 117 1005 <= 135;
#X obj 47 1004 <= 45;
#X obj 197 1008 <= 225;
#X obj 282 1007 <= 315;
#X obj 55 1329 r reset;
#X obj 147 1329 r reset;
#X obj 251 1288 spigot;
#X obj 33 882 spigot;
#X obj 79 883 spigot;
#X obj 7 1005 >= 315;
#X obj 84 1005 >= 45;
#X obj 243 1007 >= 225;
#X obj 158 1007 > 135;
#X obj 89 1109 bng 15 250 50 0 empty empty empty 17 7 0 10 -262144
-1 -1;
#X obj 89 1030 &;
#X msg 89 1135 0;
#X msg 7 1130 0;
#X msg 167 1138 0;
#X msg 355 1132 0;
#X obj -34 1177 int;
#X obj -34 1263 * 0.01;
#X obj 322 1263 * 0.01;
#X msg 164 1189 1;
#X floatatom 113 790 5 0 0 0 - - -;
#X obj 119 1242 * -0.01;
#X obj 251 1243 * -0.01;
#X obj 56 1244 * 0.01;
#X obj 189 1244 * 0.01;
#X msg 212 1192 -1;
#X obj 7 1026 |;
#X floatatom 0 901 0 -4.5 50 0 - - -;
#X obj 7 812 float;
#X obj 6 847 +;
#X obj -20 776 bng 15 250 50 0 empty empty empty 17 7 0 10 -262144
-1 -1;
#X obj 34 836 <= 0;
#X msg 34 860 360;
#X obj 79 835 >= 360;
#X msg 79 860 0;
#X obj 194 1166 bng 15 250 50 0 empty empty empty 17 7 0 10 -262144
-1 -1;
#X obj 153 1073 spigot;
#X obj 283 1068 spigot;
#X obj 153 1031 &;
#X obj 248 1032 &;
#X floatatom 7 1157 5 0 0 0 - - -;
#X floatatom 89 1157 5 0 0 0 - - -;
#X floatatom 152 1157 5 0 0 0 - - -;
#X floatatom 226 1162 5 0 0 0 - - -;
#X floatatom 284 1163 5 0 0 0 - - -;
#X floatatom 355 1162 5 0 0 0 - - -;
#X obj 199 954 s angle;
#X floatatom 114 1189 5 0 0 0 - - -;
#X floatatom 71 789 5 0 0 2 angle - -;
#X obj 113 738 inlet;
#X obj 304 1533 outlet;
#X obj 255 1533 outlet;
#X obj 125 1512 color;
#X obj 201 791 inlet;
#X obj 124 1536 square 0.16;
#X msg 55 1351 3;
#X msg 151 1352 3;
#X obj 305 688 r boussole;
#X obj 329 693 vsl 15 128 0 360 0 0 empty empty empty 0 -9 0 10 -262144
-1 -1 0 1;
#X obj 224 882 int;
#X connect 0 0 68 0;
#X connect 1 0 86 0;
#X connect 3 0 4 0;
#X connect 4 0 6 0;
#X connect 5 0 4 1;
#X connect 6 0 90 0;
#X connect 7 0 8 0;
#X connect 8 0 7 1;
#X connect 8 0 17 0;
#X connect 8 0 88 0;
#X connect 9 0 7 0;
#X connect 10 0 54 1;
#X connect 11 0 16 0;
#X connect 12 0 11 0;
#X connect 13 0 14 0;
#X connect 14 0 13 1;
#X connect 14 0 5 0;
#X connect 14 0 89 0;
#X connect 15 0 13 0;
#X connect 16 0 55 0;
#X connect 17 0 4 2;
#X connect 18 0 19 0;
#X connect 19 0 9 0;
#X connect 19 0 8 1;
#X connect 20 0 21 0;
#X connect 21 0 15 0;
#X connect 21 0 14 1;
#X connect 22 0 21 0;
#X connect 23 0 25 0;
#X connect 23 0 6 3;
#X connect 23 0 2 0;
#X connect 24 0 27 0;
#X connect 25 0 24 0;
#X connect 26 0 19 0;
#X connect 27 0 56 0;
#X connect 28 0 21 0;
#X connect 29 0 30 0;
#X connect 29 0 79 0;
#X connect 29 0 83 0;
#X connect 30 0 51 0;
#X connect 31 0 48 0;
#X connect 31 0 78 0;
#X connect 31 0 81 0;
#X connect 32 0 52 0;
#X connect 33 0 53 0;
#X connect 34 0 44 0;
#X connect 34 0 36 0;
#X connect 34 0 45 0;
#X connect 34 0 35 0;
#X connect 34 0 37 0;
#X connect 34 0 46 0;
#X connect 34 0 38 0;
#X connect 34 0 47 0;
#X connect 34 0 84 0;
#X connect 34 0 10 0;
#X connect 34 0 23 0;
#X connect 35 0 49 1;
#X connect 36 0 64 1;
#X connect 37 0 76 1;
#X connect 38 0 77 1;
#X connect 39 0 93 0;
#X connect 40 0 94 0;
#X connect 41 0 19 0;
#X connect 42 0 66 1;
#X connect 43 0 66 1;
#X connect 43 0 42 0;
#X connect 44 0 64 0;
#X connect 45 0 49 0;
#X connect 46 0 77 0;
#X connect 47 0 76 0;
#X connect 48 0 50 0;
#X connect 49 0 31 0;
#X connect 49 0 31 1;
#X connect 50 0 79 0;
#X connect 50 0 80 0;
#X connect 50 0 82 0;
#X connect 50 0 83 0;
#X connect 51 0 78 0;
#X connect 51 0 80 0;
#X connect 51 0 81 0;
#X connect 51 0 82 0;
#X connect 52 0 78 0;
#X connect 52 0 79 0;
#X connect 52 0 81 0;
#X connect 52 0 82 0;
#X connect 53 0 79 0;
#X connect 53 0 80 0;
#X connect 53 0 81 0;
#X connect 53 0 83 0;
#X connect 54 0 12 0;
#X connect 55 0 20 0;
#X connect 56 0 26 0;
#X connect 57 0 61 0;
#X connect 57 0 62 0;
#X connect 58 0 85 0;
#X connect 59 0 28 0;
#X connect 60 0 41 0;
#X connect 61 0 22 0;
#X connect 62 0 18 0;
#X connect 63 0 60 0;
#X connect 63 0 59 0;
#X connect 64 0 29 0;
#X connect 64 0 29 1;
#X connect 65 0 34 0;
#X connect 66 0 67 0;
#X connect 67 0 66 1;
#X connect 67 0 69 0;
#X connect 67 0 71 0;
#X connect 67 0 65 0;
#X connect 68 0 66 0;
#X connect 68 0 73 0;
#X connect 68 0 97 0;
#X connect 69 0 42 1;
#X connect 69 0 70 0;
#X connect 70 0 42 0;
#X connect 71 0 43 1;
#X connect 71 0 72 0;
#X connect 72 0 43 0;
#X connect 73 0 63 0;
#X connect 73 0 57 0;
#X connect 73 0 54 0;
#X connect 74 0 32 0;
#X connect 74 0 80 0;
#X connect 74 0 83 0;
#X connect 75 0 33 0;
#X connect 75 0 78 0;
#X connect 75 0 82 0;
#X connect 76 0 74 0;
#X connect 76 0 74 1;
#X connect 77 0 75 0;
#X connect 77 0 75 1;
#X connect 78 0 20 1;
#X connect 79 0 22 1;
#X connect 80 0 28 1;
#X connect 81 0 18 1;
#X connect 82 0 41 1;
#X connect 83 0 26 1;
#X connect 85 0 55 1;
#X connect 85 0 61 1;
#X connect 85 0 59 1;
#X connect 85 0 62 1;
#X connect 85 0 60 1;
#X connect 85 0 56 1;
#X connect 86 0 67 1;
#X connect 87 0 58 0;
#X connect 90 0 92 0;
#X connect 91 0 90 1;
#X connect 93 0 13 0;
#X connect 94 0 7 0;
#X connect 95 0 96 0;
#X connect 96 0 97 1;
#X restore -1080 -514 pd move;
#X msg -1006 -551 0 1 1;
#X msg -1122 -612 stop;
#X obj -1080 -592 metro 100;
#X floatatom -1006 -568 5 0 0 0 - - -;
#X obj -1090 -489 pack f f f;
#X obj -967 -414 vsl 15 128 0 -0.1 0 1 empty empty angle 0 -9 0 10
-4034 -1 -1 7600 1;
#N canvas 2 54 450 300 target 0;
#X obj 148 -170 /;
#X obj 148 -35 nbx 3 25 -1e+37 1e+37 0 0 empty empty phi_tar 0 -8 0
20 -258113 -1 -1 335.721 25;
#X obj 148 -127 * 360;
#X obj 148 -107 / 6.28319;
#X obj 148 -150 atan;
#X obj 133 -4 -;
#X obj 133 37 * 6.28319;
#X obj 133 17 / 360;
#X obj 133 78 *;
#X obj 133 99 * 360;
#X obj 133 119 / 6.28319;
#X floatatom 325 -250 5 0 0 2 lambda - -;
#X obj 133 58 sin;
#X floatatom 238 -250 5 0 0 2 pos_X - -;
#X floatatom 279 -250 5 0 0 2 pos_Y - -;
#X obj 148 -196 -;
#X obj 245 -187 -;
#X obj 245 -117 < 0;
#X obj 148 -87 spigot;
#X obj 181 -164 > 0;
#X obj 212 -68 spigot;
#X obj 212 -90 + 180;
#X text 222 102 angle max;
#X floatatom 132 147 5 0 0 0 - - -;
#X obj 148 -231 bng 15 250 50 0 empty empty empty 17 7 0 10 -262144
-1 -1;
#X obj 211 -163 > 0;
#X obj 181 -142 &;
#X obj 296 -139 < 0;
#X obj 321 -111 > 0;
#X obj 296 -111 &;
#X obj 263 -67 spigot;
#X obj 263 -89 + 360;
#X floatatom 62 -254 5 0 0 2 tar_X - -;
#X floatatom 113 -254 5 0 0 2 tar_Y - -;
#X floatatom 187 -253 5 0 0 2 angle - -;
#X obj 325 -286 inlet;
#X obj 279 -286 inlet;
#X obj 238 -286 inlet;
#X obj 187 -286 inlet;
#X obj 113 -287 inlet;
#X obj 62 -287 inlet;
#X obj 198 145 outlet;
#X connect 0 0 4 0;
#X connect 1 0 5 1;
#X connect 2 0 3 0;
#X connect 3 0 18 0;
#X connect 3 0 21 0;
#X connect 3 0 31 0;
#X connect 4 0 2 0;
#X connect 5 0 7 0;
#X connect 6 0 12 0;
#X connect 7 0 6 0;
#X connect 8 0 9 0;
#X connect 9 0 10 0;
#X connect 10 0 23 0;
#X connect 10 0 41 0;
#X connect 11 0 8 1;
#X connect 12 0 8 0;
#X connect 13 0 16 1;
#X connect 14 0 15 1;
#X connect 15 0 0 0;
#X connect 15 0 19 0;
#X connect 15 0 27 0;
#X connect 16 0 0 1;
#X connect 16 0 17 0;
#X connect 16 0 25 0;
#X connect 16 0 28 0;
#X connect 17 0 20 1;
#X connect 18 0 1 0;
#X connect 19 0 26 0;
#X connect 20 0 1 0;
#X connect 21 0 20 0;
#X connect 24 0 15 0;
#X connect 25 0 26 1;
#X connect 26 0 18 1;
#X connect 27 0 29 0;
#X connect 28 0 29 1;
#X connect 29 0 30 1;
#X connect 30 0 1 0;
#X connect 31 0 30 0;
#X connect 32 0 16 0;
#X connect 32 0 24 0;
#X connect 33 0 15 0;
#X connect 34 0 5 0;
#X connect 35 0 11 0;
#X connect 36 0 14 0;
#X connect 37 0 13 0;
#X connect 38 0 34 0;
#X connect 39 0 33 0;
#X connect 40 0 32 0;
#X restore -1081 -350 pd target;
#X obj -1081 -326 +;
#X obj -1136 -378 unpack f f;
#X floatatom -1081 -303 5 0 0 0 - - -;
#X obj -1057 -378 unpack f f f;
#X obj -1042 -323 r phi_obs;
#X msg -1301 -556 1 0 1;
#X msg -805 -616 bang;
#X obj -805 -635 bng 15 250 50 0 empty start empty 17 7 0 10 -262144
-1 -1;
#X floatatom -808 -715 5 0 0 0 - - -;
#X obj -731 -709 vsl 15 128 0.0005 0.1 0 1 vit empty speed 0 -9 0 10
-4032 -1 -1 679 1;
#X obj -817 -689 < 0;
#X floatatom -790 -566 5 0 0 0 - - -;
#X obj -850 -668 spigot;
#X obj -791 -667 spigot;
#X obj -758 -689 > 0;
#X obj -791 -689 * 1;
#X obj -850 -689 * 1;
#X msg -687 -725 0.02;
#X obj -805 -540 bng 15 250 50 0 inc empty empty 17 7 0 10 -262144
-1 -1;
#N canvas 416 178 1001 667 move 0;
#X obj -20 709 inlet;
#X obj 71 724 inlet;
#X obj 209 1533 outlet;
#X obj 56 1444 gemhead;
#X obj 124 1461 translateXYZ;
#X obj 147 1429 - 3;
#X obj 124 1487 rotateXYZ;
#X obj 179 1373 float;
#X obj 178 1401 +;
#X obj 179 1351 bng 15 250 50 0 empty empty empty 17 7 0 10 -262144
-1 -1;
#X obj -19 1041 vsl 15 128 0 360 0 0 empty empty empty 0 -9 0 10 -262144
-1 -1 216 1;
#X obj -34 1221 * 6.28319;
#X obj -34 1201 / 360;
#X obj 104 1376 float;
#X obj 104 1402 +;
#X obj 87 1352 bng 15 250 50 0 empty empty empty 17 7 0 10 -262144
-1 -1;
#X obj -34 1242 cos 45;
#X obj 170 1429 - 3;
#X obj 193 1290 spigot;
#X floatatom 193 1310 5 0 0 0 - - -;
#X obj -35 1285 spigot;
#X floatatom 119 1309 5 0 0 0 - - -;
#X obj 56 1288 spigot;
#X obj 408 1070 vsl 15 128 0 360 0 0 empty empty empty 0 -9 0 10 -262144
-1 -1 216 1;
#X obj 323 1221 * 6.28319;
#X obj 323 1201 / 360;
#X obj 322 1285 spigot;
#X obj 323 1242 sin 45;
#X obj 119 1288 spigot;
#X obj 7 1074 spigot;
#X obj 7 1111 bng 15 250 50 0 empty empty empty 17 7 0 10 -262144 -1
-1;
#X obj 89 1076 spigot;
#X obj 167 1106 bng 15 250 50 0 empty empty empty 17 7 0 10 -262144
-1 -1;
#X obj 355 1107 bng 15 250 50 0 empty empty empty 17 7 0 10 -262144
-1 -1;
#X obj 10 944 hsl 150 40 0.5 359.5 0 0 empty empty empty -2 -8 0 10
-260097 -1 -1 233 1;
#X obj 117 1005 <= 135;
#X obj 47 1004 <= 45;
#X obj 197 1008 <= 225;
#X obj 282 1007 <= 315;
#X obj 55 1329 r reset;
#X obj 147 1329 r reset;
#X obj 251 1288 spigot;
#X obj 33 882 spigot;
#X obj 79 883 spigot;
#X obj 7 1005 >= 315;
#X obj 84 1005 >= 45;
#X obj 243 1007 >= 225;
#X obj 158 1007 > 135;
#X obj 89 1109 bng 15 250 50 0 empty empty empty 17 7 0 10 -262144
-1 -1;
#X obj 89 1030 &;
#X msg 89 1135 0;
#X msg 7 1130 0;
#X msg 167 1138 0;
#X msg 355 1132 0;
#X obj -34 1177 int;
#X obj -34 1263 * 0.01;
#X obj 322 1263 * 0.01;
#X msg 164 1189 1;
#X floatatom 113 790 5 0 0 0 - - -;
#X obj 119 1242 * -0.01;
#X obj 251 1243 * -0.01;
#X obj 56 1244 * 0.01;
#X obj 189 1244 * 0.01;
#X msg 212 1192 -1;
#X obj 7 1026 |;
#X floatatom 0 901 0 -4.5 50 0 - - -;
#X obj 7 812 float;
#X obj 6 847 +;
#X obj -20 776 bng 15 250 50 0 empty empty empty 17 7 0 10 -262144
-1 -1;
#X obj 34 836 <= 0;
#X msg 34 860 360;
#X obj 79 835 >= 360;
#X msg 79 860 0;
#X obj 194 1166 bng 15 250 50 0 empty empty empty 17 7 0 10 -262144
-1 -1;
#X obj 153 1073 spigot;
#X obj 283 1068 spigot;
#X obj 153 1031 &;
#X obj 248 1032 &;
#X floatatom 7 1157 5 0 0 0 - - -;
#X floatatom 89 1157 5 0 0 0 - - -;
#X floatatom 152 1157 5 0 0 0 - - -;
#X floatatom 226 1162 5 0 0 0 - - -;
#X floatatom 284 1163 5 0 0 0 - - -;
#X floatatom 355 1162 5 0 0 0 - - -;
#X obj 199 954 s angle;
#X floatatom 114 1189 5 0 0 0 - - -;
#X floatatom 71 789 5 0 0 2 angle - -;
#X obj 113 738 inlet;
#X obj 304 1533 outlet;
#X obj 255 1533 outlet;
#X obj 125 1512 color;
#X obj 201 791 inlet;
#X obj 124 1536 square 0.16;
#X msg 55 1351 3;
#X msg 151 1352 3;
#X obj 305 688 r boussole;
#X obj 329 693 vsl 15 128 0 360 0 0 empty empty empty 0 -9 0 10 -262144
-1 -1 0 1;
#X obj 224 882 int;
#X connect 0 0 68 0;
#X connect 1 0 86 0;
#X connect 3 0 4 0;
#X connect 4 0 6 0;
#X connect 5 0 4 1;
#X connect 6 0 90 0;
#X connect 7 0 8 0;
#X connect 8 0 7 1;
#X connect 8 0 17 0;
#X connect 8 0 88 0;
#X connect 9 0 7 0;
#X connect 10 0 54 1;
#X connect 11 0 16 0;
#X connect 12 0 11 0;
#X connect 13 0 14 0;
#X connect 14 0 13 1;
#X connect 14 0 5 0;
#X connect 14 0 89 0;
#X connect 15 0 13 0;
#X connect 16 0 55 0;
#X connect 17 0 4 2;
#X connect 18 0 19 0;
#X connect 19 0 9 0;
#X connect 19 0 8 1;
#X connect 20 0 21 0;
#X connect 21 0 15 0;
#X connect 21 0 14 1;
#X connect 22 0 21 0;
#X connect 23 0 25 0;
#X connect 23 0 6 3;
#X connect 23 0 2 0;
#X connect 24 0 27 0;
#X connect 25 0 24 0;
#X connect 26 0 19 0;
#X connect 27 0 56 0;
#X connect 28 0 21 0;
#X connect 29 0 30 0;
#X connect 29 0 79 0;
#X connect 29 0 83 0;
#X connect 30 0 51 0;
#X connect 31 0 48 0;
#X connect 31 0 78 0;
#X connect 31 0 81 0;
#X connect 32 0 52 0;
#X connect 33 0 53 0;
#X connect 34 0 44 0;
#X connect 34 0 36 0;
#X connect 34 0 45 0;
#X connect 34 0 35 0;
#X connect 34 0 37 0;
#X connect 34 0 46 0;
#X connect 34 0 38 0;
#X connect 34 0 47 0;
#X connect 34 0 84 0;
#X connect 34 0 10 0;
#X connect 34 0 23 0;
#X connect 35 0 49 1;
#X connect 36 0 64 1;
#X connect 37 0 76 1;
#X connect 38 0 77 1;
#X connect 39 0 93 0;
#X connect 40 0 94 0;
#X connect 41 0 19 0;
#X connect 42 0 66 1;
#X connect 43 0 66 1;
#X connect 43 0 42 0;
#X connect 44 0 64 0;
#X connect 45 0 49 0;
#X connect 46 0 77 0;
#X connect 47 0 76 0;
#X connect 48 0 50 0;
#X connect 49 0 31 0;
#X connect 49 0 31 1;
#X connect 50 0 79 0;
#X connect 50 0 80 0;
#X connect 50 0 82 0;
#X connect 50 0 83 0;
#X connect 51 0 78 0;
#X connect 51 0 80 0;
#X connect 51 0 81 0;
#X connect 51 0 82 0;
#X connect 52 0 78 0;
#X connect 52 0 79 0;
#X connect 52 0 81 0;
#X connect 52 0 82 0;
#X connect 53 0 79 0;
#X connect 53 0 80 0;
#X connect 53 0 81 0;
#X connect 53 0 83 0;
#X connect 54 0 12 0;
#X connect 55 0 20 0;
#X connect 56 0 26 0;
#X connect 57 0 61 0;
#X connect 57 0 62 0;
#X connect 58 0 85 0;
#X connect 59 0 28 0;
#X connect 60 0 41 0;
#X connect 61 0 22 0;
#X connect 62 0 18 0;
#X connect 63 0 60 0;
#X connect 63 0 59 0;
#X connect 64 0 29 0;
#X connect 64 0 29 1;
#X connect 65 0 34 0;
#X connect 66 0 67 0;
#X connect 67 0 66 1;
#X connect 67 0 69 0;
#X connect 67 0 71 0;
#X connect 67 0 65 0;
#X connect 68 0 66 0;
#X connect 68 0 73 0;
#X connect 68 0 97 0;
#X connect 69 0 42 1;
#X connect 69 0 70 0;
#X connect 70 0 42 0;
#X connect 71 0 43 1;
#X connect 71 0 72 0;
#X connect 72 0 43 0;
#X connect 73 0 63 0;
#X connect 73 0 57 0;
#X connect 73 0 54 0;
#X connect 74 0 32 0;
#X connect 74 0 80 0;
#X connect 74 0 83 0;
#X connect 75 0 33 0;
#X connect 75 0 78 0;
#X connect 75 0 82 0;
#X connect 76 0 74 0;
#X connect 76 0 74 1;
#X connect 77 0 75 0;
#X connect 77 0 75 1;
#X connect 78 0 20 1;
#X connect 79 0 22 1;
#X connect 80 0 28 1;
#X connect 81 0 18 1;
#X connect 82 0 41 1;
#X connect 83 0 26 1;
#X connect 85 0 55 1;
#X connect 85 0 61 1;
#X connect 85 0 59 1;
#X connect 85 0 62 1;
#X connect 85 0 60 1;
#X connect 85 0 56 1;
#X connect 86 0 67 1;
#X connect 87 0 58 0;
#X connect 90 0 92 0;
#X connect 91 0 90 1;
#X connect 93 0 13 0;
#X connect 94 0 7 0;
#X connect 95 0 96 0;
#X connect 96 0 97 1;
#X restore -805 -517 pd move;
#X msg -847 -615 stop;
#X obj -805 -595 metro 100;
#X floatatom -731 -571 5 0 0 0 - - -;
#X obj -815 -492 pack f f f;
#X obj -692 -417 vsl 15 128 0 -0.1 0 1 empty empty angle 0 -9 0 10
-4034 -1 -1 11300 1;
#N canvas 2 54 450 300 target 0;
#X obj 148 -170 /;
#X obj 148 -35 nbx 3 25 -1e+37 1e+37 0 0 empty empty phi_tar 0 -8 0
20 -258113 -1 -1 6.13051 25;
#X obj 148 -127 * 360;
#X obj 148 -107 / 6.28319;
#X obj 148 -150 atan;
#X obj 133 -4 -;
#X obj 133 37 * 6.28319;
#X obj 133 17 / 360;
#X obj 133 78 *;
#X obj 133 99 * 360;
#X obj 133 119 / 6.28319;
#X floatatom 325 -250 5 0 0 2 lambda - -;
#X obj 133 58 sin;
#X floatatom 238 -250 5 0 0 2 pos_X - -;
#X floatatom 279 -250 5 0 0 2 pos_Y - -;
#X obj 148 -196 -;
#X obj 245 -187 -;
#X obj 245 -117 < 0;
#X obj 148 -87 spigot;
#X obj 181 -164 > 0;
#X obj 212 -68 spigot;
#X obj 212 -90 + 180;
#X text 222 102 angle max;
#X floatatom 132 147 5 0 0 0 - - -;
#X obj 148 -231 bng 15 250 50 0 empty empty empty 17 7 0 10 -262144
-1 -1;
#X obj 211 -163 > 0;
#X obj 181 -142 &;
#X obj 296 -139 < 0;
#X obj 321 -111 > 0;
#X obj 296 -111 &;
#X obj 263 -67 spigot;
#X obj 263 -89 + 360;
#X floatatom 62 -254 5 0 0 2 tar_X - -;
#X floatatom 113 -254 5 0 0 2 tar_Y - -;
#X floatatom 187 -253 5 0 0 2 angle - -;
#X obj 325 -286 inlet;
#X obj 279 -286 inlet;
#X obj 238 -286 inlet;
#X obj 187 -286 inlet;
#X obj 113 -287 inlet;
#X obj 62 -287 inlet;
#X obj 198 145 outlet;
#X connect 0 0 4 0;
#X connect 1 0 5 1;
#X connect 2 0 3 0;
#X connect 3 0 18 0;
#X connect 3 0 21 0;
#X connect 3 0 31 0;
#X connect 4 0 2 0;
#X connect 5 0 7 0;
#X connect 6 0 12 0;
#X connect 7 0 6 0;
#X connect 8 0 9 0;
#X connect 9 0 10 0;
#X connect 10 0 23 0;
#X connect 10 0 41 0;
#X connect 11 0 8 1;
#X connect 12 0 8 0;
#X connect 13 0 16 1;
#X connect 14 0 15 1;
#X connect 15 0 0 0;
#X connect 15 0 19 0;
#X connect 15 0 27 0;
#X connect 16 0 0 1;
#X connect 16 0 17 0;
#X connect 16 0 25 0;
#X connect 16 0 28 0;
#X connect 17 0 20 1;
#X connect 18 0 1 0;
#X connect 19 0 26 0;
#X connect 20 0 1 0;
#X connect 21 0 20 0;
#X connect 24 0 15 0;
#X connect 25 0 26 1;
#X connect 26 0 18 1;
#X connect 27 0 29 0;
#X connect 28 0 29 1;
#X connect 29 0 30 1;
#X connect 30 0 1 0;
#X connect 31 0 30 0;
#X connect 32 0 16 0;
#X connect 32 0 24 0;
#X connect 33 0 15 0;
#X connect 34 0 5 0;
#X connect 35 0 11 0;
#X connect 36 0 14 0;
#X connect 37 0 13 0;
#X connect 38 0 34 0;
#X connect 39 0 33 0;
#X connect 40 0 32 0;
#X restore -806 -353 pd target;
#X obj -806 -329 +;
#X obj -880 -376 unpack f f;
#X floatatom -806 -306 5 0 0 0 - - -;
#X obj -782 -381 unpack f f f;
#X obj -767 -326 r phi_obs;
#X msg -731 -554 1 1 1;
#X obj -1378 -737 r phi4;
#X obj -1303 -771 r target4;
#X obj -1385 -471 s ang_coord4;
#X obj -1428 -398 r target4;
#X obj -1349 -399 r ang_coord4;
#X obj -1334 -323 r phi_obs4;
#X obj -1373 -282 s phi4;
#X obj -1007 -767 r target5;
#N canvas 0 24 1897 968 speed4 0;
#X obj 169 -840 -;
#X floatatom 169 -818 5 0 0 0 - - -;
#X obj 236 -840 -;
#X floatatom 236 -818 5 0 0 0 - - -;
#X obj 169 -798 abs;
#X obj 236 -799 abs;
#X obj 169 -777 +;
#X obj 140 -806 vsl 15 128 0 2 0 0 empty empty empty 0 -9 0 10 -262144
-1 -1 12700 1;
#X floatatom 169 -734 5 0 0 0 - - -;
#X floatatom 169 -693 5 0 0 0 - - -;
#X obj 169 -674 expr if ($f1==1 \, $f2 \, $f3);
#X msg 258 -693 0;
#X obj 169 -914 unpack f f;
#X obj 173 -891 r ang_coord;
#X obj 173 -870 unpack f f f;
#X obj 170 -959 inlet;
#X obj 169 -642 outlet;
#X obj 178 -756 / 250;
#X obj 169 -713 < 0.0005;
#X obj 421 -794 vsl 15 128 0 1270 0 0 empty adjust_speed empty 0 -9
0 10 -262144 -1 -1 4992 1;
#X connect 0 0 1 0;
#X connect 1 0 4 0;
#X connect 2 0 3 0;
#X connect 3 0 5 0;
#X connect 4 0 6 0;
#X connect 5 0 6 1;
#X connect 6 0 7 0;
#X connect 6 0 17 0;
#X connect 8 0 10 2;
#X connect 8 0 18 0;
#X connect 9 0 10 0;
#X connect 9 0 11 0;
#X connect 10 0 16 0;
#X connect 11 0 10 1;
#X connect 12 0 0 0;
#X connect 12 1 2 0;
#X connect 13 0 14 0;
#X connect 14 1 0 1;
#X connect 14 2 2 1;
#X connect 15 0 12 0;
#X connect 17 0 8 0;
#X connect 18 0 9 0;
#X connect 19 0 17 1;
#X restore -1300 -747 pd speed4;
#N canvas 0 24 1897 968 speed5 0;
#X obj 169 -840 -;
#X floatatom 169 -818 5 0 0 0 - - -;
#X obj 236 -840 -;
#X floatatom 236 -818 5 0 0 0 - - -;
#X obj 169 -798 abs;
#X obj 236 -799 abs;
#X obj 169 -777 +;
#X obj 140 -806 vsl 15 128 0 2 0 0 empty empty empty 0 -9 0 10 -262144
-1 -1 12088 1;
#X floatatom 169 -734 5 0 0 0 - - -;
#X floatatom 169 -693 5 0 0 0 - - -;
#X obj 169 -674 expr if ($f1==1 \, $f2 \, $f3);
#X msg 258 -693 0;
#X obj 169 -914 unpack f f;
#X obj 173 -870 unpack f f f;
#X obj 170 -959 inlet;
#X obj 169 -642 outlet;
#X obj 173 -891 r ang_coord2;
#X obj 166 -759 / 250;
#X obj 169 -714 < 0.0005;
#X obj 431 -784 vsl 15 128 0 1270 0 0 empty adjust_speed empty 0 -9
0 10 -262144 -1 -1 4992 1;
#X connect 0 0 1 0;
#X connect 1 0 4 0;
#X connect 2 0 3 0;
#X connect 3 0 5 0;
#X connect 4 0 6 0;
#X connect 5 0 6 1;
#X connect 6 0 7 0;
#X connect 6 0 17 0;
#X connect 8 0 10 2;
#X connect 8 0 18 0;
#X connect 9 0 10 0;
#X connect 9 0 11 0;
#X connect 10 0 15 0;
#X connect 11 0 10 1;
#X connect 12 0 0 0;
#X connect 12 1 2 0;
#X connect 13 1 0 1;
#X connect 13 2 2 1;
#X connect 14 0 12 0;
#X connect 16 0 13 0;
#X connect 17 0 8 0;
#X connect 18 0 9 0;
#X connect 19 0 17 1;
#X restore -1006 -742 pd speed5;
#X obj -1083 -732 r phi5;
#X obj -1090 -466 s ang_coord5;
#X obj -1136 -399 r target5;
#X obj -1057 -399 r ang_coord5;
#X obj -1081 -282 s phi5;
#X obj -732 -770 r target6;
#N canvas 0 24 1897 968 speed6 0;
#X obj 169 -840 -;
#X floatatom 169 -818 5 0 0 0 - - -;
#X obj 236 -840 -;
#X floatatom 236 -818 5 0 0 0 - - -;
#X obj 169 -798 abs;
#X obj 236 -799 abs;
#X obj 169 -777 +;
#X obj 140 -806 vsl 15 128 0 2 0 0 empty empty empty 0 -9 0 10 -262144
-1 -1 12700 1;
#X floatatom 169 -734 5 0 0 0 - - -;
#X floatatom 169 -693 5 0 0 0 - - -;
#X obj 169 -674 expr if ($f1==1 \, $f2 \, $f3);
#X msg 258 -693 0;
#X obj 169 -914 unpack f f;
#X obj 173 -870 unpack f f f;
#X obj 170 -959 inlet;
#X obj 169 -642 outlet;
#X obj 166 -759 / 250;
#X obj 169 -714 < 0.0005;
#X obj 173 -891 r ang_coord3;
#X obj 441 -774 vsl 15 128 0 1270 0 0 empty adjust_speed empty 0 -9
0 10 -262144 -1 -1 4992 1;
#X connect 0 0 1 0;
#X connect 1 0 4 0;
#X connect 2 0 3 0;
#X connect 3 0 5 0;
#X connect 4 0 6 0;
#X connect 5 0 6 1;
#X connect 6 0 7 0;
#X connect 6 0 16 0;
#X connect 8 0 10 2;
#X connect 8 0 17 0;
#X connect 9 0 10 0;
#X connect 9 0 11 0;
#X connect 10 0 15 0;
#X connect 11 0 10 1;
#X connect 12 0 0 0;
#X connect 12 1 2 0;
#X connect 13 1 0 1;
#X connect 13 2 2 1;
#X connect 14 0 12 0;
#X connect 16 0 8 0;
#X connect 17 0 9 0;
#X connect 18 0 13 0;
#X connect 19 0 16 1;
#X restore -731 -745 pd speed6;
#X obj -808 -735 r phi6;
#X obj -815 -469 s ang_coord6;
#X obj -859 -399 r target6;
#X obj -782 -401 r ang_coord6;
#X obj -806 -285 s phi6;
#X connect 0 0 16 0;
#X connect 1 0 0 0;
#X connect 2 0 4 0;
#X connect 2 0 9 0;
#X connect 2 0 8 0;
#X connect 2 0 10 0;
#X connect 3 0 13 2;
#X connect 3 0 22 0;
#X connect 4 0 6 1;
#X connect 5 0 13 1;
#X connect 6 0 5 0;
#X connect 7 0 5 0;
#X connect 8 0 7 1;
#X connect 9 0 7 0;
#X connect 10 0 6 0;
#X connect 11 0 3 0;
#X connect 12 0 13 0;
#X connect 13 0 23 0;
#X connect 13 1 23 1;
#X connect 13 2 23 2;
#X connect 14 0 16 0;
#X connect 15 0 14 0;
#X connect 16 0 12 0;
#X connect 17 0 18 5;
#X connect 18 0 19 0;
#X connect 19 0 21 0;
#X connect 20 0 18 0;
#X connect 20 1 18 1;
#X connect 21 0 84 0;
#X connect 23 0 80 0;
#X connect 24 0 18 2;
#X connect 24 1 18 3;
#X connect 24 2 18 4;
#X connect 25 0 41 0;
#X connect 26 0 25 0;
#X connect 27 0 29 0;
#X connect 27 0 34 0;
#X connect 27 0 33 0;
#X connect 27 0 35 0;
#X connect 28 0 38 2;
#X connect 28 0 42 0;
#X connect 29 0 31 1;
#X connect 30 0 38 1;
#X connect 31 0 30 0;
#X connect 32 0 30 0;
#X connect 33 0 32 1;
#X connect 34 0 32 0;
#X connect 35 0 31 0;
#X connect 36 0 28 0;
#X connect 37 0 38 0;
#X connect 38 0 43 0;
#X connect 38 1 43 1;
#X connect 38 2 43 2;
#X connect 39 0 38 3;
#X connect 40 0 41 0;
#X connect 41 0 37 0;
#X connect 43 0 89 0;
#X connect 44 0 45 5;
#X connect 45 0 46 0;
#X connect 46 0 48 0;
#X connect 47 0 45 0;
#X connect 47 1 45 1;
#X connect 48 0 92 0;
#X connect 49 0 45 2;
#X connect 49 1 45 3;
#X connect 49 2 45 4;
#X connect 50 0 46 1;
#X connect 51 0 13 3;
#X connect 52 0 67 0;
#X connect 53 0 52 0;
#X connect 54 0 56 0;
#X connect 54 0 61 0;
#X connect 54 0 60 0;
#X connect 54 0 62 0;
#X connect 55 0 65 2;
#X connect 55 0 68 0;
#X connect 56 0 58 1;
#X connect 57 0 65 1;
#X connect 58 0 57 0;
#X connect 59 0 57 0;
#X connect 60 0 59 1;
#X connect 61 0 59 0;
#X connect 62 0 58 0;
#X connect 63 0 55 0;
#X connect 64 0 65 0;
#X connect 65 0 69 0;
#X connect 65 1 69 1;
#X connect 65 2 69 2;
#X connect 66 0 67 0;
#X connect 67 0 64 0;
#X connect 69 0 96 0;
#X connect 70 0 71 5;
#X connect 71 0 72 0;
#X connect 72 0 74 0;
#X connect 73 0 71 0;
#X connect 73 1 71 1;
#X connect 74 0 99 0;
#X connect 75 0 71 2;
#X connect 75 1 71 3;
#X connect 75 2 71 4;
#X connect 76 0 72 1;
#X connect 77 0 65 3;
#X connect 78 0 2 0;
#X connect 79 0 86 0;
#X connect 81 0 20 0;
#X connect 82 0 24 0;
#X connect 83 0 19 1;
#X connect 85 0 87 0;
#X connect 86 0 3 0;
#X connect 87 0 28 0;
#X connect 88 0 27 0;
#X connect 90 0 47 0;
#X connect 91 0 49 0;
#X connect 93 0 94 0;
#X connect 94 0 55 0;
#X connect 95 0 54 0;
#X connect 97 0 73 0;
#X connect 98 0 75 0;
#X restore -167 -914 pd moteur4-6;
#N canvas 0 24 1747 607 send_nbr_from_comm 0;
#X obj 507 32 spigot;
#X obj 348 -223 vradio 15 1 0 8 empty empty empty 0 -8 0 10 -262144
-1 -1 3;
#X floatatom 348 -98 5 0 0 0 - - -;
#X obj 504 -174 unpack f f f;
#X obj 538 -132 * 100;
#X obj 573 -132 * 100;
#X obj 538 -110 int;
#X obj 573 -110 int;
#X obj 504 -109 int;
#X obj 538 -153 - 0;
#X obj 573 -153 - 0;
#X obj 508 -60 pack f f f;
#X obj 394 -206 bng 15 250 50 0 empty empty empty 17 7 0 10 -262144
-1 -1;
#X obj 611 -169 unpack f f f;
#X obj 645 -127 * 100;
#X obj 680 -127 * 100;
#X obj 645 -105 int;
#X obj 680 -105 int;
#X obj 611 -104 int;
#X obj 645 -148 - 0;
#X obj 680 -148 - 0;
#X obj 608 -63 pack f f f f f f;
#X obj 774 -153 unpack f f f;
#X obj 808 -111 * 100;
#X obj 843 -111 * 100;
#X obj 808 -89 int;
#X obj 843 -89 int;
#X obj 774 -88 int;
#X obj 808 -132 - 0;
#X obj 843 -132 - 0;
#X obj 881 -148 unpack f f f;
#X obj 915 -106 * 100;
#X obj 950 -106 * 100;
#X obj 915 -84 int;
#X obj 950 -84 int;
#X obj 881 -83 int;
#X obj 915 -127 - 0;
#X obj 950 -127 - 0;
#X obj 774 -65 pack f f f f f f f f f;
#X obj 987 -151 unpack f f f;
#X obj 1021 -109 * 100;
#X obj 1056 -109 * 100;
#X obj 1021 -87 int;
#X obj 1056 -87 int;
#X obj 987 -86 int;
#X obj 1021 -130 - 0;
#X obj 1056 -130 - 0;
#X msg 508 -12 send \$1 \$2 \$3;
#X obj 608 26 spigot;
#X msg 608 -9 send \$1 \$2 \$3 o \$4 \$5 \$6;
#X msg 774 -9 send \$1 \$2 \$3 o \$4 \$5 \$6 o \$7 \$8 \$9;
#X obj 779 24 spigot;
#X obj 1120 -156 unpack f f f;
#X obj 1154 -114 * 100;
#X obj 1189 -114 * 100;
#X obj 1154 -92 int;
#X obj 1189 -92 int;
#X obj 1120 -91 int;
#X obj 1154 -135 - 0;
#X obj 1189 -135 - 0;
#X obj 1227 -151 unpack f f f;
#X obj 1261 -109 * 100;
#X obj 1296 -109 * 100;
#X obj 1261 -87 int;
#X obj 1296 -87 int;
#X obj 1227 -86 int;
#X obj 1261 -130 - 0;
#X obj 1296 -130 - 0;
#X obj 1333 -154 unpack f f f;
#X obj 1367 -112 * 100;
#X obj 1402 -112 * 100;
#X obj 1367 -90 int;
#X obj 1402 -90 int;
#X obj 1333 -89 int;
#X obj 1367 -133 - 0;
#X obj 1402 -133 - 0;
#X obj 1120 21 spigot;
#X obj 1451 -151 unpack f f f;
#X obj 1485 -109 * 100;
#X obj 1520 -109 * 100;
#X obj 1485 -87 int;
#X obj 1520 -87 int;
#X obj 1451 -86 int;
#X obj 1485 -130 - 0;
#X obj 1520 -130 - 0;
#X obj 600 -243 r ang_coord2;
#X obj 865 -206 r ang_coord2;
#X obj 981 -204 r ang_coord3;
#X obj 1198 -204 r ang_coord2;
#X obj 1314 -202 r ang_coord3;
#X obj 1437 -204 r ang_coord4;
#X obj 1297 -44 pack f f f f f f f f f f f f;
#X msg 1120 -11 send \$1 \$2 \$3 o \$4 \$5 \$6 o \$7 \$8 \$9 o \$10
\$11 \$12;
#X obj 514 -245 r ang_coord1;
#X obj 779 -208 r ang_coord1;
#X obj 1113 -205 r ang_coord1;
#X obj 1567 -149 unpack f f f;
#X obj 1601 -107 * 100;
#X obj 1636 -107 * 100;
#X obj 1601 -85 int;
#X obj 1636 -85 int;
#X obj 1567 -84 int;
#X obj 1601 -128 - 0;
#X obj 1636 -128 - 0;
#X obj 1674 -144 unpack f f f;
#X obj 1708 -102 * 100;
#X obj 1743 -102 * 100;
#X obj 1708 -80 int;
#X obj 1743 -80 int;
#X obj 1674 -79 int;
#X obj 1708 -123 - 0;
#X obj 1743 -123 - 0;
#X obj 1780 -147 unpack f f f;
#X obj 1814 -105 * 100;
#X obj 1849 -105 * 100;
#X obj 1814 -83 int;
#X obj 1849 -83 int;
#X obj 1780 -82 int;
#X obj 1814 -126 - 0;
#X obj 1849 -126 - 0;
#X obj 1567 28 spigot;
#X obj 1898 -144 unpack f f f;
#X obj 1932 -102 * 100;
#X obj 1967 -102 * 100;
#X obj 1932 -80 int;
#X obj 1967 -80 int;
#X obj 1898 -79 int;
#X obj 1932 -123 - 0;
#X obj 1967 -123 - 0;
#X obj 1645 -197 r ang_coord2;
#X obj 1761 -195 r ang_coord3;
#X obj 1884 -197 r ang_coord4;
#X obj 1560 -198 r ang_coord1;
#X obj 2002 -143 unpack f f f;
#X obj 2036 -101 * 100;
#X obj 2071 -101 * 100;
#X obj 2036 -79 int;
#X obj 2071 -79 int;
#X obj 2002 -78 int;
#X obj 2036 -122 - 0;
#X obj 2071 -122 - 0;
#X obj 1651 -38 pack f f f f f f f f f f f f f f f;
#X msg 1567 -4 send \$1 \$2 \$3 o \$4 \$5 \$6 o \$7 \$8 \$9 o \$10
\$11 \$12 o \$13 \$14 \$15;
#X obj 1988 -196 r ang_coord5;
#X obj 2129 -141 unpack f f f;
#X obj 2163 -99 * 100;
#X obj 2198 -99 * 100;
#X obj 2163 -77 int;
#X obj 2198 -77 int;
#X obj 2129 -76 int;
#X obj 2163 -120 - 0;
#X obj 2198 -120 - 0;
#X obj 2236 -136 unpack f f f;
#X obj 2270 -94 * 100;
#X obj 2305 -94 * 100;
#X obj 2270 -72 int;
#X obj 2305 -72 int;
#X obj 2236 -71 int;
#X obj 2270 -115 - 0;
#X obj 2305 -115 - 0;
#X obj 2342 -139 unpack f f f;
#X obj 2376 -97 * 100;
#X obj 2411 -97 * 100;
#X obj 2376 -75 int;
#X obj 2411 -75 int;
#X obj 2342 -74 int;
#X obj 2376 -118 - 0;
#X obj 2411 -118 - 0;
#X obj 1735 92 spigot;
#X obj 2460 -136 unpack f f f;
#X obj 2494 -94 * 100;
#X obj 2529 -94 * 100;
#X obj 2494 -72 int;
#X obj 2529 -72 int;
#X obj 2460 -71 int;
#X obj 2494 -115 - 0;
#X obj 2529 -115 - 0;
#X obj 2207 -189 r ang_coord2;
#X obj 2323 -187 r ang_coord3;
#X obj 2446 -189 r ang_coord4;
#X obj 2122 -190 r ang_coord1;
#X obj 2564 -135 unpack f f f;
#X obj 2598 -93 * 100;
#X obj 2633 -93 * 100;
#X obj 2598 -71 int;
#X obj 2633 -71 int;
#X obj 2564 -70 int;
#X obj 2598 -114 - 0;
#X obj 2633 -114 - 0;
#X obj 2550 -188 r ang_coord5;
#X obj 2675 -134 unpack f f f;
#X obj 2709 -92 * 100;
#X obj 2744 -92 * 100;
#X obj 2709 -70 int;
#X obj 2744 -70 int;
#X obj 2675 -69 int;
#X obj 2709 -113 - 0;
#X obj 2744 -113 - 0;
#X obj 2661 -187 r ang_coord6;
#X obj 2172 -33 pack f f f f f f f f f f f f f f f f f f;
#X msg 2129 4 send \$1 \$2 \$3 o \$4 \$5 \$6 o \$7 \$8 \$9 o \$10 \$11
\$12 o \$13 \$14 \$15 o \$16 \$17 \$18;
#X obj 255 -66 == 1;
#X obj 302 -64 == 2;
#X obj 338 -62 == 3;
#X obj 376 -63 == 4;
#X obj 410 -75 == 5;
#X obj 450 -81 == 6;
#X obj 350 -276 inlet;
#X obj 917 121 outlet;
#X connect 0 0 208 0;
#X connect 1 0 2 0;
#X connect 2 0 201 0;
#X connect 2 0 202 0;
#X connect 2 0 203 0;
#X connect 2 0 204 0;
#X connect 2 0 205 0;
#X connect 2 0 206 0;
#X connect 3 0 8 0;
#X connect 3 1 9 0;
#X connect 3 2 10 0;
#X connect 4 0 6 0;
#X connect 5 0 7 0;
#X connect 6 0 11 1;
#X connect 6 0 21 1;
#X connect 7 0 11 2;
#X connect 7 0 21 2;
#X connect 8 0 11 0;
#X connect 8 0 21 0;
#X connect 9 0 4 0;
#X connect 10 0 5 0;
#X connect 11 0 47 0;
#X connect 12 0 1 0;
#X connect 13 0 18 0;
#X connect 13 1 19 0;
#X connect 13 2 20 0;
#X connect 14 0 16 0;
#X connect 15 0 17 0;
#X connect 16 0 21 4;
#X connect 17 0 21 5;
#X connect 18 0 21 3;
#X connect 19 0 14 0;
#X connect 20 0 15 0;
#X connect 21 0 49 0;
#X connect 22 0 27 0;
#X connect 22 1 28 0;
#X connect 22 2 29 0;
#X connect 23 0 25 0;
#X connect 24 0 26 0;
#X connect 25 0 38 1;
#X connect 26 0 38 2;
#X connect 27 0 38 0;
#X connect 28 0 23 0;
#X connect 29 0 24 0;
#X connect 30 0 35 0;
#X connect 30 1 36 0;
#X connect 30 2 37 0;
#X connect 31 0 33 0;
#X connect 32 0 34 0;
#X connect 33 0 38 4;
#X connect 34 0 38 5;
#X connect 35 0 38 3;
#X connect 36 0 31 0;
#X connect 37 0 32 0;
#X connect 38 0 50 0;
#X connect 39 0 44 0;
#X connect 39 1 45 0;
#X connect 39 2 46 0;
#X connect 40 0 42 0;
#X connect 41 0 43 0;
#X connect 42 0 38 7;
#X connect 43 0 38 8;
#X connect 44 0 38 6;
#X connect 45 0 40 0;
#X connect 46 0 41 0;
#X connect 47 0 0 0;
#X connect 48 0 208 0;
#X connect 49 0 48 0;
#X connect 50 0 51 0;
#X connect 51 0 208 0;
#X connect 52 0 57 0;
#X connect 52 1 58 0;
#X connect 52 2 59 0;
#X connect 53 0 55 0;
#X connect 54 0 56 0;
#X connect 55 0 91 1;
#X connect 56 0 91 2;
#X connect 57 0 91 0;
#X connect 58 0 53 0;
#X connect 59 0 54 0;
#X connect 60 0 65 0;
#X connect 60 1 66 0;
#X connect 60 2 67 0;
#X connect 61 0 63 0;
#X connect 62 0 64 0;
#X connect 63 0 91 4;
#X connect 64 0 91 5;
#X connect 65 0 91 3;
#X connect 66 0 61 0;
#X connect 67 0 62 0;
#X connect 68 0 73 0;
#X connect 68 1 74 0;
#X connect 68 2 75 0;
#X connect 69 0 71 0;
#X connect 70 0 72 0;
#X connect 71 0 91 7;
#X connect 72 0 91 8;
#X connect 73 0 91 6;
#X connect 74 0 69 0;
#X connect 75 0 70 0;
#X connect 76 0 208 0;
#X connect 77 0 82 0;
#X connect 77 1 83 0;
#X connect 77 2 84 0;
#X connect 78 0 80 0;
#X connect 79 0 81 0;
#X connect 80 0 91 10;
#X connect 81 0 91 11;
#X connect 82 0 91 9;
#X connect 83 0 78 0;
#X connect 84 0 79 0;
#X connect 85 0 13 0;
#X connect 86 0 30 0;
#X connect 87 0 39 0;
#X connect 88 0 60 0;
#X connect 89 0 68 0;
#X connect 90 0 77 0;
#X connect 91 0 92 0;
#X connect 92 0 76 0;
#X connect 93 0 3 0;
#X connect 93 0 12 0;
#X connect 94 0 22 0;
#X connect 95 0 52 0;
#X connect 96 0 101 0;
#X connect 96 1 102 0;
#X connect 96 2 103 0;
#X connect 97 0 99 0;
#X connect 98 0 100 0;
#X connect 99 0 141 1;
#X connect 100 0 141 2;
#X connect 101 0 141 0;
#X connect 102 0 97 0;
#X connect 103 0 98 0;
#X connect 104 0 109 0;
#X connect 104 1 110 0;
#X connect 104 2 111 0;
#X connect 105 0 107 0;
#X connect 106 0 108 0;
#X connect 107 0 141 4;
#X connect 108 0 141 5;
#X connect 109 0 141 3;
#X connect 110 0 105 0;
#X connect 111 0 106 0;
#X connect 112 0 117 0;
#X connect 112 1 118 0;
#X connect 112 2 119 0;
#X connect 113 0 115 0;
#X connect 114 0 116 0;
#X connect 115 0 141 7;
#X connect 116 0 141 8;
#X connect 117 0 141 6;
#X connect 118 0 113 0;
#X connect 119 0 114 0;
#X connect 120 0 208 0;
#X connect 121 0 126 0;
#X connect 121 1 127 0;
#X connect 121 2 128 0;
#X connect 122 0 124 0;
#X connect 123 0 125 0;
#X connect 124 0 141 10;
#X connect 125 0 141 11;
#X connect 126 0 141 9;
#X connect 127 0 122 0;
#X connect 128 0 123 0;
#X connect 129 0 104 0;
#X connect 130 0 112 0;
#X connect 131 0 121 0;
#X connect 132 0 96 0;
#X connect 133 0 138 0;
#X connect 133 1 139 0;
#X connect 133 2 140 0;
#X connect 134 0 136 0;
#X connect 135 0 137 0;
#X connect 136 0 141 13;
#X connect 137 0 141 14;
#X connect 138 0 141 12;
#X connect 139 0 134 0;
#X connect 140 0 135 0;
#X connect 141 0 142 0;
#X connect 142 0 120 0;
#X connect 143 0 133 0;
#X connect 144 0 149 0;
#X connect 144 1 150 0;
#X connect 144 2 151 0;
#X connect 145 0 147 0;
#X connect 146 0 148 0;
#X connect 147 0 199 1;
#X connect 148 0 199 2;
#X connect 149 0 199 0;
#X connect 150 0 145 0;
#X connect 151 0 146 0;
#X connect 152 0 157 0;
#X connect 152 1 158 0;
#X connect 152 2 159 0;
#X connect 153 0 155 0;
#X connect 154 0 156 0;
#X connect 155 0 199 4;
#X connect 156 0 199 5;
#X connect 157 0 199 3;
#X connect 158 0 153 0;
#X connect 159 0 154 0;
#X connect 160 0 165 0;
#X connect 160 1 166 0;
#X connect 160 2 167 0;
#X connect 161 0 163 0;
#X connect 162 0 164 0;
#X connect 163 0 199 7;
#X connect 164 0 199 8;
#X connect 165 0 199 6;
#X connect 166 0 161 0;
#X connect 167 0 162 0;
#X connect 168 0 208 0;
#X connect 169 0 174 0;
#X connect 169 1 175 0;
#X connect 169 2 176 0;
#X connect 170 0 172 0;
#X connect 171 0 173 0;
#X connect 172 0 199 10;
#X connect 173 0 199 11;
#X connect 174 0 199 9;
#X connect 175 0 170 0;
#X connect 176 0 171 0;
#X connect 177 0 152 0;
#X connect 178 0 160 0;
#X connect 179 0 169 0;
#X connect 180 0 144 0;
#X connect 181 0 186 0;
#X connect 181 1 187 0;
#X connect 181 2 188 0;
#X connect 182 0 184 0;
#X connect 183 0 185 0;
#X connect 184 0 199 13;
#X connect 185 0 199 14;
#X connect 186 0 199 12;
#X connect 187 0 182 0;
#X connect 188 0 183 0;
#X connect 189 0 181 0;
#X connect 190 0 195 0;
#X connect 190 1 196 0;
#X connect 190 2 197 0;
#X connect 191 0 193 0;
#X connect 192 0 194 0;
#X connect 193 0 199 16;
#X connect 194 0 199 17;
#X connect 195 0 199 15;
#X connect 196 0 191 0;
#X connect 197 0 192 0;
#X connect 198 0 190 0;
#X connect 199 0 200 0;
#X connect 200 0 168 0;
#X connect 201 0 0 1;
#X connect 202 0 48 1;
#X connect 203 0 51 1;
#X connect 204 0 76 1;
#X connect 205 0 120 1;
#X connect 206 0 168 1;
#X connect 207 0 1 0;
#X restore -280 -839 pd send_nbr_from_comm;
#X obj -288 -874 hradio 15 1 0 7 empty empty empty 0 -8 0 10 -262144
-1 -1 3;
#X obj -398 -879 vsl 15 128 200 600 0 1 adjust_speed empty adjust_speed
-15 -9 0 15 -262144 -1 -1 9500 1;
#N canvas 5 24 450 300 time_target4-6 0;
#X obj -1326 -669 vsl 15 128 0 10 0 0 empty empty empty 0 -9 0 10 -262144
-1 -1 4470 1;
#X obj -1274 -672 vsl 15 128 0 10 0 0 empty empty empty 0 -9 0 10 -262144
-1 -1 5626 1;
#X obj -1255 -707 bng 15 250 50 0 empty inc empty 17 7 0 10 -262144
-1 -1;
#X msg -1274 -794 bang;
#X obj -1326 -726 / 100;
#X obj -1274 -726 / 100;
#X obj -1274 -815 bng 15 250 50 0 empty start empty 17 7 0 10 -262144
-1 -1;
#X msg -1308 -791 stop;
#X obj -1308 -809 bng 15 250 50 0 empty stop empty 17 7 0 10 -262144
-1 -1;
#X floatatom -1326 -692 5 0 0 0 - - -;
#X floatatom -1274 -692 5 0 0 0 - - -;
#X obj -1394 -533 gemhead;
#X obj -1349 -457 translateXYZ;
#X obj -1349 -431 rotateXYZ;
#X obj -1326 -477 - 3;
#X obj -1301 -478 - 3;
#X obj -1394 -488 color;
#X obj -1349 -407 square 0.08;
#X msg -1368 -512 1 0 1;
#X obj -1382 -557 loadbang;
#X obj -1321 -531 pack f f;
#X floatatom -1227 -541 5 0 0 0 - - -;
#X obj -1735 -686 vsl 15 128 0 10 0 0 empty empty empty 0 -9 0 10 -262144
-1 -1 4674 1;
#X obj -1683 -689 vsl 15 128 0 10 0 0 empty empty empty 0 -9 0 10 -262144
-1 -1 3048 1;
#X obj -1664 -724 bng 15 250 50 0 empty inc empty 17 7 0 10 -262144
-1 -1;
#X msg -1683 -811 bang;
#X obj -1735 -743 / 100;
#X obj -1683 -743 / 100;
#X obj -1683 -832 bng 15 250 50 0 empty start empty 17 7 0 10 -262144
-1 -1;
#X msg -1717 -808 stop;
#X obj -1717 -826 bng 15 250 50 0 empty stop empty 17 7 0 10 -262144
-1 -1;
#X floatatom -1735 -709 5 0 0 0 - - -;
#X floatatom -1683 -709 5 0 0 0 - - -;
#X obj -1803 -550 gemhead;
#X obj -1758 -474 translateXYZ;
#X obj -1758 -448 rotateXYZ;
#X obj -1735 -494 - 3;
#X obj -1710 -495 - 3;
#X obj -1803 -505 color;
#X obj -1758 -424 square 0.08;
#X obj -1791 -574 loadbang;
#X obj -1730 -548 pack f f;
#X floatatom -1660 -542 5 0 0 0 - - -;
#X msg -1778 -529 0 1 1;
#X obj -1683 -765 random 500;
#X obj -1750 -766 random 500;
#X obj -1274 -749 random 500;
#X obj -1341 -749 random 500;
#X floatatom -1537 -468 0 0 0 0 - - -;
#X obj -1537 -494 + 1;
#X msg -1537 -587 bang;
#X obj -1537 -520 float;
#X msg -1510 -545 0;
#X obj -1510 -568 select 2;
#X obj -1537 -437 pack f f f;
#X obj -1503 -331 route 1 2;
#X obj -1453 -387 - 1;
#X obj -1462 -365 pack f f f;
#X obj -1274 -774 metro 50000;
#X obj -1683 -791 metro 50000;
#X obj -1727 -524 s target5;
#X obj -1318 -507 s target4;
#X obj -1503 -303 s target6;
#X connect 0 0 14 0;
#X connect 0 0 20 0;
#X connect 0 0 57 1;
#X connect 1 0 15 0;
#X connect 1 0 20 1;
#X connect 1 0 21 0;
#X connect 1 0 57 2;
#X connect 2 0 9 0;
#X connect 2 0 10 0;
#X connect 3 0 58 0;
#X connect 4 0 9 0;
#X connect 5 0 10 0;
#X connect 6 0 3 0;
#X connect 7 0 58 0;
#X connect 8 0 7 0;
#X connect 9 0 0 0;
#X connect 10 0 1 0;
#X connect 11 0 16 0;
#X connect 12 0 13 0;
#X connect 13 0 17 0;
#X connect 14 0 12 1;
#X connect 15 0 12 2;
#X connect 16 0 12 0;
#X connect 18 0 16 1;
#X connect 19 0 18 0;
#X connect 20 0 61 0;
#X connect 22 0 36 0;
#X connect 22 0 41 0;
#X connect 22 0 54 1;
#X connect 23 0 37 0;
#X connect 23 0 41 1;
#X connect 23 0 42 0;
#X connect 23 0 54 2;
#X connect 24 0 31 0;
#X connect 24 0 32 0;
#X connect 24 0 48 0;
#X connect 25 0 59 0;
#X connect 26 0 31 0;
#X connect 27 0 32 0;
#X connect 28 0 25 0;
#X connect 29 0 59 0;
#X connect 30 0 29 0;
#X connect 31 0 22 0;
#X connect 32 0 23 0;
#X connect 33 0 38 0;
#X connect 34 0 35 0;
#X connect 35 0 39 0;
#X connect 36 0 34 1;
#X connect 37 0 34 2;
#X connect 38 0 34 0;
#X connect 40 0 43 0;
#X connect 41 0 60 0;
#X connect 43 0 38 1;
#X connect 44 0 27 0;
#X connect 45 0 26 0;
#X connect 46 0 5 0;
#X connect 47 0 4 0;
#X connect 48 0 54 0;
#X connect 48 0 56 0;
#X connect 49 0 48 0;
#X connect 49 0 51 1;
#X connect 49 0 53 0;
#X connect 50 0 51 0;
#X connect 51 0 49 0;
#X connect 52 0 51 1;
#X connect 53 0 52 0;
#X connect 54 0 55 0;
#X connect 55 0 62 0;
#X connect 56 0 57 0;
#X connect 57 0 55 0;
#X connect 58 0 46 0;
#X connect 58 0 47 0;
#X connect 59 0 44 0;
#X connect 59 0 45 0;
#X connect 59 0 50 0;
#X restore -177 -942 pd time_target4-6;
#N canvas 5 24 1067 553 time_target1-3 0;
#X obj -480 -848 vsl 15 128 0 10 0 0 empty empty empty 0 -9 0 10 -262144
-1 -1 5055 1;
#X obj -428 -851 vsl 15 128 0 10 0 0 empty empty empty 0 -9 0 10 -262144
-1 -1 3277 1;
#X obj -409 -886 bng 15 250 50 0 empty inc empty 17 7 0 10 -262144
-1 -1;
#X msg -428 -973 bang;
#X obj -480 -905 / 100;
#X obj -428 -905 / 100;
#X obj -428 -994 bng 15 250 50 0 empty start empty 17 7 0 10 -262144
-1 -1;
#X msg -462 -970 stop;
#X obj -462 -988 bng 15 250 50 0 empty stop empty 17 7 0 10 -262144
-1 -1;
#X floatatom -480 -871 5 0 0 0 - - -;
#X floatatom -428 -871 5 0 0 0 - - -;
#X obj -548 -712 gemhead;
#X obj -503 -636 translateXYZ;
#X obj -503 -610 rotateXYZ;
#X obj -480 -656 - 3;
#X obj -455 -657 - 3;
#X obj -548 -667 color;
#X obj -503 -586 square 0.08;
#X msg -522 -691 1 0 1;
#X obj -536 -736 loadbang;
#X obj -475 -710 pack f f;
#X floatatom -381 -720 5 0 0 0 - - -;
#X obj -889 -865 vsl 15 128 0 10 0 0 empty empty empty 0 -9 0 10 -262144
-1 -1 6248 1;
#X obj -837 -868 vsl 15 128 0 10 0 0 empty empty empty 0 -9 0 10 -262144
-1 -1 2248 1;
#X obj -818 -903 bng 15 250 50 0 empty inc empty 17 7 0 10 -262144
-1 -1;
#X msg -837 -990 bang;
#X obj -889 -922 / 100;
#X obj -837 -922 / 100;
#X obj -837 -1011 bng 15 250 50 0 empty start empty 17 7 0 10 -262144
-1 -1;
#X msg -871 -987 stop;
#X obj -871 -1005 bng 15 250 50 0 empty stop empty 17 7 0 10 -262144
-1 -1;
#X floatatom -889 -888 5 0 0 0 - - -;
#X floatatom -837 -888 5 0 0 0 - - -;
#X obj -957 -729 gemhead;
#X obj -912 -653 translateXYZ;
#X obj -912 -627 rotateXYZ;
#X obj -889 -673 - 3;
#X obj -864 -674 - 3;
#X obj -957 -684 color;
#X obj -912 -603 square 0.08;
#X obj -945 -753 loadbang;
#X obj -884 -727 pack f f;
#X floatatom -814 -721 5 0 0 0 - - -;
#X obj -881 -703 s target2;
#X msg -932 -708 0 1 1;
#X obj -837 -944 random 500;
#X obj -904 -945 random 500;
#X obj -428 -928 random 500;
#X obj -495 -928 random 500;
#X floatatom -691 -647 0 0 0 0 - - -;
#X obj -691 -673 + 1;
#X msg -691 -766 bang;
#X obj -691 -699 float;
#X msg -664 -724 0;
#X obj -664 -747 select 2;
#X obj -691 -616 pack f f f;
#X obj -657 -510 route 1 2;
#X obj -607 -566 - 1;
#X obj -616 -544 pack f f f;
#X obj -657 -482 s target3;
#X obj -428 -953 metro 50000;
#X obj -837 -970 metro 50000;
#X obj -473 -686 s target1;
#X connect 0 0 14 0;
#X connect 0 0 20 0;
#X connect 0 0 58 1;
#X connect 1 0 15 0;
#X connect 1 0 20 1;
#X connect 1 0 21 0;
#X connect 1 0 58 2;
#X connect 2 0 9 0;
#X connect 2 0 10 0;
#X connect 3 0 60 0;
#X connect 4 0 9 0;
#X connect 5 0 10 0;
#X connect 6 0 3 0;
#X connect 7 0 60 0;
#X connect 8 0 7 0;
#X connect 9 0 0 0;
#X connect 10 0 1 0;
#X connect 11 0 16 0;
#X connect 12 0 13 0;
#X connect 13 0 17 0;
#X connect 14 0 12 1;
#X connect 15 0 12 2;
#X connect 16 0 12 0;
#X connect 18 0 16 1;
#X connect 19 0 18 0;
#X connect 20 0 62 0;
#X connect 22 0 36 0;
#X connect 22 0 41 0;
#X connect 22 0 55 1;
#X connect 23 0 37 0;
#X connect 23 0 41 1;
#X connect 23 0 42 0;
#X connect 23 0 55 2;
#X connect 24 0 31 0;
#X connect 24 0 32 0;
#X connect 24 0 49 0;
#X connect 25 0 61 0;
#X connect 26 0 31 0;
#X connect 27 0 32 0;
#X connect 28 0 25 0;
#X connect 29 0 61 0;
#X connect 30 0 29 0;
#X connect 31 0 22 0;
#X connect 32 0 23 0;
#X connect 33 0 38 0;
#X connect 34 0 35 0;
#X connect 35 0 39 0;
#X connect 36 0 34 1;
#X connect 37 0 34 2;
#X connect 38 0 34 0;
#X connect 40 0 44 0;
#X connect 41 0 43 0;
#X connect 44 0 38 1;
#X connect 45 0 27 0;
#X connect 46 0 26 0;
#X connect 47 0 5 0;
#X connect 48 0 4 0;
#X connect 49 0 55 0;
#X connect 49 0 57 0;
#X connect 50 0 49 0;
#X connect 50 0 52 1;
#X connect 50 0 54 0;
#X connect 51 0 52 0;
#X connect 52 0 50 0;
#X connect 53 0 52 1;
#X connect 54 0 53 0;
#X connect 55 0 56 0;
#X connect 56 0 59 0;
#X connect 57 0 58 0;
#X connect 58 0 56 0;
#X connect 60 0 47 0;
#X connect 60 0 48 0;
#X connect 61 0 45 0;
#X connect 61 0 46 0;
#X connect 61 0 51 0;
#X restore -308 -944 pd time_target1-3;
#X floatatom -398 -736 5 0 0 0 - - -;
#X obj 14 -1115 print rcvOSC;
#X obj 42 -1142 s rcvOSC;
#X obj 14 -1167 dumpOSC 9000;
#X floatatom -266 -857 5 0 0 0 - - -;
#X connect 3 0 2 0;
#X connect 4 0 2 0;
#X connect 5 0 2 0;
#X connect 6 0 2 0;
#X connect 7 0 2 0;
#X connect 9 0 8 0;
#X connect 10 0 2 0;
#X connect 11 0 28 0;
#X connect 12 0 26 0;
#X connect 13 0 14 0;
#X connect 14 0 19 0;
#X connect 15 0 16 0;
#X connect 18 0 22 0;
#X connect 18 0 17 0;
#X connect 19 0 15 0;
#X connect 20 0 19 1;
#X connect 21 0 19 2;
#X connect 22 1 23 0;
#X connect 22 1 24 0;
#X connect 22 2 25 0;
#X connect 23 0 20 0;
#X connect 25 0 21 0;
#X connect 27 0 12 0;
#X connect 28 0 26 0;
#X connect 29 0 30 0;
#X connect 30 0 32 0;
#X connect 31 0 30 0;
#X connect 35 0 30 0;
#X connect 36 0 35 0;
#X connect 36 0 44 0;
#X connect 37 0 40 0;
#X connect 43 0 41 0;
#X connect 43 0 42 0;
